<?xml version="1.0" standalone="no"?>
<!DOCTYPE svg PUBLIC "-//W3C//DTD SVG 20010904//EN"
 "http://www.w3.org/TR/2001/REC-SVG-20010904/DTD/svg10.dtd">
<svg version="1.0" xmlns="http://www.w3.org/2000/svg"
 width="500.000000pt" height="500.000000pt" viewBox="0 0 500.000000 500.000000"
 preserveAspectRatio="xMidYMid meet">
<metadata>
Created by potrace 1.14, written by Peter Selinger 2001-2017
</metadata>
<g transform="translate(0.000000,500.000000) scale(0.100000,-0.100000)"
fill="#000000" stroke="none">
<path d="M2408 4284 c-2 -1 -41 -5 -88 -8 -80 -5 -125 -11 -160 -21 -8 -2 -31
-7 -50 -10 -72 -12 -273 -86 -394 -145 -289 -140 -519 -340 -713 -618 -93
-134 -238 -464 -257 -587 -4 -20 -8 -41 -11 -44 -5 -9 -23 -152 -30 -246 l-6
-71 66 0 c63 0 65 1 66 25 5 142 36 302 94 476 107 325 379 667 675 851 160
100 264 148 406 190 112 33 203 51 338 70 95 12 365 5 426 -11 8 -2 31 -7 50
-10 348 -59 680 -244 952 -531 102 -108 250 -343 297 -471 16 -43 34 -91 41
-108 12 -32 55 -199 64 -250 7 -37 16 -125 20 -185 l3 -45 64 0 64 0 -1 35
c-1 47 -13 170 -19 195 -2 11 -13 63 -23 115 -30 145 -68 251 -149 410 -94
186 -176 300 -322 447 -141 143 -158 157 -291 245 -242 162 -540 274 -778 294
-67 6 -330 12 -334 8z"/>
<path d="M2316 4083 c-1 -1 -47 -9 -102 -17 -90 -13 -303 -75 -329 -96 -5 -4
-20 -10 -31 -14 -35 -11 -259 -138 -301 -171 -21 -16 -53 -44 -72 -61 l-34
-30 34 -32 c19 -18 39 -32 44 -32 6 0 38 22 72 48 231 177 519 289 788 306 31
2 42 21 44 79 1 28 1 28 -55 25 -31 -2 -57 -4 -58 -5z"/>
<path d="M2505 4066 c-3 -14 -7 -37 -10 -50 -9 -42 -19 -225 -19 -349 -1 -110
-2 -118 -21 -122 -11 -2 -57 -8 -102 -15 -139 -19 -315 -87 -428 -166 -38 -26
-109 -87 -156 -135 -87 -87 -209 -256 -209 -288 0 -9 -4 -21 -9 -26 -32 -36
-86 -231 -97 -351 -4 -38 -7 -70 -8 -70 0 -1 -118 -4 -261 -8 -232 -5 -286 -8
-360 -21 -11 -2 -31 -4 -44 -4 -34 -1 -22 -9 25 -16 21 -4 46 -8 54 -10 29 -8
216 -16 403 -18 180 -2 187 -3 188 -22 0 -11 2 -29 4 -40 2 -11 6 -39 10 -62
24 -164 139 -404 252 -524 l46 -50 -49 -51 c-27 -29 -69 -73 -94 -98 -54 -55
-105 -112 -184 -205 -47 -56 -55 -71 -41 -73 10 -2 20 0 24 5 3 5 29 26 56 48
28 22 79 67 114 100 35 33 71 67 80 75 9 9 46 44 82 78 l67 63 32 -28 c19 -15
54 -42 79 -59 l45 -31 1 -241 c0 -216 -2 -242 -16 -242 -39 0 -364 179 -399
219 -27 31 -37 30 -74 -8 l-38 -39 59 -44 c124 -95 314 -200 433 -241 152 -52
340 -93 465 -101 l70 -4 0 331 c0 358 -1 348 58 417 26 31 157 274 157 292 0
3 -37 27 -82 54 -101 59 -174 133 -236 236 -25 44 -48 75 -50 70 -6 -18 61
-174 99 -231 22 -33 71 -91 110 -131 51 -51 65 -70 48 -65 -82 26 -185 119
-247 225 -15 24 -38 78 -53 118 l-26 75 -34 -31 -34 -30 -2 -109 c0 -59 5
-135 12 -169 18 -83 86 -255 135 -338 22 -38 39 -71 37 -73 -8 -8 -110 114
-141 167 -79 139 -117 272 -123 435 l-5 120 60 38 c65 41 187 96 214 97 11 0
19 -11 24 -32 15 -73 65 -151 152 -242 40 -41 133 -106 153 -106 10 0 27 48
52 147 34 134 68 168 60 61 -12 -172 -109 -441 -219 -610 l-48 -73 0 -323 -1
-323 65 6 c123 10 310 43 360 62 8 3 20 7 25 8 138 32 398 169 548 289 l37 30
-37 38 -36 37 -51 -36 c-124 -90 -248 -160 -358 -204 l-48 -19 0 249 0 248 58
36 c32 19 66 45 76 56 l19 21 52 -48 c28 -26 99 -91 157 -146 59 -54 117 -105
130 -114 13 -8 37 -28 54 -44 20 -19 34 -26 38 -19 9 14 -6 41 -46 83 -18 19
-50 54 -72 79 -21 24 -85 92 -142 151 -57 60 -104 112 -104 116 0 5 14 21 31
38 76 71 177 246 219 376 12 37 21 69 20 70 -1 2 4 16 10 33 6 16 13 50 16 75
3 25 7 54 9 65 2 11 4 25 4 30 1 7 82 11 224 13 122 2 238 5 257 7 19 2 63 7
97 10 72 7 130 22 98 25 -11 1 -29 3 -40 5 -73 13 -128 16 -365 21 -146 3
-266 7 -267 7 -1 1 -4 34 -8 72 -20 201 -94 393 -214 552 -83 110 -182 198
-326 289 -79 50 -278 115 -391 129 -101 12 -92 -4 -94 157 -1 161 -5 222 -20
323 -12 79 -17 88 -25 51z m260 -720 c72 -72 138 -162 132 -180 -3 -9 -240
-13 -334 -7 -10 1 -13 35 -13 135 0 154 -3 148 89 132 48 -9 62 -17 126 -80z
m-289 41 l2 -42 -82 -1 c-59 -1 -94 -7 -128 -22 -26 -12 -49 -18 -52 -14 -8
13 112 104 147 112 18 5 50 8 72 9 l40 1 1 -43z m-354 -72 c-22 -25 -53 -70
-68 -100 -19 -35 -35 -55 -47 -55 -14 0 -16 4 -7 19 14 28 14 29 -22 25 -18
-2 -41 -13 -50 -25 -19 -22 -71 -35 -65 -15 2 6 23 26 48 44 24 18 51 39 59
45 43 35 157 99 188 106 2 1 -14 -19 -36 -44z m837 -2 c97 -60 211 -142 211
-154 0 -18 -35 -1 -57 27 -18 24 -31 32 -47 30 -11 -3 -27 -5 -34 -5 -10 -1
-10 -6 -2 -22 13 -23 12 -26 -10 -29 -27 -4 -40 0 -40 11 0 9 -55 96 -109 170
-13 18 -12 19 24 3 21 -8 50 -23 64 -31z m-711 -79 c19 -6 23 -12 20 -42 l-3
-36 -78 1 c-43 0 -80 2 -82 5 -2 2 7 21 21 41 21 32 30 37 62 37 20 0 47 -3
60 -6z m227 -64 c3 -5 -1 -10 -10 -10 -9 0 -13 5 -10 10 3 6 8 10 10 10 2 0 7
-4 10 -10z m-501 -129 c-8 -25 -14 -56 -14 -69 0 -22 -1 -22 -25 -6 -16 11
-36 14 -55 11 -34 -7 -33 2 8 69 23 37 30 42 63 41 l37 -1 -14 -45z m287 35
c1 -6 0 -24 -1 -39 -2 -26 1 -28 22 -22 12 4 46 21 73 39 33 22 62 32 85 32
l35 -1 0 -102 0 -103 37 0 38 0 0 104 0 103 195 0 194 0 10 -29 c6 -15 14 -28
18 -29 58 -7 59 -7 55 28 l-4 33 49 0 c44 0 51 -3 66 -30 l18 -30 -39 0 c-31
0 -41 -4 -45 -20 -3 -11 -17 -25 -31 -31 -22 -11 -32 -9 -64 9 l-38 21 -13
-21 c-14 -23 -14 -24 30 -46 34 -18 50 -42 27 -42 -30 -1 -39 -15 -27 -49 10
-29 15 -31 48 -29 30 1 40 7 50 29 18 41 36 42 99 4 l57 -34 12 29 c16 37 52
49 70 24 18 -25 16 -34 -7 -34 -11 0 -20 -4 -20 -9 0 -5 -3 -16 -6 -25 -5 -12
0 -16 21 -16 39 0 29 -30 -16 -46 -34 -11 -43 -9 -122 23 l-87 35 -49 -23
c-38 -17 -55 -32 -73 -65 l-22 -43 -66 1 c-96 1 -95 1 -96 -32 -1 -33 -4 -32
86 -34 l60 -1 46 -58 c25 -32 52 -61 60 -64 8 -3 33 1 54 10 51 20 67 8 94
-69 20 -57 21 -61 4 -109 l-17 -50 -59 -3 -59 -3 11 -34 c6 -19 18 -35 26 -36
8 0 32 -1 53 -1 33 0 42 -7 38 -30 0 -4 3 -18 9 -32 7 -20 13 -23 34 -18 14 4
35 23 48 42 24 35 24 35 107 38 81 2 82 2 76 -20 -27 -90 -128 -261 -202 -343
-33 -37 -154 -137 -159 -133 -1 2 -5 33 -8 68 -5 65 -12 124 -21 190 -17 119
-60 280 -77 292 -78 52 -193 113 -249 130 l-69 22 0 43 c0 29 8 56 24 81 21
33 23 47 21 125 -4 102 -18 131 -73 154 -82 34 -192 10 -227 -50 -28 -46 -29
-191 -2 -230 12 -18 20 -47 21 -75 l1 -46 -58 -17 c-77 -23 -112 -40 -201 -99
-62 -41 -74 -54 -78 -82 -7 -45 -2 -325 7 -368 38 -197 107 -401 166 -489 16
-25 29 -48 29 -52 0 -12 -39 -17 -48 -5 -31 37 -106 196 -136 286 l-35 105 5
-115 c4 -105 15 -216 29 -280 3 -14 8 -43 11 -65 6 -36 5 -38 -9 -25 -8 8 -26
51 -40 95 -22 72 -30 106 -43 193 -2 15 -7 90 -10 166 l-5 140 -35 39 c-85 93
-161 235 -178 330 l-7 37 111 -1 c61 -1 113 0 116 3 2 3 7 15 9 27 9 48 99
127 205 181 l65 33 -43 15 c-29 9 -50 25 -62 45 -14 22 -33 35 -72 47 -60 18
-111 17 -117 -2 -2 -7 -19 -42 -38 -77 -18 -35 -33 -67 -33 -72 0 -4 10 -18
23 -31 12 -13 35 -40 51 -60 l28 -38 -136 0 c-75 0 -135 3 -135 8 4 23 -4 31
-31 30 -23 -1 -30 -6 -30 -20 0 -16 -6 -19 -42 -16 l-43 3 -11 60 c-10 57 -10
277 0 320 2 11 5 26 5 33 1 7 16 12 39 12 30 0 40 -5 54 -29 19 -35 52 -36 53
-3 0 33 18 27 38 -12 11 -20 26 -36 35 -37 10 -1 122 -2 250 -3 l233 -1 -3 35
-3 34 -155 1 -155 0 -3 33 c-3 27 3 39 25 58 15 13 31 24 35 24 3 0 4 14 2 30
l-5 30 55 0 56 0 -20 35 c-21 38 -21 38 40 37 51 -1 63 14 34 43 -13 13 -26
34 -29 47 -5 21 -10 23 -60 20 -58 -4 -64 1 -40 35 13 19 24 21 110 21 63 0
95 -4 96 -12z m-541 -119 c-12 -26 -29 -79 -39 -119 -17 -66 -21 -73 -45 -76
-14 -2 -26 1 -26 7 0 28 117 247 127 237 2 -2 -6 -24 -17 -49z m1665 -104 c40
-83 42 -93 17 -93 -14 0 -26 24 -54 106 -39 120 -24 114 37 -13z m-1507 -112
c17 -10 10 -65 -9 -69 -8 -1 -23 4 -34 11 -18 14 -18 16 -2 41 19 28 25 30 45
17z m1478 -102 l39 -50 12 28 c7 17 8 34 2 45 -13 24 -11 28 10 28 22 0 27
-17 36 -110 4 -36 8 -76 9 -90 3 -27 -9 -155 -19 -202 -6 -27 -9 -28 -69 -28
l-63 0 5 58 c3 38 16 79 38 123 l34 66 -40 81 c-57 115 -55 132 6 51z m-1650
-527 c27 -81 103 -241 124 -262 3 -3 25 -30 50 -60 l45 -55 -40 32 c-55 43
-82 74 -148 169 -52 74 -104 175 -122 232 -6 22 -4 23 30 20 35 -3 37 -4 61
-76z m1118 -1048 c-14 -24 -27 -44 -28 -44 -1 0 -1 195 0 433 1 426 4 474 37
567 10 29 12 -52 15 -438 l2 -473 -26 -45z"/>
<path d="M3117 1887 c-24 -26 -28 -38 -23 -66 3 -18 8 -36 11 -39 7 -7 55 43
98 101 l28 37 -43 -1 c-35 -1 -48 -7 -71 -32z"/>
<path d="M3373 2382 c-12 -7 -13 -102 -1 -102 19 0 38 36 38 71 0 39 -11 48
-37 31z"/>
<path d="M2595 4044 c4 -27 8 -50 9 -50 0 -1 24 -5 51 -8 234 -30 451 -104
641 -218 58 -35 113 -70 122 -78 9 -9 33 -28 52 -42 l35 -27 39 33 c24 20 36
37 32 44 -14 23 -164 131 -232 168 -116 63 -218 114 -227 114 -5 0 -23 6 -40
14 -101 46 -232 75 -420 92 l-69 6 7 -48z"/>
<path d="M1309 3563 c-131 -138 -268 -366 -333 -553 -31 -88 -73 -288 -81
-392 l-7 -78 51 2 c28 2 51 5 52 8 0 3 2 12 4 21 1 9 5 47 8 85 14 170 104
431 204 594 26 41 50 77 53 80 3 3 17 21 30 40 13 19 48 64 78 99 l53 64 -32
33 c-18 19 -36 34 -39 34 -3 0 -22 -17 -41 -37z"/>
<path d="M3637 3565 l-29 -36 27 -35 c14 -19 37 -44 50 -57 41 -40 154 -213
194 -298 57 -121 68 -151 100 -263 34 -118 40 -145 48 -246 3 -41 7 -77 9 -79
2 -2 25 -6 52 -9 l49 -4 -4 53 c-12 179 -61 385 -125 529 -52 114 -43 98 -110
203 -21 32 -38 62 -38 66 0 4 -8 16 -18 27 -9 10 -28 32 -40 49 -51 65 -116
135 -126 135 -6 0 -24 -16 -39 -35z"/>
<path d="M705 2322 c3 -31 7 -73 10 -92 2 -19 7 -55 11 -80 27 -204 141 -498
267 -684 45 -69 176 -234 218 -277 167 -171 444 -347 672 -428 86 -30 289 -79
367 -88 25 -3 61 -8 80 -12 19 -4 105 -7 190 -6 139 2 202 6 280 21 14 3 39 7
55 9 73 11 202 44 275 70 238 84 502 253 680 434 77 78 222 262 253 319 13 26
39 73 57 104 82 150 144 329 174 508 9 52 18 106 20 120 3 14 6 50 8 80 l3 55
-64 0 c-72 0 -62 16 -75 -120 -9 -97 -34 -201 -82 -345 -61 -184 -98 -253
-241 -460 -98 -143 -355 -364 -543 -468 -158 -88 -436 -173 -619 -190 -117
-11 -348 -7 -426 7 -204 37 -427 111 -570 189 -82 45 -207 130 -213 144 -2 4
-8 8 -14 8 -15 0 -91 63 -143 119 -24 25 -66 70 -93 99 -65 69 -176 233 -236
350 -85 165 -173 491 -176 649 0 20 -5 22 -66 22 l-65 0 6 -57z"/>
<path d="M895 2312 c12 -113 47 -289 76 -372 37 -106 146 -328 187 -379 7 -9
40 -52 74 -96 34 -44 73 -90 86 -101 l25 -22 27 32 c15 17 29 34 31 37 4 6 -4
17 -99 137 -119 151 -217 359 -271 577 -18 73 -38 209 -33 228 1 4 -1 7 -5 8
-5 0 -30 2 -56 5 l-48 4 6 -58z"/>
<path d="M4034 2355 c-1 -5 -5 -37 -8 -70 -12 -143 -73 -342 -155 -505 -59
-118 -101 -183 -184 -284 l-65 -79 25 -34 c14 -18 31 -33 37 -33 17 0 73 61
143 155 168 226 264 469 298 755 3 25 8 59 11 77 l5 32 -52 -2 c-28 -1 -53 -6
-55 -12z"/>
</g>
</svg>
