<?xml version="1.0" standalone="no"?>
<!DOCTYPE svg PUBLIC "-//W3C//DTD SVG 20010904//EN"
 "http://www.w3.org/TR/2001/REC-SVG-20010904/DTD/svg10.dtd">
<svg version="1.0" xmlns="http://www.w3.org/2000/svg"
 width="500.000000pt" height="500.000000pt" viewBox="0 0 500.000000 500.000000"
 preserveAspectRatio="xMidYMid meet">
<metadata>
Created by potrace 1.14, written by Peter Selinger 2001-2017
</metadata>
<g transform="translate(0.000000,500.000000) scale(0.100000,-0.100000)"
fill="#000000" stroke="none">
<path d="M2310 4974 c-388 -45 -655 -122 -947 -273 -537 -280 -949 -739 -1168
-1306 -56 -143 -116 -374 -141 -540 -26 -168 -26 -522 0 -690 136 -899 723
-1636 1561 -1960 143 -56 374 -116 540 -141 168 -26 522 -26 690 0 899 136
1636 723 1960 1561 56 143 116 374 141 540 26 168 26 522 0 690 -137 904 -729
1643 -1572 1964 -144 55 -365 112 -524 136 -99 15 -463 28 -540 19z m430 -84
c166 -12 256 -28 423 -76 367 -107 766 -340 1022 -599 140 -141 305 -348 366
-460 118 -215 198 -396 243 -545 42 -139 96 -474 96 -593 l0 -30 -81 6 c-45 4
-83 8 -84 9 -2 2 -8 60 -14 129 -11 129 -48 321 -80 419 -87 263 -158 416
-263 567 -24 35 -65 95 -93 135 -88 129 -382 405 -522 490 -15 10 -59 38 -98
62 -358 228 -814 340 -1281 315 -228 -13 -516 -76 -712 -156 -167 -68 -415
-217 -556 -332 -122 -101 -331 -323 -397 -422 -13 -20 -40 -61 -60 -90 -50
-76 -152 -263 -182 -334 -89 -212 -166 -548 -167 -726 l0 -56 -61 -7 c-112
-11 -109 -13 -109 42 0 173 45 429 111 625 57 172 199 457 297 597 171 243
335 415 547 570 275 202 628 360 960 430 176 36 436 48 695 30z m-345 -307
c-4 -32 -10 -62 -15 -66 -4 -5 -44 -13 -89 -18 -211 -24 -394 -76 -656 -187
-47 -20 -313 -190 -364 -233 -20 -16 -42 -34 -49 -40 -9 -7 -23 -2 -51 20 -62
49 -67 58 -45 82 33 37 198 156 266 193 37 20 89 49 116 65 165 97 400 178
612 211 160 25 175 27 234 29 l48 1 -7 -57z m140 -88 c9 -71 20 -229 23 -350
l7 -220 40 -3 c63 -4 244 -41 315 -64 121 -39 259 -106 358 -171 116 -78 275
-230 361 -347 143 -192 244 -466 266 -721 l7 -76 157 -6 c86 -4 218 -7 294 -7
144 0 426 -25 440 -39 22 -22 -344 -50 -655 -51 l-237 0 -5 -32 c-25 -162 -44
-250 -78 -348 -63 -184 -170 -369 -279 -483 -27 -28 -49 -55 -49 -59 0 -3 58
-67 128 -140 219 -227 362 -387 362 -405 0 -26 -23 -24 -53 5 -18 16 -52 44
-77 61 -25 18 -79 64 -120 104 -41 40 -104 99 -140 131 -36 33 -91 84 -123
114 l-58 55 -27 -24 c-42 -38 -93 -74 -139 -98 l-43 -21 0 -324 c0 -177 3
-325 6 -328 13 -14 321 139 426 211 40 28 94 67 120 86 l47 36 52 -48 51 -48
-33 -28 c-62 -52 -235 -165 -353 -231 -65 -36 -120 -66 -122 -66 -2 0 -27 -11
-56 -24 -169 -77 -566 -164 -750 -166 l-48 0 0 423 0 422 51 75 c111 162 232
454 278 665 20 93 33 245 21 245 -23 0 -53 -55 -65 -118 -7 -38 -26 -108 -40
-156 -25 -79 -29 -86 -49 -80 -89 27 -229 150 -314 279 -48 70 -82 153 -82
197 0 23 -16 23 -92 -3 -100 -35 -262 -125 -291 -163 -12 -16 0 -250 17 -336
31 -150 102 -329 171 -430 41 -60 165 -193 165 -177 0 3 -18 35 -39 71 -63
102 -144 294 -183 431 -19 67 -22 105 -23 237 l0 157 40 40 c21 23 42 41 46
41 4 0 17 -30 29 -67 13 -38 43 -108 67 -156 59 -113 187 -249 280 -296 34
-17 68 -31 74 -31 6 0 -33 46 -86 102 -54 57 -108 117 -121 134 -51 66 -167
334 -145 334 5 0 32 -41 61 -90 87 -149 222 -276 380 -355 19 -10 36 -19 38
-20 6 -5 -107 -242 -150 -315 -12 -19 -45 -65 -75 -101 l-53 -66 0 -447 0
-446 -38 0 c-140 0 -410 54 -635 126 -173 56 -455 210 -618 338 l-62 48 51 51
51 51 51 -43 c28 -24 90 -68 138 -98 94 -59 330 -178 375 -189 l27 -6 0 326 0
326 -39 20 c-22 11 -67 42 -100 70 -33 27 -63 50 -66 50 -4 0 -102 -89 -219
-197 -269 -249 -328 -299 -346 -288 -13 8 -6 21 50 86 121 143 208 238 316
349 66 66 119 125 119 130 0 5 -18 29 -40 52 -184 194 -329 520 -360 806 l-7
62 -241 0 c-305 0 -673 29 -650 51 12 12 301 39 416 39 56 0 186 3 288 7 l186
6 7 81 c16 212 112 493 221 651 189 272 391 440 655 544 138 55 270 88 395 99
l70 7 6 240 c7 280 29 489 49 468 5 -4 16 -66 25 -138z m377 114 c120 -19 217
-44 288 -74 19 -8 67 -26 105 -41 118 -45 364 -183 482 -271 61 -45 115 -88
118 -94 8 -11 -24 -50 -67 -81 l-28 -19 -39 28 c-21 15 -63 46 -92 68 -54 41
-244 156 -309 188 -78 37 -280 109 -384 137 -104 27 -178 40 -304 56 -59 7
-58 6 -67 83 l-6 54 90 -7 c49 -4 145 -16 213 -27z m66 -345 c199 -55 421
-161 592 -284 150 -107 146 -94 45 -186 -47 -44 -89 -80 -94 -82 -4 -1 -48 27
-96 63 -214 159 -441 256 -670 285 -49 6 -91 12 -92 13 -5 6 -32 240 -28 247
8 13 219 -21 343 -56z m-602 40 c-4 -9 -9 -64 -13 -121 -7 -122 -2 -116 -128
-127 -96 -8 -277 -66 -403 -129 -97 -48 -262 -155 -304 -197 l-27 -26 -91 84
-90 85 22 25 c30 32 178 137 253 179 217 123 433 202 625 228 138 19 164 19
156 -1z m-1347 -349 l42 -46 -65 -77 c-75 -88 -231 -313 -269 -387 -115 -225
-196 -492 -217 -715 -6 -63 -12 -115 -13 -116 -9 -7 -126 -13 -129 -7 -7 13
20 262 36 333 8 36 18 81 21 100 38 204 211 561 372 767 76 98 162 193 173
193 4 0 26 -20 49 -45z m3070 -15 c116 -133 162 -195 241 -325 87 -145 181
-348 204 -443 8 -31 25 -100 39 -153 27 -99 41 -194 53 -338 l7 -83 -64 7
c-35 4 -65 9 -67 10 -2 2 -8 50 -13 107 -11 127 -22 182 -65 328 -86 300 -226
556 -426 780 -32 36 -58 68 -58 73 0 14 73 97 86 97 6 0 34 -27 63 -60z
m-2753 -213 l89 -84 -74 -79 c-203 -219 -351 -531 -386 -813 -8 -68 -16 -125
-18 -127 -1 -2 -59 -4 -127 -4 l-125 -2 2 74 c8 293 167 684 394 970 62 77
133 147 150 148 4 0 46 -38 95 -83z m2513 -3 c154 -165 296 -410 374 -645 34
-102 75 -316 80 -413 l2 -49 -125 2 c-69 1 -128 5 -131 9 -3 4 -11 50 -17 104
-20 163 -66 322 -136 470 -43 90 -178 287 -251 366 l-68 73 84 85 c46 46 89
84 95 84 7 0 48 -39 93 -86z m-3553 -1454 c12 -116 55 -335 79 -400 8 -19 28
-80 45 -135 56 -175 222 -471 354 -630 94 -113 305 -314 391 -373 239 -164
327 -212 527 -286 300 -112 531 -156 808 -156 243 1 423 27 650 97 216 66 454
176 562 260 20 15 78 57 130 92 219 151 499 483 633 749 115 231 200 524 226
780 l12 122 83 0 c69 0 84 -3 84 -15 0 -84 -58 -446 -87 -540 -66 -218 -115
-333 -226 -529 -118 -210 -309 -444 -479 -588 -149 -127 -249 -202 -309 -233
-26 -14 -68 -38 -93 -55 -52 -35 -261 -136 -350 -169 -219 -81 -571 -141 -832
-141 -261 0 -587 55 -834 141 -174 61 -463 216 -615 330 -181 135 -408 376
-543 576 -142 211 -281 534 -341 798 -21 91 -51 318 -51 388 l0 38 82 -3 83
-3 11 -115z m202 94 c2 -1 10 -51 17 -111 22 -188 66 -340 167 -584 31 -72
138 -262 180 -316 18 -24 66 -86 107 -139 l74 -95 -39 -42 c-21 -23 -40 -43
-41 -45 -12 -24 -209 216 -289 353 -129 219 -220 443 -259 635 -26 130 -54
347 -47 355 5 4 124 -5 130 -11z m4132 -2 c0 -44 -32 -265 -49 -337 -53 -229
-81 -306 -172 -486 -91 -179 -244 -397 -344 -489 l-27 -25 -44 50 c-43 48 -43
49 -25 70 67 75 174 211 215 274 150 230 283 608 304 865 l7 81 45 6 c82 11
90 10 90 -9z m-3692 -23 c12 -5 22 -13 22 -18 0 -106 73 -358 147 -504 51
-102 160 -272 198 -307 14 -13 25 -29 25 -37 0 -18 -148 -183 -165 -183 -43 0
-228 266 -312 450 -65 141 -134 368 -148 485 -3 28 -8 69 -11 93 l-5 43 113
-7 c62 -4 123 -11 136 -15z m3362 -8 c0 -42 -39 -266 -60 -341 -55 -202 -224
-517 -349 -652 l-54 -59 -39 38 c-22 21 -62 64 -89 95 l-50 56 67 89 c98 129
174 261 222 383 29 73 70 234 82 322 6 40 13 74 16 77 3 3 47 9 97 12 173 11
157 13 157 -20z m-2656 -1131 l51 -35 3 -142 c1 -79 0 -143 -3 -143 -24 0
-253 138 -331 199 l-27 21 64 58 c35 32 80 72 99 89 l35 31 29 -21 c16 -12 52
-38 80 -57z m1936 -29 l75 -71 -26 -22 c-15 -13 -39 -30 -55 -39 -16 -10 -81
-49 -144 -88 -63 -39 -118 -71 -122 -71 -5 0 -8 64 -8 143 l0 143 64 43 c36
23 70 49 77 57 14 17 31 5 139 -95z"/>
<path d="M2425 3775 c-5 -2 -40 -6 -77 -10 -63 -6 -72 -10 -140 -64 -75 -59
-107 -91 -92 -91 5 0 44 12 87 25 83 27 183 36 230 21 l28 -8 -3 62 c-3 60
-10 73 -33 65z"/>
<path d="M2562 3598 l3 -183 228 -3 c178 -2 227 0 227 10 0 36 -123 193 -215
275 -61 54 -72 59 -138 70 -120 20 -108 39 -105 -169z"/>
<path d="M1971 3650 c-100 -47 -321 -207 -321 -231 0 -21 56 -8 85 20 18 17
46 31 69 34 40 6 41 4 21 -45 -5 -14 -2 -18 14 -18 15 0 28 14 46 50 14 27 54
88 90 135 36 47 64 85 63 85 -2 0 -32 -14 -67 -30z"/>
<path d="M2986 3643 c55 -71 134 -194 134 -208 0 -16 17 -23 50 -19 14 1 29 3
33 3 5 1 1 11 -7 23 -22 32 -21 36 22 48 40 11 35 14 94 -59 18 -21 58 -29 58
-12 0 22 -206 164 -321 221 -43 22 -81 40 -85 40 -3 0 7 -17 22 -37z"/>
<path d="M2018 3503 c-23 -28 -48 -71 -48 -83 0 -7 36 -10 108 -8 l107 3 3 40
c4 52 -14 65 -93 65 -47 0 -66 -4 -77 -17z"/>
<path d="M2432 3433 c-6 -2 -10 -9 -7 -13 7 -11 35 -2 35 11 0 10 -8 10 -28 2z"/>
<path d="M1708 3303 c-21 -25 -68 -108 -68 -120 0 -7 15 -9 40 -6 27 4 47 0
64 -11 33 -21 36 -20 36 8 0 13 9 52 19 85 l19 61 -47 0 c-33 0 -53 -5 -63
-17z"/>
<path d="M1901 3289 c-6 -18 -11 -33 -11 -35 0 -2 33 -4 73 -6 70 -3 72 -4 75
-30 2 -16 18 -40 37 -57 34 -30 34 -30 14 -45 -13 -9 -34 -12 -55 -9 -18 3
-44 3 -58 -1 l-25 -6 26 -45 25 -45 -72 0 -72 0 3 -35 c3 -30 -2 -39 -39 -70
-38 -33 -42 -41 -42 -81 l0 -44 210 0 210 0 0 -45 0 -45 -324 0 -324 0 -31 55
c-17 30 -35 55 -40 55 -6 0 -11 -17 -13 -37 -4 -52 -34 -52 -67 0 -24 36 -27
38 -70 35 l-46 -3 -11 -65 c-24 -132 -12 -452 18 -487 6 -7 32 -13 59 -13 46
0 49 2 49 25 0 22 4 25 39 25 33 0 40 -4 45 -25 l6 -25 170 0 c94 0 170 3 170
6 0 10 -52 78 -94 122 l-40 42 46 93 c26 50 49 100 52 110 7 23 70 22 156 -2
56 -16 69 -24 96 -62 25 -36 41 -47 85 -60 l54 -17 -60 -28 c-158 -72 -305
-203 -305 -271 l0 -23 -154 0 -154 0 19 -74 c11 -41 28 -96 39 -122 26 -61
118 -202 186 -285 l54 -66 0 -122 c0 -151 14 -284 45 -421 34 -154 72 -247 92
-227 3 3 -6 75 -21 159 -23 136 -47 471 -33 458 2 -3 23 -59 45 -125 37 -112
71 -189 136 -310 15 -27 33 -55 39 -62 14 -13 57 0 57 18 0 6 -20 44 -45 83
-25 40 -45 76 -45 80 0 5 -20 58 -44 119 -104 263 -148 535 -131 820 l7 128
77 54 c88 64 186 113 289 146 l72 23 0 60 c0 48 -5 65 -25 92 -23 30 -25 41
-25 137 0 57 5 119 11 138 28 83 107 124 224 117 91 -6 132 -28 163 -88 19
-38 22 -60 22 -153 0 -105 -1 -110 -31 -151 -27 -38 -30 -49 -27 -101 l3 -58
65 -18 c71 -19 177 -71 288 -139 62 -39 73 -51 86 -90 44 -132 89 -382 102
-578 4 -51 11 -92 17 -92 16 0 133 98 191 160 72 78 165 210 210 297 36 70 76
167 76 183 0 6 -44 10 -103 10 -112 0 -117 -2 -160 -72 -19 -30 -75 -48 -87
-27 -5 7 -11 32 -15 56 l-6 43 -65 0 c-69 0 -67 -2 -88 68 -7 21 -6 22 67 22
l74 0 23 70 c12 38 20 80 17 92 -12 54 -48 134 -67 150 -19 16 -24 16 -76 -2
-40 -14 -61 -17 -75 -10 -18 10 -100 106 -118 138 -8 13 -30 18 -108 22 l-98
5 0 40 0 40 108 3 108 3 25 52 c23 46 33 55 88 80 33 15 67 27 74 27 7 0 54
-18 106 -40 104 -44 120 -47 173 -25 60 25 67 55 12 55 -31 0 -37 16 -19 50 6
12 17 16 30 13 24 -6 26 7 5 47 -14 27 -17 28 -49 18 -26 -8 -35 -18 -40 -40
-3 -15 -12 -31 -20 -34 -7 -3 -42 13 -76 35 -35 23 -69 41 -77 41 -18 0 -63
-45 -63 -63 0 -18 -21 -27 -65 -27 -36 0 -47 11 -59 62 -6 25 -2 29 30 43 43
18 38 27 -27 60 -27 14 -49 29 -49 33 0 4 8 17 18 30 l17 22 37 -25 c20 -14
46 -25 57 -25 38 0 72 23 78 52 5 26 9 28 54 28 27 0 49 3 49 6 0 3 -9 19 -21
35 -19 27 -25 29 -86 29 l-65 0 7 -40 7 -40 -41 0 c-39 0 -42 2 -57 40 l-16
40 -254 0 -254 0 0 -135 0 -135 -50 0 -50 0 0 135 0 135 -51 0 c-38 0 -58 -6
-82 -24 -30 -22 -130 -76 -142 -76 -3 0 -5 23 -5 50 l0 50 -134 0 -134 0 -11
-31z m1533 -1508 c10 -15 -124 -181 -145 -181 -4 0 -11 21 -16 48 -10 47 -10
47 36 95 38 40 51 47 83 47 20 0 39 -4 42 -9z"/>
<path d="M1443 3157 c-43 -64 -123 -228 -123 -253 0 -9 12 -14 34 -14 34 0 35
1 46 58 11 56 42 149 75 226 9 21 15 40 13 42 -2 2 -23 -25 -45 -59z"/>
<path d="M3606 3028 c42 -126 48 -138 70 -138 15 0 24 6 24 16 0 23 -85 194
-114 229 -23 28 -22 19 20 -107z"/>
<path d="M1614 2845 c-15 -19 -25 -37 -23 -39 10 -9 69 -36 78 -36 9 0 28 87
20 94 -2 2 -14 7 -26 10 -17 5 -27 -1 -49 -29z"/>
<path d="M3550 2796 c0 -10 35 -89 71 -158 l40 -77 -43 -83 c-33 -64 -44 -98
-49 -148 -3 -36 -7 -72 -10 -80 -3 -12 11 -16 79 -18 99 -3 95 -10 112 166 9
91 9 146 0 224 -17 159 -21 172 -52 176 -26 3 -26 2 -15 -27 12 -32 2 -81 -19
-88 -5 -2 -30 24 -54 57 -37 51 -60 72 -60 56z m134 -417 c10 -53 7 -69 -19
-94 -13 -14 -28 -25 -32 -25 -4 0 -9 28 -9 62 -1 47 3 66 15 75 26 20 38 15
45 -18z"/>
<path d="M1324 2114 c12 -45 99 -215 144 -280 23 -32 55 -79 72 -104 32 -47
157 -170 173 -170 5 0 -6 17 -25 38 -90 100 -178 260 -238 432 l-36 105 -48 3
c-48 3 -48 3 -42 -24z"/>
<path d="M2933 1935 c-47 -113 -47 -121 -53 -738 -3 -323 -2 -587 1 -587 3 0
20 23 38 51 l31 51 -2 626 c-3 508 -5 621 -15 597z"/>
</g>
</svg>
