<?xml version="1.0" standalone="no"?>
<!DOCTYPE svg PUBLIC "-//W3C//DTD SVG 20010904//EN"
 "http://www.w3.org/TR/2001/REC-SVG-20010904/DTD/svg10.dtd">
<svg version="1.0" xmlns="http://www.w3.org/2000/svg"
 width="173.000000pt" height="173.000000pt" viewBox="0 0 173.000000 173.000000"
 preserveAspectRatio="xMidYMid meet">
<metadata>
Created by potrace 1.14, written by Peter Selinger 2001-2017
</metadata>
<g transform="translate(0.000000,173.000000) scale(0.100000,-0.100000)"
fill="#000000" stroke="none">
<path d="M755 1656 c-100 -23 -174 -64 -245 -136 -104 -104 -150 -214 -150
-355 1 -130 43 -239 129 -336 28 -31 47 -59 44 -63 -3 -3 11 -13 31 -21 l38
-16 -5 -72 c-3 -49 0 -87 10 -117 20 -61 29 -68 25 -19 -3 29 -7 37 -13 28 -6
-9 -8 28 -5 93 4 115 4 117 -52 119 -15 1 -20 3 -12 5 11 3 -2 22 -42 65 -85
89 -138 214 -138 326 0 34 1 34 32 27 18 -3 43 -13 55 -21 21 -14 23 -14 23 6
0 14 -6 21 -20 21 -22 0 -26 10 -9 27 7 7 7 13 1 17 -5 3 -15 -1 -22 -9 -20
-24 -50 -19 -50 8 0 29 29 57 73 72 40 13 67 8 68 -13 0 -9 5 -2 10 16 5 17
13 32 18 32 4 0 26 16 47 36 21 19 51 47 66 60 15 14 39 26 53 27 14 1 25 5
25 10 0 4 0 12 0 18 0 6 -7 8 -16 5 -8 -3 -12 -2 -9 4 3 5 22 12 43 16 62 11
72 20 59 49 -8 17 -17 23 -29 19 -10 -3 -18 -1 -18 5 0 20 -39 11 -51 -11 -12
-22 -55 -68 -65 -68 -2 0 -4 7 -4 16 0 10 -6 14 -15 11 -8 -4 -17 -2 -20 3
-10 17 125 110 161 110 17 0 19 -17 2 -22 -8 -3 -6 -7 4 -11 10 -3 28 4 45 19
15 13 33 24 40 24 22 0 43 -12 43 -25 0 -7 7 -18 15 -25 11 -9 19 -8 37 4 12
9 30 16 39 16 23 0 103 -37 92 -42 -4 -3 -3 -4 3 -2 22 5 133 -87 155 -129 9
-15 6 -17 -17 -13 -21 4 -24 2 -16 -6 20 -20 14 -31 -13 -24 -20 5 -25 3 -25
-13 0 -35 54 -51 70 -21 11 20 38 17 52 -4 18 -26 7 -33 -46 -29 -53 3 -54 3
-90 -44 -29 -37 -36 -55 -36 -90 0 -47 34 -112 60 -114 29 -2 65 3 83 13 12 6
23 6 32 -2 8 -7 19 -9 25 -5 15 9 12 -35 -7 -91 -26 -78 -78 -158 -135 -209
l-53 -48 -3 83 c-3 99 0 110 32 110 13 0 43 11 66 24 38 21 39 24 19 29 -12 3
-31 2 -41 -4 -12 -6 -18 -6 -18 1 0 5 5 10 10 10 6 0 10 5 10 11 0 11 -75 -28
-92 -48 -6 -7 -12 -37 -13 -66 -3 -72 -4 -74 -15 -57 -7 11 -10 3 -10 -29 0
-34 -3 -42 -15 -37 -11 4 -15 -1 -15 -17 0 -13 -6 -29 -12 -36 -11 -11 -10
-12 2 -6 8 5 1 -13 -15 -41 -16 -27 -21 -43 -13 -36 14 11 17 10 20 -5 9 -40
-38 -159 -50 -125 -2 8 -8 7 -20 -5 -15 -15 -17 -15 -22 6 -5 21 -6 21 -53
-11 -28 -20 -55 -49 -67 -74 -26 -53 -25 -61 3 -28 23 27 51 26 41 -1 -4 -10
0 -12 15 -8 13 3 21 13 21 27 0 40 68 86 99 67 12 -8 12 -13 0 -33 -8 -12 -21
-42 -27 -65 -13 -42 -25 -53 -37 -33 -4 6 -12 6 -23 1 -9 -5 -26 -13 -37 -16
-13 -5 -15 -9 -7 -12 17 -6 15 -23 -2 -23 -8 0 -17 -4 -20 -9 -4 -5 3 -7 14
-4 15 4 20 0 20 -14 0 -10 -6 -25 -12 -32 -11 -11 -9 -11 10 -2 18 9 22 9 22
-2 0 -31 -67 -67 -77 -42 -5 13 -7 13 -19 -2 -11 -15 -11 -20 3 -30 14 -11 14
-13 -1 -28 -21 -21 -21 -36 1 -28 13 5 15 2 11 -15 -4 -15 -2 -19 8 -15 9 3
14 21 14 49 0 24 4 44 9 44 10 0 25 -30 23 -46 -1 -5 7 -20 18 -32 16 -17 28
-21 48 -16 35 9 35 9 23 32 -19 36 -12 68 35 158 25 48 46 101 46 118 1 16 10
38 20 48 14 14 19 32 18 71 -2 74 8 175 20 197 5 10 31 34 57 53 155 113 227
297 194 493 -46 273 -327 461 -596 400z m-155 -196 c16 -10 10 -20 -13 -24 -8
-1 -22 -8 -31 -15 -16 -13 -23 -2 -8 13 4 4 8 12 8 17 1 5 2 11 3 14 2 8 25 5
41 -5z"/>
<path d="M805 1510 c-4 -6 -5 -10 -3 -11 25 -6 38 -6 38 1 0 12 -29 20 -35 10z"/>
<path d="M1195 1470 c3 -5 11 -10 16 -10 6 0 7 5 4 10 -3 6 -11 10 -16 10 -6
0 -7 -4 -4 -10z"/>
<path d="M962 1381 c-12 -11 -20 -25 -17 -33 3 -7 -6 -29 -20 -48 -29 -39 -31
-57 -9 -81 12 -13 13 -22 5 -37 -12 -22 -5 -52 11 -52 6 0 30 -10 55 -22 60
-30 73 -16 46 49 -20 51 -22 115 -3 138 9 11 17 39 22 74 4 36 -51 43 -90 12z"/>
<path d="M524 1245 c22 -17 40 -20 32 -6 -3 5 -16 11 -28 14 -22 6 -22 5 -4
-8z"/>
<path d="M547 1132 c-10 -10 -17 -28 -17 -40 0 -11 -4 -24 -10 -27 -31 -19 9
-98 86 -167 22 -20 36 -46 49 -95 10 -37 20 -74 23 -82 4 -11 1 -11 -18 -1
-22 12 -23 11 -16 -20 3 -18 6 -41 6 -51 0 -18 1 -18 20 1 24 24 82 27 104 4
22 -22 20 -27 -10 -20 -20 5 -31 0 -54 -24 -16 -18 -34 -29 -40 -25 -5 3 -10
1 -10 -5 0 -8 17 -10 47 -8 39 2 48 0 51 -14 2 -10 -1 -18 -7 -18 -6 0 -11 7
-11 15 0 14 -3 14 -30 0 -35 -18 -39 -25 -10 -18 11 3 20 1 20 -5 0 -6 10 -8
21 -5 16 4 20 2 17 -8 -3 -9 -16 -13 -34 -11 l-29 4 24 -21 c13 -12 28 -21 33
-21 4 0 8 -19 9 -42 l1 -43 10 39 c8 28 30 58 76 103 35 34 60 63 55 63 -6 0
-16 -7 -23 -15 -19 -23 -60 -19 -60 5 0 11 -6 35 -13 53 l-14 32 91 1 c49 1
91 5 93 10 2 6 -38 8 -98 6 -66 -3 -104 -1 -112 7 -8 8 -8 11 2 11 8 0 11 6 7
15 -3 9 0 15 9 15 16 0 48 54 38 64 -3 3 10 12 29 20 37 16 48 32 48 70 0 13
9 35 20 49 11 14 20 30 20 35 0 9 -59 42 -77 42 -33 0 -83 23 -83 38 0 22 -19
42 -38 42 -8 0 -25 9 -39 20 -37 29 -103 45 -114 28 -7 -10 -9 -10 -9 0 0 17
-14 15 -33 -6z m137 -441 c3 -5 0 -11 -8 -14 -8 -3 -17 1 -20 9 -6 15 19 20
28 5z"/>
<path d="M1012 780 c0 -19 2 -27 5 -17 2 9 2 25 0 35 -3 9 -5 1 -5 -18z"/>
<path d="M981 644 c0 -11 3 -14 6 -6 3 7 2 16 -1 19 -3 4 -6 -2 -5 -13z"/>
<path d="M937 611 c-4 -17 -3 -21 5 -13 5 5 8 16 6 23 -3 8 -7 3 -11 -10z"/>
<path d="M655 495 c2 -16 8 -41 11 -55 7 -22 6 -24 -9 -11 -15 12 -17 11 -17
-2 0 -9 5 -19 11 -23 7 -4 9 -23 6 -48 -3 -22 -3 -34 0 -26 3 8 13 21 21 28
18 14 18 78 0 99 -5 6 -14 24 -19 40 l-9 28 5 -30z"/>
<path d="M836 323 c-6 -14 -5 -15 5 -6 7 7 10 15 7 18 -3 3 -9 -2 -12 -12z"/>
<path d="M665 282 c1 -12 -1 -24 -5 -27 -8 -5 12 -90 31 -138 9 -22 17 -27 33
-23 12 3 24 6 28 6 4 0 5 7 2 15 -6 14 -8 13 -19 -2 -13 -17 -14 -17 -20 0 -4
9 -5 26 -2 37 3 11 1 18 -3 15 -12 -7 -21 25 -15 53 2 12 -1 22 -7 22 -6 0 -8
9 -5 20 3 11 1 18 -3 15 -5 -3 -11 3 -13 12 -2 10 -3 8 -2 -5z"/>
<path d="M731 256 c-1 -23 2 -27 11 -18 7 7 20 12 30 12 10 0 18 4 18 10 0 6
-9 6 -24 0 -20 -7 -26 -6 -29 8 -3 9 -5 4 -6 -12z"/>
<path d="M810 240 c-9 -6 -10 -10 -3 -10 6 0 15 5 18 10 8 12 4 12 -15 0z"/>
<path d="M730 185 c0 -5 4 -16 9 -23 6 -10 11 -9 22 4 11 14 11 16 0 10 -8 -5
-17 -3 -22 5 -5 8 -9 10 -9 4z"/>
</g>
</svg>
