<?xml version="1.0" standalone="no"?>
<!DOCTYPE svg PUBLIC "-//W3C//DTD SVG 20010904//EN"
 "http://www.w3.org/TR/2001/REC-SVG-20010904/DTD/svg10.dtd">
<svg version="1.0" xmlns="http://www.w3.org/2000/svg"
 width="500.000000pt" height="500.000000pt" viewBox="0 0 500.000000 500.000000"
 preserveAspectRatio="xMidYMid meet">
<metadata>
Created by potrace 1.14, written by Peter Selinger 2001-2017
</metadata>
<g transform="translate(0.000000,500.000000) scale(0.100000,-0.100000)"
fill="#000000" stroke="none">
<path d="M2287 4950 c-498 -53 -926 -222 -1306 -518 -412 -321 -733 -814 -861
-1321 -55 -219 -73 -370 -73 -611 0 -355 61 -657 193 -967 324 -755 1003
-1300 1805 -1448 522 -97 1055 -27 1520 200 260 127 435 249 643 450 395 380
642 857 721 1393 99 666 -67 1320 -472 1861 -93 124 -346 377 -468 468 -429
321 -910 486 -1444 498 -93 2 -210 0 -258 -5z m418 -71 c448 -29 895 -214
1295 -534 173 -139 337 -320 473 -522 74 -110 228 -424 271 -555 57 -168 101
-400 113 -587 l6 -104 -76 6 c-42 3 -81 8 -87 12 -5 3 -10 28 -10 55 0 116
-51 388 -100 530 -101 293 -155 398 -334 651 -103 145 -386 414 -522 495 -17
11 -49 31 -71 46 -213 142 -466 242 -769 305 -122 25 -145 27 -409 27 -312 1
-372 -7 -640 -81 -165 -46 -269 -87 -398 -159 -258 -144 -371 -230 -557 -420
-240 -246 -408 -515 -503 -809 -75 -228 -94 -319 -122 -587 l-6 -57 -42 -6
c-23 -4 -60 -5 -82 -3 l-40 3 3 70 c10 215 50 419 122 630 52 152 193 431 279
555 81 117 238 304 322 387 166 160 396 317 634 430 407 194 751 255 1250 222z
m-340 -306 c-3 -32 -13 -63 -21 -69 -7 -6 -48 -14 -89 -17 -184 -16 -439 -89
-655 -188 -62 -29 -242 -142 -315 -198 -115 -89 -106 -87 -162 -37 -43 39 -46
45 -33 61 22 26 168 139 225 172 305 181 538 271 800 307 61 9 121 17 135 20
14 2 47 4 74 5 l48 1 -7 -57z m141 -94 c9 -68 19 -223 23 -344 l6 -220 40 -3
c63 -4 244 -41 315 -64 219 -71 409 -186 566 -342 134 -135 193 -216 269 -371
92 -190 136 -341 150 -516 l7 -86 166 -6 c91 -4 222 -7 291 -7 124 0 418 -24
429 -35 12 -11 -10 -17 -124 -31 -71 -9 -250 -18 -441 -21 l-322 -6 -6 -46
c-23 -184 -64 -327 -140 -488 -64 -134 -130 -235 -207 -317 -32 -34 -58 -64
-58 -67 0 -3 62 -71 138 -150 283 -295 357 -381 348 -405 -7 -18 -1 -22 -107
61 -35 28 -107 91 -160 140 -52 50 -141 132 -197 183 l-101 93 -56 -46 c-31
-25 -78 -56 -105 -70 l-50 -25 0 -325 c0 -268 2 -325 14 -325 41 0 314 137
421 211 39 27 92 65 119 84 l49 35 46 -42 c25 -23 47 -45 49 -49 11 -26 -400
-288 -553 -352 -198 -83 -574 -165 -757 -167 l-48 0 0 421 0 422 38 56 c34 49
142 238 142 247 0 2 14 34 31 71 38 83 92 249 118 363 20 89 34 250 22 250
-23 0 -52 -53 -66 -120 -8 -41 -27 -112 -41 -158 -24 -75 -29 -82 -48 -76 -72
22 -167 97 -253 198 -73 85 -121 171 -135 238 -7 35 -17 58 -25 58 -21 0 -133
-41 -188 -68 -55 -27 -165 -99 -178 -116 -12 -17 0 -251 17 -336 31 -151 102
-330 171 -430 41 -61 165 -193 165 -177 0 4 -18 37 -40 74 -61 99 -144 294
-182 425 -18 60 -22 101 -22 235 l-1 162 40 40 c21 23 42 41 46 41 4 0 17 -30
30 -67 68 -206 203 -380 356 -457 29 -14 57 -26 64 -26 6 0 -27 40 -73 89 -46
48 -101 108 -121 133 -60 73 -166 306 -155 339 2 7 28 -29 57 -80 88 -151 220
-274 383 -357 18 -9 34 -18 36 -19 6 -5 -104 -238 -149 -313 -12 -20 -46 -67
-76 -103 l-53 -66 0 -447 0 -446 -33 0 c-190 0 -592 94 -795 186 -147 67 -403
223 -485 295 l-38 34 48 48 49 47 59 -46 c121 -93 420 -259 508 -280 l27 -6 0
325 0 325 -52 30 c-29 16 -74 48 -100 71 -25 22 -49 41 -53 41 -3 0 -102 -89
-219 -197 -286 -266 -351 -317 -351 -276 0 13 275 334 304 356 9 7 56 54 105
104 l89 92 -56 61 c-178 192 -324 519 -352 793 l-7 67 -242 0 c-301 0 -646 27
-646 50 0 19 457 47 801 49 l86 1 6 89 c11 155 51 294 147 516 47 110 188 294
316 414 210 196 513 331 809 359 l70 7 6 240 c6 212 15 326 35 445 9 55 21 18
40 -121z m374 121 c146 -25 297 -71 450 -138 106 -46 342 -183 431 -249 127
-95 128 -97 98 -129 -13 -14 -37 -35 -52 -46 l-28 -20 -92 69 c-91 69 -280
186 -347 216 -223 99 -467 168 -683 192 -64 7 -63 6 -72 84 l-6 54 93 -7 c51
-4 145 -16 208 -26z m-1886 -657 l44 -47 -61 -74 c-97 -116 -114 -139 -195
-262 -42 -63 -88 -144 -103 -180 -15 -36 -37 -87 -49 -115 -68 -153 -125 -370
-141 -538 l-12 -125 -60 -7 c-33 -3 -64 -2 -69 3 -5 5 -4 49 2 107 33 291 90
503 191 708 50 101 174 310 208 351 15 17 39 48 54 68 30 41 136 158 143 158
3 0 24 -21 48 -47z m3091 -30 c175 -203 301 -405 385 -618 69 -173 140 -506
140 -657 l0 -51 -62 7 c-35 4 -63 8 -64 9 -1 1 -9 65 -17 143 -24 213 -81 397
-207 669 -43 93 -171 280 -264 385 -41 47 -75 89 -76 95 0 14 83 96 95 92 5
-2 37 -35 70 -74z m-3807 -1686 c53 -375 162 -673 349 -954 43 -65 98 -143
122 -173 86 -107 286 -301 368 -358 46 -31 113 -78 150 -103 247 -170 660
-315 992 -348 369 -38 728 16 1095 166 136 55 224 102 329 175 45 32 114 79
152 105 85 57 287 251 364 349 193 245 285 414 384 704 53 155 96 371 109 550
l3 35 83 3 82 3 0 -40 c0 -113 -63 -457 -109 -599 -129 -393 -387 -784 -681
-1034 -135 -115 -258 -207 -317 -236 -23 -12 -62 -36 -87 -53 -61 -40 -294
-151 -376 -177 -411 -134 -847 -166 -1245 -91 -333 63 -537 138 -815 302 -97
57 -267 174 -278 192 -4 5 -38 36 -77 69 -87 73 -130 119 -251 268 -129 160
-191 256 -284 443 -125 253 -194 481 -224 740 -9 77 -19 157 -22 178 l-6 37
84 0 84 0 22 -153z m195 124 c4 -4 12 -47 18 -97 21 -177 64 -333 149 -544 71
-176 152 -310 300 -497 l81 -103 -45 -47 -45 -48 -46 50 c-53 56 -215 267
-215 279 0 4 -8 20 -19 34 -85 121 -214 428 -249 597 -29 135 -64 374 -56 386
6 11 113 2 127 -10z m4137 -20 c0 -71 -40 -301 -76 -432 -59 -219 -130 -374
-272 -594 -63 -97 -223 -285 -243 -285 -4 0 -24 20 -44 44 l-36 45 23 34 c13
19 49 65 81 103 89 104 152 202 221 342 72 146 136 318 166 447 18 76 49 272
50 312 0 7 19 14 43 16 94 8 87 11 87 -32z"/>
<path d="M2395 3765 c-5 -2 -40 -6 -77 -10 -63 -6 -72 -10 -140 -64 -73 -57
-107 -91 -93 -91 4 0 45 11 90 25 88 27 181 36 228 21 l28 -8 -3 62 c-3 60
-10 73 -33 65z"/>
<path d="M2532 3588 l3 -183 219 -3 c130 -1 223 1 229 7 21 21 -102 183 -208
278 -62 54 -72 59 -138 70 -40 6 -80 12 -90 12 -16 1 -17 -12 -15 -181z"/>
<path d="M2950 3643 c47 -62 140 -206 140 -219 0 -10 13 -14 46 -14 45 0 45 0
30 22 -23 32 -21 36 24 48 37 10 43 9 60 -12 11 -13 22 -31 25 -40 7 -19 51
-35 63 -23 10 10 -45 54 -173 139 -91 60 -212 126 -232 126 -3 0 5 -12 17 -27z"/>
<path d="M1915 3627 c-107 -57 -295 -197 -295 -218 0 -5 13 -9 29 -9 20 0 37
9 53 28 29 35 114 53 105 24 -2 -9 -6 -23 -8 -31 -2 -8 4 -16 13 -19 12 -2 24
10 39 40 28 55 92 150 113 168 10 7 22 22 27 32 14 27 -6 23 -76 -15z"/>
<path d="M1988 3493 c-8 -10 -22 -31 -32 -47 -25 -40 -10 -47 104 -44 l95 3 3
40 c4 52 -14 65 -93 65 -47 0 -66 -4 -77 -17z"/>
<path d="M2400 3420 c-12 -8 -11 -10 8 -10 12 0 22 5 22 10 0 13 -11 13 -30 0z"/>
<path d="M1647 3247 c-20 -35 -37 -68 -37 -73 0 -5 18 -8 40 -6 26 3 49 -2 66
-13 14 -9 27 -15 28 -13 1 2 8 30 15 63 7 33 15 70 18 83 5 20 2 22 -44 22
l-49 0 -37 -63z"/>
<path d="M1871 3279 c-6 -18 -11 -34 -11 -35 0 -2 32 -4 70 -4 70 0 71 0 77
-30 3 -17 21 -43 39 -60 l34 -29 -24 -17 c-15 -9 -33 -13 -46 -9 -12 4 -37 4
-55 1 l-34 -7 19 -32 c32 -52 27 -57 -45 -57 l-65 0 0 -37 c0 -30 -7 -42 -40
-70 -35 -31 -40 -40 -40 -79 l0 -44 210 0 210 0 0 -45 0 -45 -325 0 -325 0
-20 38 c-21 41 -44 72 -52 72 -3 0 -8 -18 -12 -40 -3 -22 -10 -40 -14 -40 -17
0 -54 33 -63 57 -8 21 -14 24 -56 21 -42 -3 -48 -6 -56 -33 -5 -16 -11 -100
-14 -186 -6 -166 9 -320 32 -339 8 -6 33 -10 57 -8 36 2 44 7 46 26 3 18 10
22 42 22 32 0 39 -4 44 -25 l6 -25 164 0 c89 0 166 3 169 6 7 8 -38 69 -92
127 l-35 37 46 93 c26 50 49 100 52 110 7 23 60 23 149 0 62 -16 72 -22 102
-64 26 -36 42 -48 79 -59 25 -7 46 -16 46 -20 0 -3 -27 -19 -61 -35 -146 -67
-289 -197 -289 -262 l0 -23 -154 0 -153 0 17 -72 c30 -127 102 -257 226 -409
l54 -66 0 -121 c0 -66 5 -166 11 -223 17 -174 88 -429 118 -429 15 0 14 5 -13
165 -24 135 -46 457 -31 443 4 -3 24 -57 45 -120 38 -111 88 -224 136 -303 13
-22 26 -46 30 -53 9 -17 53 -15 60 3 3 8 -14 47 -39 87 -25 40 -48 84 -52 98
-4 14 -13 39 -20 55 -91 207 -144 444 -151 680 -3 88 -2 196 3 240 l8 80 85
59 c95 65 157 96 274 135 l80 27 -3 60 c-2 44 -9 67 -27 91 -22 29 -24 41 -24
136 0 112 10 158 44 196 66 74 245 83 324 16 39 -33 52 -84 52 -206 -1 -100
-2 -106 -30 -143 -25 -33 -30 -49 -30 -97 l0 -58 68 -20 c126 -38 353 -167
371 -211 38 -95 83 -336 104 -555 9 -91 16 -130 25 -130 23 0 173 129 221 190
87 112 158 220 191 290 33 71 60 141 60 156 0 5 -47 9 -104 9 -115 0 -99 8
-164 -77 -9 -13 -31 -26 -49 -29 -31 -6 -31 -6 -43 49 l-11 56 -66 3 -65 3
-14 40 c-7 22 -14 41 -14 43 0 1 33 2 74 2 l73 0 22 65 c26 82 26 88 -4 164
-38 98 -49 105 -129 77 -21 -7 -48 -11 -58 -8 -18 4 -105 100 -127 139 -8 15
-27 19 -108 23 l-98 5 0 40 0 40 108 3 107 3 25 49 c21 42 35 55 88 81 71 36
72 36 211 -22 74 -31 81 -32 125 -20 72 19 92 61 29 61 -27 0 -30 3 -24 23 3
12 6 25 6 30 0 4 11 7 25 7 28 0 30 6 15 44 -17 46 -83 29 -93 -24 -8 -40 -24
-38 -98 10 -34 22 -68 40 -76 40 -17 0 -63 -48 -63 -65 0 -16 -23 -25 -66 -25
-27 0 -36 5 -43 23 -23 61 -23 62 14 80 20 10 33 22 30 27 -4 6 -29 22 -56 35
-27 14 -49 29 -49 33 0 4 8 17 18 30 l17 22 37 -25 c58 -39 118 -27 137 26 9
26 14 29 55 29 26 0 46 3 46 6 0 3 -8 19 -17 35 -16 28 -21 29 -86 29 l-68 0
3 -37 c3 -37 2 -38 -33 -41 -33 -3 -37 0 -54 38 l-18 40 -254 0 -253 0 0 -135
0 -135 -50 0 -50 0 0 135 0 135 -47 0 c-32 0 -58 -7 -78 -21 -32 -21 -141 -79
-150 -79 -3 0 -5 23 -5 50 l0 50 -134 0 -134 0 -11 -31z m1534 -1509 c11 -18
-136 -192 -150 -178 -3 2 -8 26 -11 52 -7 46 -6 49 37 92 36 36 50 44 80 44
21 0 41 -4 44 -10z"/>
<path d="M1413 3147 c-47 -69 -123 -225 -123 -251 0 -12 9 -16 34 -16 34 0 35
1 46 58 11 57 61 206 81 244 24 44 1 23 -38 -35z"/>
<path d="M3540 3135 c0 -5 19 -64 42 -131 38 -110 45 -124 65 -124 35 0 29 27
-28 139 -45 89 -79 138 -79 116z"/>
<path d="M1584 2835 c-15 -20 -25 -37 -23 -39 16 -14 71 -36 79 -31 5 3 12 22
16 42 5 29 3 39 -11 50 -27 19 -31 17 -61 -22z"/>
<path d="M3534 2753 c8 -21 33 -75 55 -121 l42 -84 -44 -86 c-38 -74 -45 -99
-50 -164 l-5 -78 79 0 c95 0 90 -6 109 149 13 110 8 250 -13 356 -10 50 -16
61 -35 63 -21 3 -22 1 -16 -36 4 -23 1 -48 -6 -62 l-12 -22 -23 22 c-13 13
-36 40 -51 61 -34 49 -47 50 -30 2z m120 -369 c12 -32 6 -91 -11 -107 -36 -31
-43 -25 -48 39 -4 55 -2 62 18 72 30 15 34 14 41 -4z"/>
<path d="M1294 2104 c14 -54 105 -231 153 -294 26 -36 61 -85 78 -109 30 -44
135 -144 143 -136 3 2 -13 26 -34 52 -88 109 -155 233 -215 403 l-37 105 -47
3 c-47 3 -47 3 -41 -24z"/>
<path d="M2898 1904 c-48 -139 -48 -145 -46 -743 l3 -564 33 52 32 53 -2 625
c-3 603 -4 624 -20 577z"/>
</g>
</svg>
