<?xml version="1.0" encoding="UTF-8"?>
<svg version="1.1" xmlns="http://www.w3.org/2000/svg" width="341" height="173">
<path d="M0 0 C1.41353591 1.03883261 2.81004563 2.10127884 4.1875 3.1875 C4.87457031 3.70054688 5.56164062 4.21359375 6.26953125 4.7421875 C16.23979228 12.71077089 22.05973879 24.39757009 23.8984375 36.87890625 C25.21291492 51.9243437 21.48785292 64.41929027 12.1875 76.1875 C11.56101562 77.04085937 10.93453125 77.89421875 10.2890625 78.7734375 C8.063927 81.32944817 5.94598458 82.63199813 3.0625 84.375 C-0.46843004 87.08671279 -2.05905665 89.1121275 -2.87109375 93.42578125 C-3.36294939 97.26726121 -3.56806057 101.10824669 -3.71142578 104.9765625 C-4.14783904 114.52283904 -4.14783904 114.52283904 -6.8125 117.1875 C-7.34618226 119.4158985 -7.34618226 119.4158985 -7.6875 121.9375 C-8.53616264 126.58525398 -10.10590493 129.28681887 -12.8125 133.1875 C-15.94173876 139.86940586 -17.45540362 144.93134232 -15.8125 152.1875 C-18.7825 152.1875 -21.7525 152.1875 -24.8125 152.1875 C-25.4725 149.5475 -26.1325 146.9075 -26.8125 144.1875 C-27.4725 146.8275 -28.1325 149.4675 -28.8125 152.1875 C-30.1325 151.8575 -31.4525 151.5275 -32.8125 151.1875 C-32.8125 150.8575 -32.8125 150.5275 -32.8125 150.1875 C-37.7625 151.1775 -37.7625 151.1775 -42.8125 152.1875 C-46.79076743 144.77345616 -48.05402335 138.57514031 -47.75 130.3125 C-47.60075573 122.16838034 -48.7151229 116.33084789 -52.40625 109.0390625 C-54.28791178 104.64031937 -54.14816424 100.46466207 -54 95.75 C-53.97969727 94.50959961 -53.97969727 94.50959961 -53.95898438 93.24414062 C-53.92396992 91.2249736 -53.87017562 89.20614682 -53.8125 87.1875 C-55.23949219 86.76791016 -55.23949219 86.76791016 -56.6953125 86.33984375 C-60.03698643 85.10451316 -60.88202945 84.14525024 -62.62109375 81.1328125 C-64.1463087 78.64246153 -65.95427618 76.42755428 -67.75 74.125 C-73.28989998 66.54898007 -77.26625665 57.65571813 -77.8125 48.1875 C-77.86277344 47.55199219 -77.91304687 46.91648438 -77.96484375 46.26171875 C-78.61243498 32.09242263 -73.63442506 19.6392142 -64.625 8.9375 C-48.12937446 -8.41182235 -20.61060461 -13.07441415 0 0 Z M-30.8125 -3.8125 C-31.1425 -3.1525 -31.4725 -2.4925 -31.8125 -1.8125 C-32.946875 -2.10125 -34.08125 -2.39 -35.25 -2.6875 C-40.23277685 -3.34476468 -42.98663083 -1.28333292 -46.9296875 1.546875 C-49.03467873 3.23596285 -49.03467873 3.23596285 -50.8125 6.1875 C-49.4925 6.1875 -48.1725 6.1875 -46.8125 6.1875 C-46.4825 6.8475 -46.1525 7.5075 -45.8125 8.1875 C-45.8125 7.5275 -45.8125 6.8675 -45.8125 6.1875 C-45.19375 5.94 -44.575 5.6925 -43.9375 5.4375 C-41.46181313 3.98121361 -40.86124998 2.80937494 -39.8125 0.1875 C-36.5 0.375 -36.5 0.375 -32.8125 1.1875 C-30.23077177 4.28557387 -29.37744937 7.23285442 -28.8125 11.1875 C-30.75 10.8125 -30.75 10.8125 -32.8125 10.1875 C-33.3075 9.1975 -33.3075 9.1975 -33.8125 8.1875 C-34.8025 8.5175 -35.7925 8.8475 -36.8125 9.1875 C-36.3175 10.6725 -36.3175 10.6725 -35.8125 12.1875 C-38.45988916 13.6481285 -39.70698334 14.1875 -42.8125 14.1875 C-45.38616309 15.87840881 -45.38616309 15.87840881 -48 18.0625 C-48.90105469 18.78179688 -49.80210938 19.50109375 -50.73046875 20.2421875 C-51.41753906 20.88414063 -52.10460937 21.52609375 -52.8125 22.1875 C-52.8125 22.8475 -52.8125 23.5075 -52.8125 24.1875 C-53.988125 24.496875 -53.988125 24.496875 -55.1875 24.8125 C-58.12166286 25.99426612 -58.12166286 25.99426612 -59.125 29.3125 C-59.351875 30.26125 -59.57875 31.21 -59.8125 32.1875 C-60.4725 31.1975 -61.1325 30.2075 -61.8125 29.1875 C-67.46040972 29.44171632 -67.46040972 29.44171632 -72.25 32.0625 C-73.98570248 34.19507127 -73.98570248 34.19507127 -74.8125 37.1875 C-74.4825 37.8475 -74.1525 38.5075 -73.8125 39.1875 C-71.8325 38.6925 -71.8325 38.6925 -69.8125 38.1875 C-69.8125 37.5275 -69.8125 36.8675 -69.8125 36.1875 C-68.8225 36.1875 -67.8325 36.1875 -66.8125 36.1875 C-67.8025 38.6625 -67.8025 38.6625 -68.8125 41.1875 C-67.4925 41.1875 -66.1725 41.1875 -64.8125 41.1875 C-64.8125 42.5075 -64.8125 43.8275 -64.8125 45.1875 C-65.36679688 44.89875 -65.92109375 44.61 -66.4921875 44.3125 C-67.21664062 43.94125 -67.94109375 43.57 -68.6875 43.1875 C-69.40679687 42.81625 -70.12609375 42.445 -70.8671875 42.0625 C-72.76098977 41.05076254 -72.76098977 41.05076254 -74.8125 41.1875 C-75.86441715 55.76824046 -71.11626671 66.67569583 -61.7578125 77.58203125 C-58.14884756 81.84683383 -58.14884756 81.84683383 -53.0703125 83.3984375 C-51.95269531 83.29402344 -51.95269531 83.29402344 -50.8125 83.1875 C-50.8125 86.77858192 -51.26203943 90.25034567 -51.69140625 93.8125 C-51.96467365 96.33785427 -51.96467365 96.33785427 -50.8125 99.1875 C-51.08821139 101.19625442 -51.41485737 103.19928687 -51.8125 105.1875 C-51.1525 105.1875 -50.4925 105.1875 -49.8125 105.1875 C-49.4825 107.1675 -49.1525 109.1475 -48.8125 111.1875 C-47.8225 110.6925 -47.8225 110.6925 -46.8125 110.1875 C-44.15124419 114.73381201 -43.32528986 117.92563054 -43.8125 123.1875 C-44.44724075 124.53632408 -45.11098848 125.8721659 -45.8125 127.1875 C-45.98000414 129.85459069 -45.98000414 129.85459069 -45.8125 132.1875 C-45.1525 132.1875 -44.4925 132.1875 -43.8125 132.1875 C-43.4825 133.1775 -43.1525 134.1675 -42.8125 135.1875 C-41.8225 134.5275 -40.8325 133.8675 -39.8125 133.1875 C-39.1525 133.5175 -38.4925 133.8475 -37.8125 134.1875 C-35.71428785 133.78811233 -35.71428785 133.78811233 -33.8125 133.1875 C-35.77632007 134.69309539 -37.59513366 136.07881683 -39.8125 137.1875 C-39.8125 136.5275 -39.8125 135.8675 -39.8125 135.1875 C-40.8025 135.5175 -41.7925 135.8475 -42.8125 136.1875 C-42.8125 138.4975 -42.8125 140.8075 -42.8125 143.1875 C-42.1525 142.8575 -41.4925 142.5275 -40.8125 142.1875 C-40.4825 141.1975 -40.1525 140.2075 -39.8125 139.1875 C-39.4825 140.1775 -39.1525 141.1675 -38.8125 142.1875 C-37.1625 142.1875 -35.5125 142.1875 -33.8125 142.1875 C-33.1525 140.8675 -32.4925 139.5475 -31.8125 138.1875 C-32.4725 138.1875 -33.1325 138.1875 -33.8125 138.1875 C-33.8125 137.5275 -33.8125 136.8675 -33.8125 136.1875 C-32.4925 135.8575 -31.1725 135.5275 -29.8125 135.1875 C-30.1425 136.1775 -30.4725 137.1675 -30.8125 138.1875 C-30.4825 138.8475 -30.1525 139.5075 -29.8125 140.1875 C-27.86250871 139.99278889 -27.86250871 139.99278889 -25.8125 139.1875 C-24.52813266 137.2037233 -24.52813266 137.2037233 -23.8125 135.1875 C-24.8025 135.5175 -25.7925 135.8475 -26.8125 136.1875 C-26.1525 134.5375 -25.4925 132.8875 -24.8125 131.1875 C-26.1325 130.8575 -27.4525 130.5275 -28.8125 130.1875 C-28.8125 129.1975 -28.8125 128.2075 -28.8125 127.1875 C-27.3807384 126.48812798 -25.94182968 125.80337282 -24.5 125.125 C-23.69949219 124.74214844 -22.89898437 124.35929688 -22.07421875 123.96484375 C-19.8125 123.1875 -19.8125 123.1875 -16.8125 124.1875 C-16.4825 121.2175 -16.1525 118.2475 -15.8125 115.1875 C-15.1525 115.1875 -14.4925 115.1875 -13.8125 115.1875 C-13.3175 113.2075 -13.3175 113.2075 -12.8125 111.1875 C-16.95861846 111.61732317 -16.95861846 111.61732317 -20.625 113.4375 C-22.11656662 115.63559818 -22.45965325 117.57643404 -22.8125 120.1875 C-24.7925 120.6825 -24.7925 120.6825 -26.8125 121.1875 C-26.8125 120.1975 -26.8125 119.2075 -26.8125 118.1875 C-29.97365776 119.55733503 -30.8052092 120.1765638 -32.8125 123.1875 C-30.79499227 114.54103829 -27.01186682 110.98707788 -19.8125 106.1875 C-19.8125 105.5275 -19.8125 104.8675 -19.8125 104.1875 C-19.1525 104.1875 -18.4925 104.1875 -17.8125 104.1875 C-18.1425 105.8375 -18.4725 107.4875 -18.8125 109.1875 C-18.1525 109.1875 -17.4925 109.1875 -16.8125 109.1875 C-16.3175 107.2075 -16.3175 107.2075 -15.8125 105.1875 C-14.8225 106.6725 -14.8225 106.6725 -13.8125 108.1875 C-10.06724201 104.44224201 -10.12340051 100.20479091 -9.8125 95.1875 C-11.4625 96.1775 -13.1125 97.1675 -14.8125 98.1875 C-15.8025 97.1975 -15.8025 97.1975 -16.8125 96.1875 C-17.1425 97.8375 -17.4725 99.4875 -17.8125 101.1875 C-18.34875 101.249375 -18.885 101.31125 -19.4375 101.375 C-22.85310981 102.54349809 -25.1910127 104.79632425 -27.8125 107.1875 C-28.67875 107.950625 -29.545 108.71375 -30.4375 109.5 C-33.33718272 112.78121992 -35.0458742 116.2101246 -36.8125 120.1875 C-37.8025 118.5375 -38.7925 116.8875 -39.8125 115.1875 C-38.8225 114.8575 -37.8325 114.5275 -36.8125 114.1875 C-37.43125 114.105 -38.05 114.0225 -38.6875 113.9375 C-40.8125 113.1875 -40.8125 113.1875 -42.125 111.25 C-42.351875 110.569375 -42.57875 109.88875 -42.8125 109.1875 C-42.4825 108.5275 -42.1525 107.8675 -41.8125 107.1875 C-42.8025 106.8575 -43.7925 106.5275 -44.8125 106.1875 C-46 103.625 -46 103.625 -46.8125 101.1875 C-46.173125 101.084375 -45.53375 100.98125 -44.875 100.875 C-44.194375 100.648125 -43.51375 100.42125 -42.8125 100.1875 C-42.3175 98.7025 -42.3175 98.7025 -41.8125 97.1875 C-39.5025 96.8575 -37.1925 96.5275 -34.8125 96.1875 C-35.93359566 94.56256099 -35.93359566 94.56256099 -37.8125 93.1875 C-40.8125 92.6875 -40.8125 92.6875 -43.8125 93.1875 C-45.62726003 94.58335785 -45.62726003 94.58335785 -46.8125 96.1875 C-47.1425 96.1875 -47.4725 96.1875 -47.8125 96.1875 C-48.61948654 92.23326594 -49.00102876 89.74261245 -47.6875 85.875 C-46.4606177 80.70456746 -47.43200744 76.90165575 -49.8125 72.1875 C-51.48304351 70.37938231 -53.19085899 68.96488631 -55.16796875 67.50390625 C-57.35438782 65.75373231 -58.46009533 63.60759256 -59.8125 61.1875 C-60.4725 61.1875 -61.1325 61.1875 -61.8125 61.1875 C-62.00982526 56.94500693 -61.6308467 54.02623193 -59.8125 50.1875 C-59.565 49.445 -59.3175 48.7025 -59.0625 47.9375 C-57.8125 46.1875 -57.8125 46.1875 -55.25 45.1875 C-50.40483343 45.1875 -47.07060417 47.02613515 -42.8125 49.1875 C-42.05839844 49.52394531 -41.30429687 49.86039063 -40.52734375 50.20703125 C-39.81707031 50.53058594 -39.10679688 50.85414062 -38.375 51.1875 C-37.73691406 51.47625 -37.09882812 51.765 -36.44140625 52.0625 C-34.8125 53.1875 -34.8125 53.1875 -33.96484375 55.171875 C-32.23757898 58.19312457 -30.07260876 58.45006321 -26.8125 59.4375 C-25.20375 59.94023437 -25.20375 59.94023437 -23.5625 60.453125 C-20.96484662 61.27350143 -20.96484662 61.27350143 -18.8125 61.1875 C-19.5625 65.9375 -19.5625 65.9375 -21.8125 68.1875 C-22.49190467 70.61465206 -22.49190467 70.61465206 -22.9375 73.3125 C-23.10507812 74.22257812 -23.27265625 75.13265625 -23.4453125 76.0703125 C-23.62707031 77.11832031 -23.62707031 77.11832031 -23.8125 78.1875 C-24.59238281 78.27386719 -25.37226562 78.36023438 -26.17578125 78.44921875 C-28.88064551 78.91995128 -28.88064551 78.91995128 -30.10546875 80.89453125 C-30.40066406 81.58933594 -30.69585937 82.28414063 -31 83 C-31.30292969 83.68707031 -31.60585938 84.37414062 -31.91796875 85.08203125 C-32.21316406 85.77683594 -32.50835937 86.47164063 -32.8125 87.1875 C-33.47083785 88.52496532 -34.13511226 89.8595813 -34.8125 91.1875 C-31.75833187 92.20555604 -29.63313039 92.32125515 -26.4375 92.3125 C-25.50164063 92.31507812 -24.56578125 92.31765625 -23.6015625 92.3203125 C-20.85213291 92.18938728 -18.45166963 91.97699519 -15.8125 91.1875 C-12.87470671 87.0745894 -11.60277466 83.63206349 -10.48828125 78.69921875 C-6.00400903 62.03224167 -6.00400903 62.03224167 0.0625 57.75 C1.09375 57.234375 2.125 56.71875 3.1875 56.1875 C3.8475 56.8475 4.5075 57.5075 5.1875 58.1875 C6.84141846 58.57921753 8.51095271 58.90807545 10.1875 59.1875 C11.52292939 59.51233418 12.85711551 59.8425855 14.1875 60.1875 C14.1875 60.8475 14.1875 61.5075 14.1875 62.1875 C13.5275 62.290625 12.8675 62.39375 12.1875 62.5 C9.72243926 63.06490975 7.3449548 63.67109802 4.9375 64.4375 C4.25171875 64.64890625 3.5659375 64.8603125 2.859375 65.078125 C0.96552654 66.0893626 0.96552654 66.0893626 0.42578125 68.43359375 C0.17055413 71.38334985 0.30596706 74.0578073 0.625 77 C0.72683594 77.97582031 0.82867187 78.95164062 0.93359375 79.95703125 C1.01738281 80.69308594 1.10117188 81.42914063 1.1875 82.1875 C10.47565099 77.91778353 15.22941121 69.2590116 19.1875 60.1875 C20.14458416 56.86734962 20.80779768 53.62031894 21.1875 50.1875 C15.61039352 49.11954344 10.79313042 49.36127329 5.1875 50.1875 C4.56875 49.1975 3.95 48.2075 3.3125 47.1875 C2.260625 45.7025 2.260625 45.7025 1.1875 44.1875 C0.5275 44.1875 -0.1325 44.1875 -0.8125 44.1875 C-0.92179041 36.70891303 0.72586038 32.59498126 5.69140625 27 C7.39969358 25.32213043 7.39969358 25.32213043 7.1875 23.1875 C6.5275 23.1875 5.8675 23.1875 5.1875 23.1875 C5.1875 21.5375 5.1875 19.8875 5.1875 18.1875 C6.5075 17.8575 7.8275 17.5275 9.1875 17.1875 C8.6925 15.7025 8.6925 15.7025 8.1875 14.1875 C7.5275 14.1875 6.8675 14.1875 6.1875 14.1875 C5.6925 12.7025 5.6925 12.7025 5.1875 11.1875 C4.5275 11.5175 3.8675 11.8475 3.1875 12.1875 C3.5175 11.5275 3.8475 10.8675 4.1875 10.1875 C5.8375 10.8475 7.4875 11.5075 9.1875 12.1875 C7.69160455 7.69981364 4.1796253 5.38606176 0.1875 3.1875 C-3.07960876 2.3194583 -3.07960876 2.3194583 -5.8125 2.1875 C-6.3075 0.7025 -6.3075 0.7025 -6.8125 -0.8125 C-9.83687339 -2.3246867 -12.47491534 -1.98513369 -15.8125 -1.8125 C-18.16619807 -0.93185073 -18.16619807 -0.93185073 -19.8125 0.1875 C-20.4725 -1.4625 -21.1325 -3.1125 -21.8125 -4.8125 C-25.15502724 -4.88677838 -27.6160914 -4.87796953 -30.8125 -3.8125 Z M10.1875 13.1875 C10.1875 13.8475 10.1875 14.5075 10.1875 15.1875 C10.8475 14.8575 11.5075 14.5275 12.1875 14.1875 C11.5275 13.8575 10.8675 13.5275 10.1875 13.1875 Z M13.1875 21.1875 C12.8575 22.1775 12.5275 23.1675 12.1875 24.1875 C11.1975 24.6825 11.1975 24.6825 10.1875 25.1875 C12.8275 25.1875 15.4675 25.1875 18.1875 25.1875 C17.5275 23.8675 16.8675 22.5475 16.1875 21.1875 C15.1975 21.1875 14.2075 21.1875 13.1875 21.1875 Z M-1.8125 60.1875 C-4.56902913 63.94444049 -6.18217468 68.25034139 -7.875 72.5625 C-8.13087891 73.19671875 -8.38675781 73.8309375 -8.65039062 74.484375 C-10.3074994 78.65909633 -11.61429884 82.85391783 -12.8125 87.1875 C-13.45449649 88.86382417 -14.11144157 90.53500513 -14.8125 92.1875 C-13.8225 92.8475 -12.8325 93.5075 -11.8125 94.1875 C-10.30319817 90.8011749 -10.30319817 90.8011749 -9.8125 87.1875 C-9.1525 86.8575 -8.4925 86.5275 -7.8125 86.1875 C-7.47096063 84.52249557 -7.13800502 82.85571323 -6.8125 81.1875 C-6.1525 80.5275 -5.4925 79.8675 -4.8125 79.1875 C-2.35835155 75.20496728 -2.44852341 71.41411424 -2.25390625 66.84375 C-1.75634107 63.84955248 -0.80105218 62.43588966 1.1875 60.1875 C0.1975 60.1875 -0.7925 60.1875 -1.8125 60.1875 Z M-46.8125 85.1875 C-46.8125 88.1875 -46.8125 88.1875 -46.8125 88.1875 Z M-46.8125 90.1875 C-46.8125 90.8475 -46.8125 91.5075 -46.8125 92.1875 C-46.1525 91.8575 -45.4925 91.5275 -44.8125 91.1875 C-45.4725 90.8575 -46.1325 90.5275 -46.8125 90.1875 Z M-25.4375 93.6875 C-27.22027344 93.82671875 -27.22027344 93.82671875 -29.0390625 93.96875 C-30.41191406 94.07703125 -30.41191406 94.07703125 -31.8125 94.1875 C-31.4825 97.1575 -31.1525 100.1275 -30.8125 103.1875 C-28.8325 103.6825 -28.8325 103.6825 -26.8125 104.1875 C-24.7725281 102.82426257 -24.7725281 102.82426257 -22.8125 101.1875 C-20.5625 100.5 -20.5625 100.5 -18.8125 100.1875 C-18.1525 97.8775 -17.4925 95.5675 -16.8125 93.1875 C-19.701109 93.1875 -22.55809416 93.46166425 -25.4375 93.6875 Z M-15.8125 94.1875 C-14.8125 96.1875 -14.8125 96.1875 -14.8125 96.1875 Z M-44.8125 103.1875 C-44.4825 103.8475 -44.1525 104.5075 -43.8125 105.1875 C-43.4825 104.5275 -43.1525 103.8675 -42.8125 103.1875 C-43.4725 103.1875 -44.1325 103.1875 -44.8125 103.1875 Z M-38.8125 104.1875 C-37.8125 106.1875 -37.8125 106.1875 -37.8125 106.1875 Z M-47.8125 113.1875 C-46.8125 116.1875 -46.8125 116.1875 -46.8125 116.1875 Z M-40.8125 142.1875 C-40.8125 144.8275 -40.8125 147.4675 -40.8125 150.1875 C-40.1525 149.8575 -39.4925 149.5275 -38.8125 149.1875 C-39.1425 146.8775 -39.4725 144.5675 -39.8125 142.1875 C-40.1425 142.1875 -40.4725 142.1875 -40.8125 142.1875 Z M-35.8125 143.1875 C-36.4725 143.8475 -37.1325 144.5075 -37.8125 145.1875 C-37.4939823 147.29570797 -37.4939823 147.29570797 -36.8125 149.1875 C-35.8225 148.8575 -34.8325 148.5275 -33.8125 148.1875 C-33.8125 147.1975 -33.8125 146.2075 -33.8125 145.1875 C-33.1525 145.1875 -32.4925 145.1875 -31.8125 145.1875 C-31.8125 144.5275 -31.8125 143.8675 -31.8125 143.1875 C-33.1325 143.1875 -34.4525 143.1875 -35.8125 143.1875 Z " fill="#FEFEFE" transform="translate(86.8125,12.8125)"/>
<path d="M0 0 C3.96 0 7.92 0 12 0 C12.84884766 2.13082031 12.84884766 2.13082031 13.71484375 4.3046875 C14.45568378 6.16147644 15.19657168 8.01824629 15.9375 9.875 C16.49727539 11.28072266 16.49727539 11.28072266 17.06835938 12.71484375 C17.60493164 14.05869141 17.60493164 14.05869141 18.15234375 15.4296875 C18.48226318 16.25710449 18.81218262 17.08452148 19.15209961 17.93701172 C19.97542634 20.01220506 19.97542634 20.01220506 21 22 C25.73493441 11.09513351 25.73493441 11.09513351 30 0 C33.63 0 37.26 0 41 0 C40.01 0.99 39.02 1.98 38 3 C37.58518419 5.90521704 37.58518419 5.90521704 37.70703125 9.19921875 C37.71669922 10.40771484 37.72636719 11.61621094 37.73632812 12.86132812 C37.76146484 14.12396484 37.78660156 15.38660156 37.8125 16.6875 C37.82603516 17.96173828 37.83957031 19.23597656 37.85351562 20.54882812 C37.88891801 23.69964057 37.9383021 26.84961045 38 30 C39.32 30.33 40.64 30.66 42 31 C42 31.33 42 31.66 42 32 C37.71 32 33.42 32 29 32 C29.33 31.34 29.66 30.68 30 30 C30.99 30 31.98 30 33 30 C32.34 23.07 31.68 16.14 31 9 C27.7 16.59 24.4 24.18 21 32 C18 31 18 31 16.83325195 28.86694336 C16.47191162 27.95050049 16.11057129 27.03405762 15.73828125 26.08984375 C15.34189453 25.10048828 14.94550781 24.11113281 14.53710938 23.09179688 C14.13298828 22.05087891 13.72886719 21.00996094 13.3125 19.9375 C12.89677734 18.89271484 12.48105469 17.84792969 12.05273438 16.77148438 C11.02519668 14.18492396 10.01131297 11.59294709 9 9 C8.67 15.6 8.34 22.2 8 29 C9.32 29.66 10.64 30.32 12 31 C12 31.33 12 31.66 12 32 C7.71 32 3.42 32 -1 32 C0.32 31.01 1.64 30.02 3 29 C3.61955472 27.0245711 3.61955472 27.0245711 3.57421875 24.83203125 C3.60193359 24.02056641 3.62964844 23.20910156 3.65820312 22.37304688 C3.66787109 21.52806641 3.67753906 20.68308594 3.6875 19.8125 C3.73026941 18.15226916 3.77581621 16.49210741 3.82421875 14.83203125 C3.84532715 14.02717285 3.86643555 13.22231445 3.88818359 12.39306641 C4.0517686 8.89206148 4.50785422 5.46902758 5 2 C3.35 1.67 1.7 1.34 0 1 C0 0.67 0 0.34 0 0 Z " fill="#FFFFFF" transform="translate(203,89)"/>
<path d="M0 0 C1.36882012 4.51710639 0.52382612 7.59783565 -1 12 C-1.33 12.33 -1.66 12.66 -2 13 C-2.45875388 18.16364833 -2.11460965 22.24212828 0 27 C0.125 29.8125 0.125 29.8125 0 32 C-3 33 -3 33 -5.41015625 32.14453125 C-6.28542969 31.70496094 -7.16070312 31.26539062 -8.0625 30.8125 C-8.94035156 30.38582031 -9.81820312 29.95914063 -10.72265625 29.51953125 C-13.20451663 27.86353865 -14.05000239 26.79940124 -15 24 C-14.835 23.360625 -14.67 22.72125 -14.5 22.0625 C-13.73634825 19.89357901 -13.73634825 19.89357901 -15.1875 17.6875 C-16 15 -16 15 -14.25 11.5 C-13.86328125 10.90703125 -13.4765625 10.3140625 -13.078125 9.703125 C-11.85395504 7.90364965 -11.85395504 7.90364965 -11 5.25 C-8.69113665 0.05505747 -5.33337905 -0.36363948 0 0 Z " fill="#FFFFFF" transform="translate(79,32)"/>
<path d="M0 0 C-0.33 9.9 -0.66 19.8 -1 30 C-0.01 30.33 0.98 30.66 2 31 C-0.83994609 33.83994609 -2.85397569 33.33354948 -6.8125 33.375 C-8.03582031 33.40335938 -9.25914062 33.43171875 -10.51953125 33.4609375 C-14.55526437 32.9264633 -16.14617361 31.83800111 -19 29 C-20.53214888 25.93570224 -20.22938548 23.3834358 -20 20 C-18.3529886 16.37657492 -16.5672657 13.83183914 -13 12 C-10.27997316 11.75984408 -7.74092557 11.86295372 -5 12 C-5 9.03 -5 6.06 -5 3 C-6.32 3 -7.64 3 -9 3 C-9 2.34 -9 1.68 -9 1 C-2.25 -1.125 -2.25 -1.125 0 0 Z M-13.25 15.5 C-15.27199771 18.38856816 -15.56358537 20.52007615 -15.40625 24.02734375 C-14.78208323 27.05815356 -13.14552985 28.85447015 -11 31 C-9.02 30.67 -7.04 30.34 -5 30 C-4.94615479 27.70858714 -4.90727913 25.41681812 -4.875 23.125 C-4.85179687 21.84882812 -4.82859375 20.57265625 -4.8046875 19.2578125 C-4.64358476 15.91406662 -4.64358476 15.91406662 -7 14 C-10.89599371 13.63019987 -10.89599371 13.63019987 -13.25 15.5 Z " fill="#FFFFFF" transform="translate(319,88)"/>
<path d="M0 0 C0.66 -0.33 1.32 -0.66 2 -1 C5.4375 -1.3125 5.4375 -1.3125 9 -1 C11.75800773 1.47465077 11.99538784 2.94219432 12.29296875 6.671875 C12.27316751 8.03156035 12.23759202 9.3910934 12.1875 10.75 C12.16719727 11.79607422 12.16719727 11.79607422 12.14648438 12.86328125 C12.1112945 14.57585541 12.05749155 16.28802941 12 18 C12.99 18 13.98 18 15 18 C15 18.66 15 19.32 15 20 C11.37 20 7.74 20 4 20 C4.33 19.34 4.66 18.68 5 18 C5.66 18 6.32 18 7 18 C7.38958535 10.25661364 7.38958535 10.25661364 5 3 C3.35 3.33 1.7 3.66 0 4 C-0.33 8.62 -0.66 13.24 -1 18 C-0.01 18 0.98 18 2 18 C2 18.66 2 19.32 2 20 C-1.63 20 -5.26 20 -9 20 C-8.67 19.34 -8.34 18.68 -8 18 C-7.34 18 -6.68 18 -6 18 C-6.11341491 15.51979503 -6.24014686 13.04155031 -6.375 10.5625 C-6.4059375 9.85544922 -6.436875 9.14839844 -6.46875 8.41992188 C-6.57280629 6.60760812 -6.77919892 4.80182012 -7 3 C-7.66 2.67 -8.32 2.34 -9 2 C-9 1.34 -9 0.68 -9 0 C-5.55465996 -0.86133501 -3.39620354 -0.93688374 0 0 Z " fill="#FFFFFF" transform="translate(281,101)"/>
<path d="M0 0 C0 0.66 0 1.32 0 2 C0.99 1.34 1.98 0.68 3 0 C6.5 -0.375 6.5 -0.375 10 0 C12.55001643 2.39064041 12.9818801 3.85068506 13.40625 7.34765625 C13.46881568 9.82682126 13.53131554 12.30598793 13.59375 14.78515625 C13.7067639 18.31964173 13.7067639 18.31964173 17 21 C13.04 21 9.08 21 5 21 C6.32 20.34 7.64 19.68 9 19 C8.67 14.05 8.34 9.1 8 4 C5.69 4.33 3.38 4.66 1 5 C0.67 9.62 0.34 14.24 0 19 C1.32 19.33 2.64 19.66 4 20 C4 20.33 4 20.66 4 21 C0.04 21 -3.92 21 -8 21 C-7.67 20.34 -7.34 19.68 -7 19 C-6.34 19 -5.68 19 -5 19 C-4.91924335 16.70890403 -4.86092269 14.41700733 -4.8125 12.125 C-4.77769531 10.84882812 -4.74289063 9.57265625 -4.70703125 8.2578125 C-4.80371094 7.18273437 -4.90039062 6.10765625 -5 5 C-5.99 4.34 -6.98 3.68 -8 3 C-8 2.34 -8 1.68 -8 1 C-5.23735711 0.40267181 -2.83967231 0 0 0 Z " fill="#FFFFFF" transform="translate(144,100)"/>
<path d="M0 0 C0.33 5.28 0.66 10.56 1 16 C4.74691447 17.39770584 4.74691447 17.39770584 7 16 C7 11.71 7 7.42 7 3 C6.01 3 5.02 3 4 3 C4 2.34 4 1.68 4 1 C6.64 0.67 9.28 0.34 12 0 C12 5.94 12 11.88 12 18 C12.99 18 13.98 18 15 18 C15 18.66 15 19.32 15 20 C12.69 20.33 10.38 20.66 8 21 C8 20.34 8 19.68 8 19 C7.46375 19.33 6.9275 19.66 6.375 20 C3.31305259 21.28924102 1.28949317 21.48992451 -2 21 C-4.85096545 17.30455427 -5.38696311 14.3479341 -5.5625 9.75 C-5.64433286 6.65004411 -5.64433286 6.65004411 -6 4 C-6.66 3.67 -7.32 3.34 -8 3 C-8 2.34 -8 1.68 -8 1 C-5 0 -5 0 0 0 Z " fill="#FFFFFF" transform="translate(255,100)"/>
<path d="M0 0 C3.44186104 0.0383037 4.63382591 0.2432899 7.6875 2.0625 C11.06349026 5.74539846 11.75 7.11700312 11.75 12.25 C11.18999084 15.69373448 10.60809118 16.47863715 8.1875 19.3125 C3.72827601 21.90695759 1.83808639 21.95860621 -3.25 21.3125 C-6.09124653 20.07717542 -7.67097859 19.0569561 -9.5625 16.625 C-10.59696083 13.14544994 -10.96885197 9.86447442 -10.25 6.3125 C-7.8125 3.375 -7.8125 3.375 -5.25 1.3125 C-3.69014791 -0.24735209 -2.16093902 0.06797656 0 0 Z M-2.25 2.3125 C-4.91044076 4.97294076 -5.262761 6.42734902 -5.6875 10.25 C-5.55809006 14.32260684 -4.1492131 16.4132869 -1.25 19.3125 C1.69091587 19.12834568 1.69091587 19.12834568 4.75 18.3125 C6.62903644 16.00640982 6.74791612 14.33208849 7.0625 11.375 C6.69804925 7.80338263 6.08891484 6.04123399 3.75 3.3125 C0.6542893 2.42042821 0.6542893 2.42042821 -2.25 2.3125 Z " fill="#FFFFFF" transform="translate(188.25,99.6875)"/>
<path d="M0 0 C4.29 0 8.58 0 13 0 C11.02 0.99 11.02 0.99 9 2 C9 11.24 9 20.48 9 30 C10.32 30.33 11.64 30.66 13 31 C13 31.33 13 31.66 13 32 C8.71 32 4.42 32 0 32 C0.33 31.34 0.66 30.68 1 30 C1.99 30 2.98 30 4 30 C4 20.76 4 11.52 4 2 C2.68 1.67 1.36 1.34 0 1 C0 0.67 0 0.34 0 0 Z " fill="#FFFFFF" transform="translate(121,89)"/>
<path d="M0 0 C0.33 1.32 0.66 2.64 1 4 C-2.11257569 4 -4.10765685 3.82638376 -7 3 C-8.56272189 7.39253773 -8.56272189 7.39253773 -9 12 C-7.35 12.33 -5.7 12.66 -4 13 C-4 13.66 -4 14.32 -4 15 C-5.98 15 -7.96 15 -10 15 C-9.67 20.28 -9.34 25.56 -9 31 C-8.01 31.33 -7.02 31.66 -6 32 C-6 32.33 -6 32.66 -6 33 C-9.96 33 -13.92 33 -18 33 C-17.67 32.34 -17.34 31.68 -17 31 C-16.01 31 -15.02 31 -14 31 C-14 25.72 -14 20.44 -14 15 C-14.99 14.67 -15.98 14.34 -17 14 C-16.01 13.67 -15.02 13.34 -14 13 C-13.9175 11.948125 -13.835 10.89625 -13.75 9.8125 C-12.9404491 5.69728295 -11.88290914 3.97027002 -9 1 C-6.04335481 -0.4783226 -3.25770263 -0.06032783 0 0 Z " fill="#FFFFFF" transform="translate(180,88)"/>
<path d="M0 0 C0 6.27 0 12.54 0 19 C0.99 19.33 1.98 19.66 3 20 C3 20.33 3 20.66 3 21 C-0.63 21 -4.26 21 -8 21 C-7.67 20.34 -7.34 19.68 -7 19 C-6.34 19 -5.68 19 -5 19 C-5.11341491 16.51979503 -5.24014686 14.04155031 -5.375 11.5625 C-5.4059375 10.85544922 -5.436875 10.14839844 -5.46875 9.41992188 C-5.57280629 7.60760812 -5.77919892 5.80182012 -6 4 C-6.66 3.67 -7.32 3.34 -8 3 C-8 2.34 -8 1.68 -8 1 C-5 0 -5 0 0 0 Z " fill="#FFFFFF" transform="translate(331,100)"/>
<path d="M0 0 C1.65 0.33 3.3 0.66 5 1 C4.67 2.32 4.34 3.64 4 5 C2.35 4.67 0.7 4.34 -1 4 C-0.67 2.68 -0.34 1.36 0 0 Z " fill="#FFFFFF" transform="translate(326,90)"/>
<path d="M0 0 C2.3431213 0.25561323 4.67843403 0.59270772 7 1 C7.33 1.66 7.66 2.32 8 3 C5.03 2.67 2.06 2.34 -1 2 C-0.67 1.34 -0.34 0.68 0 0 Z " fill="#FFFFFF" transform="translate(23,47)"/>
<path d="M0 0 C0.66 0.33 1.32 0.66 2 1 C1.01 1 0.02 1 -1 1 C-0.67 0.67 -0.34 0.34 0 0 Z " fill="#FFFFFF" transform="translate(51,140)"/>
<path d="M0 0 C0.66 0 1.32 0 2 0 C1.67 0.66 1.34 1.32 1 2 C0.67 1.34 0.34 0.68 0 0 Z " fill="#FFFFFF" transform="translate(45,140)"/>
<path d="" fill="#FFFFFF" transform="translate(0,0)"/>
<path d="" fill="#FFFFFF" transform="translate(0,0)"/>
<path d="" fill="#FFFFFF" transform="translate(0,0)"/>
<path d="" fill="#FFFFFF" transform="translate(0,0)"/>
</svg>
