<?xml version="1.0" encoding="UTF-8"?>
<svg version="1.1" xmlns="http://www.w3.org/2000/svg" width="375" height="375">
<path d="M0 0 C0.99 0.33 1.98 0.66 3 1 C3.31835861 3.06160382 3.62926615 5.12435813 3.9375 7.1875 C4.11152344 8.33605469 4.28554687 9.48460937 4.46484375 10.66796875 C5.86063251 21.20123023 6.13793246 31.69973304 6.0625 42.3125 C6.05798828 43.54162109 6.05347656 44.77074219 6.04882812 46.03710938 C6.03720289 49.02479356 6.02086559 52.01236855 6 55 C7.14855469 54.96777344 8.29710937 54.93554688 9.48046875 54.90234375 C13.9180568 54.90916331 17.99638645 55.57669404 22.3125 56.5625 C23.07796143 56.73595947 23.84342285 56.90941895 24.63208008 57.08813477 C30.61207838 58.51899144 36.40544153 60.35150641 42.1875 62.4375 C43.35309448 62.85140991 43.35309448 62.85140991 44.54223633 63.27368164 C49.00984324 64.95575818 52.659811 66.97178265 56.46118164 69.85571289 C58.40827606 71.30359986 60.46539578 72.40056513 62.625 73.5 C67.38239489 76.08165798 71.23245532 78.69736595 73 84 C74.30785379 84.71536053 75.64504242 85.37845983 77 86 C94.10161406 98.96763611 104.17874966 124.57591855 108 145 C108.66593971 149.98804025 108.91837325 154.96882381 109 160 C109.65669678 159.99476318 110.31339355 159.98952637 110.98999023 159.98413086 C160.20109754 159.64738963 160.20109754 159.64738963 176 163 C176.66 163.66 177.32 164.32 178 165 C173.01209245 166.90737585 168.33423251 167.58952691 163.0625 168.0625 C162.1751416 168.14411377 161.2877832 168.22572754 160.37353516 168.30981445 C151.88551766 169.02825171 143.38601375 169.3895745 134.875 169.6875 C133.57183838 169.73592041 132.26867676 169.78434082 130.92602539 169.83422852 C123.53007675 170.05751496 116.34787279 169.89633761 109 169 C108.86464844 170.22332031 108.72929687 171.44664062 108.58984375 172.70703125 C105.62668703 196.83007318 96.59132441 219.75894533 79 237 C80.40523815 241.39627578 82.50290852 243.82437999 85.8125 247 C86.66457031 247.825 87.51664062 248.65 88.39453125 249.5 C89.25433594 250.325 90.11414063 251.15 91 252 C92.66790906 253.66542335 94.33470113 255.33196665 96 257 C96.56203125 257.53882813 97.1240625 258.07765625 97.703125 258.6328125 C102.1930196 262.96397346 106.09274339 267.67553194 109.984375 272.546875 C111.87607421 274.9527249 111.87607421 274.9527249 113.78515625 276.69140625 C114.18605469 277.12324219 114.58695312 277.55507813 115 278 C114.6875 280.1875 114.6875 280.1875 114 282 C109.62959369 281.12105218 106.69610732 278.76258189 103.25 276.0625 C102.64800781 275.60681641 102.04601562 275.15113281 101.42578125 274.68164062 C99.90854039 273.50672508 98.44883145 272.25830593 97 271 C97 270.34 97 269.68 97 269 C96.1646875 268.6596875 96.1646875 268.6596875 95.3125 268.3125 C92.32795251 266.61856764 90.37345955 264.48385302 88 262 C82.39683107 256.24576525 76.70353018 250.46902012 70 246 C69.31292969 246.56589844 68.62585938 247.13179687 67.91796875 247.71484375 C67.01691406 248.44832031 66.11585938 249.18179688 65.1875 249.9375 C64.29417969 250.66839844 63.40085938 251.39929688 62.48046875 252.15234375 C60 254 60 254 57 255 C57 270.84 57 286.68 57 303 C76.38247107 294.05655155 76.38247107 294.05655155 94.125 282.36328125 C98.60518135 278.95647668 98.60518135 278.95647668 100.984375 279.21875 C104.2633017 280.48965182 106.38032887 282.67801877 109 285 C108.25 287.9375 108.25 287.9375 107 291 C105 291.75 105 291.75 103 292 C102.34 292.66 101.68 293.32 101 294 C99.82400593 294.64638935 98.63524945 295.26987397 97.4375 295.875 C94.56759599 297.40873641 94.56759599 297.40873641 93.0625 300.25 C93.041875 300.8275 93.02125 301.405 93 302 C92.236875 301.9175 91.47375 301.835 90.6875 301.75 C89.800625 301.8325 88.91375 301.915 88 302 C87.505 302.66 87.01 303.32 86.5 304 C86.005 304.66 85.51 305.32 85 306 C82.3125 306.25 82.3125 306.25 80 306 C79.67 306.66 79.34 307.32 79 308 C79.33 308.33 79.66 308.66 80 309 C80 309.33 80 309.66 80 310 C78.08333333 310.47916667 76.16666667 310.95833333 74.25 311.4375 C72.64898437 311.83775391 72.64898437 311.83775391 71.015625 312.24609375 C69.21354167 312.69661458 67.41145833 313.14713542 65.609375 313.59765625 C65.07828125 313.73042969 64.5471875 313.86320312 64 314 C64 314.66 64 315.32 64 316 C62.02 316.66 60.04 317.32 58 318 C58 318.66 58 319.32 58 320 C54.04904664 321.3450054 50.80700429 322.1175959 46.625 322 C41.98032941 321.89643102 37.3542503 322.27855221 33 324 C32.34 324.99 31.68 325.98 31 327 C28.29443359 327.34057617 28.29443359 327.34057617 24.8984375 327.29296875 C23.68671875 327.28330078 22.475 327.27363281 21.2265625 327.26367188 C19.32003906 327.2259668 19.32003906 327.2259668 17.375 327.1875 C16.09625 327.17396484 14.8175 327.16042969 13.5 327.14648438 C10.33291718 327.11103196 7.16666459 327.06161441 4 327 C3.7899898 318.50635988 3.63082338 310.01383231 3.53369045 301.51822472 C3.48703216 297.57175347 3.4239264 293.62707829 3.32104492 289.68164062 C3.22209596 285.86241085 3.16920764 282.04488996 3.14610481 278.22447586 C3.12967746 276.77882646 3.09760449 275.33325381 3.04842949 273.88834763 C2.6598339 261.97914399 6.14016711 255.28013702 13 246 C14.7190382 243.02175129 16.23968578 239.99290696 17.6875 236.875 C18.05560791 236.0900415 18.42371582 235.30508301 18.80297852 234.49633789 C25.09272465 220.61717518 30.56952412 204.37715128 30 189 C27.21290603 193.18064096 26.60399048 197.72983551 25.58789062 202.57617188 C24.58993144 207.10475957 23.28293068 210.9089362 21 215 C7.39007371 209.9277821 -3.94775373 198.1799788 -10 185 C-10.67713152 182.23317784 -10.89391519 179.86428989 -11 177 C-20.46998021 179.35587069 -30.89378316 182.89378316 -38 190 C-39.96926139 209.70891128 -36.21635144 232.87482627 -23.75 248.890625 C-23.1725 249.58671875 -22.595 250.2828125 -22 251 C-22 251.66 -22 252.32 -22 253 C-21.01 253 -20.02 253 -19 253 C-19.36351562 252.33097656 -19.72703125 251.66195312 -20.1015625 250.97265625 C-28.5770168 234.78236535 -33.80759011 218.4443161 -33 200 C-32.97035156 199.21109375 -32.94070312 198.4221875 -32.91015625 197.609375 C-32.65017579 194.18524213 -32.18478292 192.23842958 -30.0625 189.5 C-28 188 -28 188 -26 188 C-26 187.34 -26 186.68 -26 186 C-25.34 186 -24.68 186 -24 186 C-23.79955078 186.51796143 -23.59910156 187.03592285 -23.39257812 187.56958008 C-17.78453207 201.89330542 -11.85473775 214.69231644 1 224 C1.66 224 2.32 224 3 224 C2.40832031 223.35933594 1.81664062 222.71867188 1.20703125 222.05859375 C0.41683594 221.19363281 -0.37335938 220.32867187 -1.1875 219.4375 C-2.35345703 218.16712891 -2.35345703 218.16712891 -3.54296875 216.87109375 C-8.48467036 211.09660935 -11.97154286 205.49285714 -14.8125 198.4375 C-15.12380859 197.70853516 -15.43511719 196.97957031 -15.75585938 196.22851562 C-17.49157897 191.990308 -18.37566483 188.66266345 -18 184 C-14.43737846 187.11729385 -12.33485971 191.23676041 -9.9609375 195.26171875 C-8.20015373 198.19859855 -6.44391224 200.61718556 -4 203 C-4 203.66 -4 204.32 -4 205 C-3.34 205 -2.68 205 -2 205 C-2 205.66 -2 206.32 -2 207 C-1.43796875 207.26167969 -0.8759375 207.52335938 -0.296875 207.79296875 C2.22194149 209.11663252 4.43909268 210.65291528 6.75 212.3125 C11.07572238 215.38029718 15.47555312 218.23506024 20 221 C17.7043712 227.53371273 14.7315974 233.64000327 11.5 239.75 C11.12045166 240.47050537 10.74090332 241.19101074 10.34985352 241.93334961 C4.61891073 252.64191246 4.61891073 252.64191246 0.91107178 255.75238037 C-1.68257404 258.80277823 -1.51648108 260.72494623 -1.54589844 264.69628906 C-1.55623611 265.36011597 -1.56657379 266.02394287 -1.57722473 266.70788574 C-1.60663646 268.8940469 -1.60815143 271.07928161 -1.609375 273.265625 C-1.62435791 274.78450281 -1.6410853 276.30336433 -1.65948486 277.82220459 C-1.7031589 281.81376903 -1.72315734 285.80511371 -1.73822021 289.796875 C-1.7577913 293.87252803 -1.79976123 297.94794371 -1.83984375 302.0234375 C-1.9151463 310.0155629 -1.96543722 318.00759509 -2 326 C-5.28349873 327.64174936 -8.85299611 326.94893816 -12.4375 326.75 C-13.25138184 326.70697754 -14.06526367 326.66395508 -14.90380859 326.61962891 C-20.43791065 326.26255462 -25.36154452 325.25913491 -30.65234375 323.56640625 C-34.34313009 322.67595031 -37.31383791 323.23494749 -41 324 C-41 323.01 -41 322.02 -41 321 C-45.38585329 320.29826347 -49.55790643 319.89165625 -54 320 C-54.495 318.515 -54.495 318.515 -55 317 C-57.30954209 315.94321883 -57.30954209 315.94321883 -60.25 315.0625 C-73.78785 310.13149503 -86.78107465 302.29079494 -98.0390625 293.328125 C-100.01925517 291.7196124 -100.01925517 291.7196124 -103 292 C-104.75 289.6875 -104.75 289.6875 -106 287 C-104.62903502 282.88710505 -102.52399633 281.43968977 -99 279 C-94.85928631 278.79296432 -92.82806003 280.84439912 -89.828125 283.48828125 C-79.42164652 292.09363845 -66.31959871 297.72017198 -54 303 C-53.505 279.24 -53.505 279.24 -53 255 C-54.98 254.34 -56.96 253.68 -59 253 C-61.3359375 251.2734375 -61.3359375 251.2734375 -63.375 249.375 C-64.06335938 248.74335938 -64.75171875 248.11171875 -65.4609375 247.4609375 C-65.96882813 246.97882813 -66.47671875 246.49671875 -67 246 C-70.79247523 247.75592405 -73.10578004 249.96459858 -76 253 C-80.77894469 257.91548597 -85.89111878 262.43398388 -91 267 C-92.70873972 268.54121622 -94.41708175 270.0828735 -96.125 271.625 C-100.38164185 275.4573247 -104.67611927 279.24377959 -109 283 C-110.32 282.34 -111.64 281.68 -113 281 C-110.48029535 276.35983967 -107.22507672 272.61966777 -103.75 268.6875 C-103.16734375 268.02250488 -102.5846875 267.35750977 -101.984375 266.67236328 C-100.83680102 265.36309151 -99.68776211 264.05510199 -98.53710938 262.74853516 C-96.67892396 260.63476071 -94.84028645 258.504358 -93 256.375 C-90.44201945 253.46139777 -87.77576137 250.70967182 -85 248 C-83.3944756 246.39719222 -81.79041586 244.7929165 -80.1875 243.1875 C-78.79166667 241.79166667 -77.39583333 240.39583333 -76 239 C-77.33587626 236.04429311 -78.8268652 233.96105338 -81.0625 231.625 C-96.42564544 214.19006109 -103.92130773 191.86561497 -106 169 C-116.23 169 -126.46 169 -137 169 C-137 169.66 -137 170.32 -137 171 C-137.53625 170.86722656 -138.0725 170.73445312 -138.625 170.59765625 C-144.03604298 169.37839163 -149.34138099 168.77875187 -154.875 168.5 C-168.53228533 167.78944004 -168.53228533 167.78944004 -175 166 C-175.33 165.34 -175.66 164.68 -176 164 C-153.03376584 159.34824047 -129.34505937 159.75017178 -106 160 C-105.97421875 159.18660156 -105.9484375 158.37320313 -105.921875 157.53515625 C-104.59815009 130.78989612 -94.33271719 108.08123193 -76.39453125 88.22265625 C-75 87 -75 87 -73 87 C-72.7421875 86.40832031 -72.484375 85.81664063 -72.21875 85.20703125 C-65.96678805 73.88536939 -49.55153664 66.4084774 -38 62 C-37.15308594 61.65710938 -36.30617187 61.31421875 -35.43359375 60.9609375 C-24.92363176 56.85719675 -14.27241315 54.71022074 -3 55 C-3.02356567 53.77990234 -3.02356567 53.77990234 -3.04760742 52.53515625 C-3.34389201 34.75308055 -2.8347847 17.614367 0 0 Z M7 67 C5.71573103 68.05950052 5.71573103 68.05950052 5.88647461 70.50024414 C5.89171143 71.58426514 5.89694824 72.66828613 5.90234375 73.78515625 C5.90484131 74.83840088 5.90733887 75.89164551 5.90991211 76.97680664 C5.91901611 78.32508545 5.92812012 79.67336426 5.9375 81.0625 C5.958125 85.331875 5.97875 89.60125 6 94 C17.22 94 28.44 94 40 94 C36.52279759 87.04559518 32.12473115 81.73939155 27 76 C26.00419922 74.88044922 26.00419922 74.88044922 24.98828125 73.73828125 C19.81578673 68.56578673 14.23695035 67.27789889 7 67 Z M-16 69 C-19.59427264 71.39455613 -22.8160968 74.08706728 -26 77 C-25.01 77.495 -25.01 77.495 -24 78 C-23.28199219 77.70480469 -22.56398437 77.40960938 -21.82421875 77.10546875 C-18.42531566 75.7750544 -15.44943466 75.54627557 -11.8125 75.3125 C-9.96591797 75.18294922 -9.96591797 75.18294922 -8.08203125 75.05078125 C-5 75 -5 75 -3 76 C-3 73.36 -3 70.72 -3 68 C-7.63452005 66.45515998 -11.4564823 67.34954967 -16 69 Z M38 76 C38.68835938 77.06927734 38.68835938 77.06927734 39.390625 78.16015625 C42.72992305 83.37254796 45.99357541 88.58843574 49 94 C49.66 94 50.32 94 51 94 C51.33 92.02 51.66 90.04 52 88 C53.65 88 55.3 88 57 88 C52.08295191 82.42734549 45.41595784 77.43866157 38 76 Z M-40 77 C-39.67 77.66 -39.34 78.32 -39 79 C-38.67 78.34 -38.34 77.68 -38 77 C-38.66 77 -39.32 77 -40 77 Z M-62 92 C-62.33 92.66 -62.66 93.32 -63 94 C-60.56282742 93.72965366 -60.56282742 93.72965366 -58 93 C-57.34 92.01 -56.68 91.02 -56 90 C-54.0546875 89.48828125 -54.0546875 89.48828125 -51.875 89.3125 C-50.59625 89.209375 -49.3175 89.10625 -48 89 C-48.66 90.65 -49.32 92.3 -50 94 C-49.34 94 -48.68 94 -48 94 C-46.16757845 91.43457776 -46.16757845 91.43457776 -44.375 88.25 C-43.42753906 86.64898437 -43.42753906 86.64898437 -42.4609375 85.015625 C-40.70934169 81.95850991 -40.70934169 81.95850991 -41 78 C-47.22300006 78 -57.40302046 87.94824362 -62 92 Z M-37.625 90 C-38.07875 90.99 -38.5325 91.98 -39 93 C-38.01 93.33 -37.02 93.66 -36 94 C-35.34 93.34 -34.68 92.68 -34 92 C-33.67 92.66 -33.34 93.32 -33 94 C-29.7 94 -26.4 94 -23 94 C-23 92.02 -23 90.04 -23 88 C-28.17807095 85.41096452 -33.86314625 85.70073857 -37.625 90 Z M62 91 C62.33 91.99 62.66 92.98 63 94 C63.99 93.67 64.98 93.34 66 93 C64.68 92.34 63.36 91.68 62 91 Z M52 92 C53 94 53 94 53 94 Z M-59 102 C-59.66 103.11375 -60.32 104.2275 -61 105.375 C-61.37125 106.00148438 -61.7425 106.62796875 -62.125 107.2734375 C-63.15068348 108.97472667 -63.15068348 108.97472667 -63 111 C-61.02 111 -59.04 111 -57 111 C-57 111.66 -57 112.32 -57 113 C-56.34 113 -55.68 113 -55 113 C-53.57741188 109.17679443 -52.75957724 106.08718695 -53 102 C-54.98 102 -56.96 102 -59 102 Z M-43 102 C-43.66 103.32 -44.32 104.64 -45 106 C-41.37 106 -37.74 106 -34 106 C-33.938125 106.886875 -33.87625 107.77375 -33.8125 108.6875 C-32.81828945 112.74081992 -31.09898876 114.29831749 -28 117 C-31.73486879 117.5745952 -35.21293268 118 -39 118 C-38.47731534 120.76276177 -37.89130413 123.3260876 -37 126 C-40.33333333 126 -43.66666667 126 -47 126 C-47 127.98 -47 129.96 -47 132 C-47.61875 132.28875 -48.2375 132.5775 -48.875 132.875 C-51.13325765 133.93720042 -51.13325765 133.93720042 -53 136 C-53 137.98 -53 139.96 -53 142 C-42.44 142 -31.88 142 -21 142 C-21 144.64 -21 147.28 -21 150 C-28.20867506 149.95843523 -35.41657149 149.88621247 -42.62475586 149.79248047 C-45.07780936 149.76422285 -47.53095472 149.74303231 -49.98413086 149.72900391 C-53.50682779 149.70764128 -57.02841452 149.66102348 -60.55078125 149.609375 C-61.65086014 149.60814636 -62.75093903 149.60691772 -63.88435364 149.60565186 C-64.90518539 149.58593323 -65.92601715 149.5662146 -66.9777832 149.54589844 C-67.87713089 149.53701599 -68.77647858 149.52813354 -69.70307922 149.51898193 C-72 149 -72 149 -73.81388855 146.96588135 C-74.20530533 146.3171405 -74.59672211 145.66839966 -75 145 C-78.465 145.495 -78.465 145.495 -82 146 C-82.37125 145.34 -82.7425 144.68 -83.125 144 C-84.90894778 141.64696955 -84.90894778 141.64696955 -88.1875 141.75 C-89.115625 141.8325 -90.04375 141.915 -91 142 C-92.81041047 148.95427515 -93.30653827 155.32906319 -93.25 162.5 C-93.25773437 163.48097656 -93.26546875 164.46195313 -93.2734375 165.47265625 C-93.25707537 171.61663554 -92.54821459 177.05288999 -91 183 C-88.69 183 -86.38 183 -84 183 C-84 182.01 -84 181.02 -84 180 C-81.36 180 -78.72 180 -76 180 C-76 180.99 -76 181.98 -76 183 C-68.08 183 -60.16 183 -52 183 C-55.45925968 176.78173881 -55.45925968 176.78173881 -60 172 C-58.70358572 167.67861905 -56.98363489 163.81397316 -54.90234375 159.83203125 C-53.87475785 157.85009204 -53.87475785 157.85009204 -53 155 C-46.6530642 154.64883757 -40.5413308 154.48313666 -35 158 C-33.65729179 159.99371825 -32.32346506 161.9934562 -31 164 C-27.40932038 165.28842537 -27.40932038 165.28842537 -24 166 C-23.67 166.66 -23.34 167.32 -23 168 C-23.928125 168.185625 -24.85625 168.37125 -25.8125 168.5625 C-34.35214908 171.03450368 -44.03461406 177.56519752 -49 185 C-49.33 187.31 -49.66 189.62 -50 192 C-57.59 192 -65.18 192 -73 192 C-70.46855262 205.92296058 -64.64814812 218.66735159 -54.25390625 228.6328125 C-50.54941971 233.03180077 -51.39085002 238.67288196 -51.4375 244.125 C-51.31717785 252.62081573 -50.87173696 260.73561156 -49.125 269.0625 C-48.96314209 269.83932129 -48.80128418 270.61614258 -48.63452148 271.41650391 C-47.44518055 276.73525973 -45.80627419 281.86099068 -44 287 C-43.67 287 -43.34 287 -43 287 C-43.14330577 284.9998173 -43.28978294 282.99986175 -43.4375 281 C-43.51871094 279.88625 -43.59992188 278.7725 -43.68359375 277.625 C-43.89606336 275.19078024 -44.1799046 272.76183304 -44.53125 270.34375 C-45.25448722 264.74693385 -45.10629737 259.13301495 -45.0625 253.5 C-45.05798828 252.39140625 -45.05347656 251.2828125 -45.04882812 250.140625 C-45.03713158 247.42702601 -45.02074086 244.71354239 -45 242 C-44.69707031 243.08796875 -44.39414063 244.1759375 -44.08203125 245.296875 C-40.418688 258.23448626 -36.53429156 271.33213555 -28 282 C-27.01 281.67 -26.02 281.34 -25 281 C-25.29132813 280.42894531 -25.58265625 279.85789062 -25.8828125 279.26953125 C-26.76846699 277.51771781 -27.64364851 275.76059315 -28.51171875 274 C-29.46875194 272.07086223 -30.44882253 270.1528926 -31.45703125 268.25 C-41.81984393 247.68842972 -45.58462985 222.94232906 -44.875 200.125 C-44.8646875 199.02414063 -44.854375 197.92328125 -44.84375 196.7890625 C-44.59255362 188.82806948 -44.59255362 188.82806948 -41.84765625 184.9921875 C-32.11086904 178.18044336 -22.28784788 173.56819508 -11 170 C-10.91868537 168.56344146 -10.86066441 167.1255517 -10.8125 165.6875 C-10.77769531 164.88699219 -10.74289063 164.08648437 -10.70703125 163.26171875 C-10.76079823 160.92216914 -10.76079823 160.92216914 -12.4934082 159.65307617 C-14.48610189 157.46663492 -14.38654446 156.2141852 -14.3984375 153.2890625 C-14.40230469 152.37382812 -14.40617187 151.45859375 -14.41015625 150.515625 C-14.39855469 149.56171875 -14.38695312 148.6078125 -14.375 147.625 C-14.38660156 146.67882812 -14.39820313 145.73265625 -14.41015625 144.7578125 C-14.37304915 135.95105992 -14.37304915 135.95105992 -11 132 C-4.79149391 128.24902757 2.1162018 127.85867759 9.15625 129.50390625 C11.91601971 130.52712595 13.77456794 131.73117491 15.6640625 133.984375 C17.59709809 138.34783545 17.43623199 142.34423512 17.375 147.0625 C17.38660156 147.96033203 17.39820313 148.85816406 17.41015625 149.78320312 C17.38866474 154.60088356 17.29647698 157.28821883 14 161 C13.64042111 163.35929642 13.64042111 163.35929642 13.8125 165.75 C13.83957031 166.54921875 13.86664063 167.3484375 13.89453125 168.171875 C13.94673828 169.07679688 13.94673828 169.07679688 14 170 C14.90878906 170.32871094 15.81757813 170.65742188 16.75390625 170.99609375 C25.41590722 174.23795106 33.13356014 178.21399444 40.953125 183.14453125 C43.88609388 185.08611012 43.88609388 185.08611012 47 186 C47.19142578 187.51400391 47.19142578 187.51400391 47.38671875 189.05859375 C47.97336118 192.82879893 48.83938727 196.37552706 49.8125 200.0625 C53.08993131 213.12187365 54.36867831 226.65699504 56 240 C57.25308783 239.06444956 58.50557235 238.12809101 59.7578125 237.19140625 C60.45535645 236.67006104 61.15290039 236.14871582 61.87158203 235.61157227 C69.03113534 230.54096709 69.03113534 230.54096709 73 223 C73.66 223 74.32 223 75 223 C81.66790111 214.63063447 89.41769712 202.71559548 91 192 C82.06859375 190.84677283 82.06859375 190.84677283 74.06640625 193.5234375 C72.85108899 195.40636479 72.85108899 195.40636479 71.91796875 197.375 C71 199 71 199 68.1875 199.9375 C67.465625 199.958125 66.74375 199.97875 66 200 C63 193.125 63 193.125 63 192 C59.7 192 56.4 192 53 192 C52.67 189.36 52.34 186.72 52 184 C55.63 183.67 59.26 183.34 63 183 C66.00880304 175.58544965 66.25125319 171.6839796 63.2734375 164.25 C62.06253771 161.71604366 62.06253771 161.71604366 59 160 C56.88929704 160.38512703 56.88929704 160.38512703 54.6875 161.1875 C50.81506426 162.15403988 50.39101704 162.23310631 46.75 160.0625 C45.12282962 158.48331588 44.06676862 157.13353723 43.05078125 155.1015625 C41.86419611 152.80343317 41.11117702 151.53777092 39 150 C33.934315 149.3817044 29.07636749 149.59772182 24 150 C24 147.36 24 144.72 24 142 C29.61 142 35.22 142 41 142 C41.474375 140.7625 41.94875 139.525 42.4375 138.25 C44.68281992 133.64505297 47.49788986 132.34272508 52.171875 130.59375 C52.77515625 130.3978125 53.3784375 130.201875 54 130 C54 129.34 54 128.68 54 128 C51.36 128 48.72 128 46 128 C45.67 127.34 45.34 126.68 45 126 C44.34 126 43.68 126 43 126 C43.35049575 122.75791433 43.56221181 121.38472296 46.0625 119.1875 C46.701875 118.795625 47.34125 118.40375 48 118 C45.69 116.68 43.38 115.36 41 114 C41.66 112.35 42.32 110.7 43 109 C43.61875 109.185625 44.2375 109.37125 44.875 109.5625 C47.04160178 110.23686176 47.04160178 110.23686176 49 109 C49 109.99 49 110.98 49 112 C51.94091587 111.81584568 51.94091587 111.81584568 55 111 C55.33 110.34 55.66 109.68 56 109 C56.33 108.34 56.66 107.68 57 107 C60.125 106.25 60.125 106.25 63 106 C62.67 104.68 62.34 103.36 62 102 C59.03 102 56.06 102 53 102 C52.67 103.98 52.34 105.96 52 108 C49.125 107.8125 49.125 107.8125 46 107 C45.01 104.525 45.01 104.525 44 102 C31.46 102 18.92 102 6 102 C6 108.93 6 115.86 6 123 C3.03 123 0.06 123 -3 123 C-3 116.07 -3 109.14 -3 102 C-9.33836534 101.56001841 -9.33836534 101.56001841 -13.5 104.375 C-16.89603229 107.09336598 -19.77315089 108.05111551 -24 109 C-24 106.69 -24 104.38 -24 102 C-30.27 102 -36.54 102 -43 102 Z M-81 116 C-80 118 -80 118 -80 118 Z M-82 118 C-82.66 119.65 -83.32 121.3 -84 123 C-83.01 123.495 -83.01 123.495 -82 124 C-81.67 122.02 -81.34 120.04 -81 118 C-81.33 118 -81.66 118 -82 118 Z M85 120 C86 122 86 122 86 122 Z M58 122 C55.7522025 124.05233685 54.9977758 125.00667261 54 128 C56.2034806 129.1560727 58.41203156 130.29984721 60.625 131.4375 C61.24246094 131.76298828 61.85992187 132.08847656 62.49609375 132.42382812 C66.3232282 134.37768097 69.69710843 135.70324886 74 136 C76.83658587 134.68326167 76.83658587 134.68326167 79 133 C78.01 132.67 77.02 132.34 76 132 C75.67 132.33 75.34 132.66 75 133 C75 130.69 75 128.38 75 126 C76.32 125.34 77.64 124.68 79 124 C78.67 123.34 78.34 122.68 78 122 C75.54775306 122.10613836 75.54775306 122.10613836 73 123 C71.62533375 125.47636012 71.62533375 125.47636012 71 128 C70.48050781 127.73445313 69.96101562 127.46890625 69.42578125 127.1953125 C65.66979306 125.29301903 61.94774121 123.48040295 58 122 Z M86 122 C85.56799321 126.75207471 87.01510917 129.78210698 89 134 C89.99 133.67 90.98 133.34 92 133 C90.35 129.37 88.7 125.74 87 122 C86.67 122 86.34 122 86 122 Z M-85 124 C-86.32 127.3 -87.64 130.6 -89 134 C-87.35 133.67 -85.7 133.34 -84 133 C-83.32326553 129.59679066 -83.32326553 129.59679066 -83 126 C-83.66 125.34 -84.32 124.68 -85 124 Z M-65 136 C-65.66 137.65 -66.32 139.3 -67 141 C-64.525 141.495 -64.525 141.495 -62 142 C-62 140.02 -62 138.04 -62 136 C-62.99 136 -63.98 136 -65 136 Z M91 142 C91.020625 142.94875 91.04125 143.8975 91.0625 144.875 C91 148 91 148 90 150 C87.00667261 149.0022242 86.05233685 148.2477975 84 146 C84.41213336 149.4001002 85.3321265 151.62632804 87.1875 154.4375 C89 158 89 158 88.5 161 C87 164 87 164 84.9375 167.125 C82.00111207 171.96076153 82.18117373 177.48326003 82 183 C83.32 183 84.64 183 86 183 C86 179.37 86 175.74 86 172 C87.65 171.34 89.3 170.68 91 170 C91.0270043 171.45823212 91.04639787 172.91660675 91.0625 174.375 C91.07410156 175.18710938 91.08570313 175.99921875 91.09765625 176.8359375 C91 179 91 179 90 181 C89.01 181.66 88.02 182.32 87 183 C89.31 183 91.62 183 94 183 C96.3217121 169.17337526 96.53027402 156.80354846 94 143 C93.01 142.67 92.02 142.34 91 142 Z M83 144 C84 146 84 146 84 146 Z M-88 192 C-84.74789395 203.47802136 -77.09840108 220.26773261 -67 227 C-68.93169391 221.84547999 -71.47098232 217.03074857 -73.99023438 212.14648438 C-76.82218319 206.57325178 -79.02156144 200.93531567 -81 195 C-81.66 194.01 -82.32 193.02 -83 192 C-85.58380177 191.74969023 -85.58380177 191.74969023 -88 192 Z M33 210 C30.96573686 215.97361345 30.57044124 221.55523374 30.37890625 227.83984375 C30.34116592 228.91805893 30.3034256 229.99627411 30.26454163 231.10716248 C29.82591668 245.19587023 29.88702448 259.29089894 29.93133545 273.38458252 C29.94179511 277.07994996 29.94618015 280.77532497 29.95117188 284.47070312 C29.96171327 291.64715506 29.97864605 298.82357119 30 306 C33.84552149 300.98410241 34.14046602 297.76349488 34.11352539 291.51123047 C34.11367142 290.63311707 34.11381744 289.75500366 34.1139679 288.85028076 C34.11326958 285.9392248 34.10548095 283.02823232 34.09765625 280.1171875 C34.09579178 278.10222407 34.09436802 276.08726019 34.09336853 274.07229614 C34.08954562 268.7622147 34.07971724 263.4521605 34.06866455 258.14208984 C34.05844559 252.72624073 34.05386987 247.31038722 34.04882812 241.89453125 C34.03809479 231.26300885 34.02102106 220.63150669 34 210 C33.67 210 33.34 210 33 210 Z M-18 255 C-17 257 -17 257 -17 257 Z M-43 287 C-42 290 -42 290 -42 290 Z " fill="#FFFFFF" transform="translate(186,26)"/>
<path d="M0 0 C2.66771466 0.01066892 5.33474778 0.00007582 8.00244141 -0.01269531 C23.14150641 -0.02757443 37.75485684 0.89641811 52.31103516 5.38574219 C53.32206299 5.68996094 54.33309082 5.99417969 55.37475586 6.30761719 C73.46173114 11.90654245 90.01816641 19.89613558 105.81103516 30.32324219 C106.56070557 30.81791992 107.31037598 31.31259766 108.08276367 31.82226562 C112.82267625 35.01286586 117.17394436 38.45977086 121.43603516 42.26074219 C122.18111328 42.90140625 122.92619141 43.54207031 123.69384766 44.20214844 C127.41513351 47.43297193 130.99674764 50.72591891 134.43603516 54.26074219 C135.19916016 54.98261719 135.96228516 55.70449219 136.74853516 56.44824219 C138.43603516 58.26074219 138.43603516 58.26074219 138.43603516 60.26074219 C139.09603516 60.26074219 139.75603516 60.26074219 140.43603516 60.26074219 C149.49974327 68.57123356 156.46955754 80.62240002 162.43603516 91.26074219 C162.80341797 91.90720703 163.17080078 92.55367188 163.54931641 93.21972656 C175.37702158 114.19043558 183.31099818 137.0216319 185.19433594 161.16259766 C185.38503701 163.45038616 185.38503701 163.45038616 186.43603516 166.26074219 C186.27054684 169.94953023 185.82509622 173.58627658 185.43603516 177.26074219 C180.81603516 176.93074219 176.19603516 176.60074219 171.43603516 176.26074219 C171.28908203 174.72289062 171.14212891 173.18503906 170.99072266 171.60058594 C167.59109083 138.61731586 158.13235257 107.62086664 137.43603516 81.26074219 C136.87142578 80.49375 136.30681641 79.72675781 135.72509766 78.93652344 C126.13216955 66.26464242 114.45766781 55.04692537 101.14501953 46.37548828 C99.41974509 45.25011641 97.71668096 44.09596534 96.01416016 42.93652344 C78.54696046 31.19680218 59.9087408 23.91983828 39.43603516 19.26074219 C38.21013672 18.97070312 36.98423828 18.68066406 35.72119141 18.38183594 C1.86646421 10.90272331 -40.03779077 15.37549131 -70.56396484 32.26074219 C-71.28777344 32.6580957 -72.01158203 33.05544922 -72.75732422 33.46484375 C-86.55679481 41.0896927 -99.11847995 49.34057162 -110.56396484 60.26074219 C-111.15290527 60.82245117 -111.7418457 61.38416016 -112.34863281 61.96289062 C-119.92207937 69.23171336 -126.99289908 76.30334233 -132.56396484 85.26074219 C-133.25490234 86.29199219 -133.94583984 87.32324219 -134.65771484 88.38574219 C-141.88179727 99.2015559 -149.70925365 110.96689743 -152.89208984 123.69824219 C-153.75800637 127.00080753 -154.92424394 130.16770669 -156.06396484 133.38574219 C-160.80009322 147.3043753 -162.21861089 161.69926412 -163.56396484 176.26074219 C-168.18396484 176.59074219 -172.80396484 176.92074219 -177.56396484 177.26074219 C-181.6608336 164.97013591 -176.79528224 148.39100512 -173.56396484 136.26074219 C-173.20818359 134.88402344 -173.20818359 134.88402344 -172.84521484 133.47949219 C-172.16206092 131.03965674 -171.38795203 128.65681019 -170.56396484 126.26074219 C-170.16693359 125.08640625 -169.76990234 123.91207031 -169.36083984 122.70214844 C-165.97800098 113.04066467 -161.5747203 104.17639423 -156.62353516 95.23095703 C-155.55060547 93.23590113 -154.55793971 91.21394655 -153.57177734 89.17480469 C-151.71602009 85.43410873 -149.51644985 82.01152153 -147.06396484 78.63574219 C-146.64034668 78.04672119 -146.21672852 77.4577002 -145.78027344 76.85083008 C-141.14891025 70.52062991 -136.02404101 64.63131262 -130.8449707 58.74829102 C-129.66634382 57.37962824 -128.54003135 55.96637088 -127.41943359 54.54980469 C-104.89506809 26.76185061 -64.78971818 8.94399621 -30.56396484 2.26074219 C-29.65195313 2.07527832 -28.73994141 1.88981445 -27.80029297 1.69873047 C-18.53515466 0.02774945 -9.38163045 -0.04448703 0 0 Z " fill="#FFFFFF" transform="translate(183.56396484375,6.7392578125)"/>
<path d="M0 0 C0.77859375 0.00257813 1.5571875 0.00515625 2.359375 0.0078125 C3.12765625 0.00523437 3.8959375 0.00265625 4.6875 0 C7.24167721 0.14006778 9.60887519 0.60931909 12.109375 1.1328125 C12.17406982 1.73005127 12.23876465 2.32729004 12.30541992 2.94262695 C13.75444688 15.95153076 15.72275649 28.47892319 19.48291016 41.02929688 C20.05693603 42.95673529 20.59107251 44.89593698 21.12109375 46.8359375 C23.55777905 55.06088269 27.11270066 62.46524394 31.046875 70.0703125 C31.54904541 71.04194336 32.05121582 72.01357422 32.56860352 73.01464844 C35.29895091 78.1521466 38.21298343 82.85218136 41.80566406 87.42871094 C43.109375 89.1328125 43.109375 89.1328125 44.69140625 91.80859375 C47.02182442 95.62842518 50.1923562 98.67722791 53.24609375 101.92578125 C55.109375 104.1328125 55.109375 104.1328125 55.109375 106.1328125 C55.769375 106.1328125 56.429375 106.1328125 57.109375 106.1328125 C58.58984375 107.671875 58.58984375 107.671875 60.296875 109.7578125 C65.2094371 115.52296803 70.82479295 120.04707358 76.9140625 124.515625 C78.43459872 125.63573531 79.93894458 126.77803328 81.4296875 127.9375 C114.35414172 153.00841468 159.24024638 163.6298959 200.09570312 158.41308594 C201.83047161 158.15565132 203.5601631 157.86459325 205.2890625 157.5703125 C207.9502065 157.15750346 210.42225586 157.05348795 213.109375 157.1328125 C213.439375 156.4728125 213.769375 155.8128125 214.109375 155.1328125 C216.1248395 154.95906556 218.14038797 154.7862598 220.15625 154.6171875 C224.60219121 153.88795905 228.73495345 152.3759721 232.96728516 150.86010742 C235.83166266 149.84358371 238.04228097 149.1328125 241.109375 149.1328125 C241.439375 148.4728125 241.769375 147.8128125 242.109375 147.1328125 C244.04141169 146.31745757 246.0068882 145.58074902 247.984375 144.8828125 C259.9991706 140.37236148 269.87496262 133.70111745 280.109375 126.1328125 C281.23677261 125.30961287 282.3643717 124.4866891 283.4921875 123.6640625 C290.46754903 118.52251838 296.33025309 113.22887629 301.77734375 106.48828125 C302.21691406 106.04097656 302.65648437 105.59367187 303.109375 105.1328125 C303.769375 105.1328125 304.429375 105.1328125 305.109375 105.1328125 C305.109375 104.4728125 305.109375 103.8128125 305.109375 103.1328125 C306.25206901 102.02726151 307.39530217 100.92226472 308.54052734 99.81933594 C333.5828994 72.89859112 343.16510663 36.63122786 347.109375 1.1328125 C351.729375 0.8028125 356.349375 0.4728125 361.109375 0.1328125 C361.6463856 19.32596903 361.6463856 19.32596903 359.01953125 27.21875 C358.06029997 30.28993685 357.41155975 33.34043168 356.7734375 36.49047852 C353.56923325 52.1552947 347.59070234 66.06370418 340.109375 80.1328125 C339.7494043 80.81939941 339.38943359 81.50598633 339.01855469 82.21337891 C334.19489232 91.36383657 328.95044337 99.32089944 322.109375 107.1328125 C321.253854 108.17645505 320.40243993 109.22347475 319.5546875 110.2734375 C313.02766375 118.30329202 305.95149855 125.38766635 298.109375 132.1328125 C297.58569336 132.58865723 297.06201172 133.04450195 296.52246094 133.51416016 C279.85242385 147.85658526 257.11701792 162.65059052 235.109375 166.1328125 C234.779375 166.7928125 234.449375 167.4528125 234.109375 168.1328125 C231.9140625 168.66015625 231.9140625 168.66015625 228.984375 169.0703125 C224.21675988 169.7868653 219.51557236 170.64332802 214.796875 171.6328125 C175.10633783 179.56286912 132.00370638 174.18352326 96.08691406 155.17236328 C94.15437558 154.15646836 92.20897214 153.17097006 90.2578125 152.19140625 C79.02619029 146.48090197 68.51865628 139.55164312 59.109375 131.1328125 C59.109375 130.4728125 59.109375 129.8128125 59.109375 129.1328125 C58.305 128.7925 58.305 128.7925 57.484375 128.4453125 C51.09396545 124.91377038 47.01773585 119.7818211 42.52734375 114.140625 C40.94151875 112.16795093 39.319741 110.22353699 37.66015625 108.3125 C28.77737578 98.07708263 21.96641917 86.74901739 15.484375 74.8828125 C15.14132324 74.26301514 14.79827148 73.64321777 14.44482422 73.00463867 C12.68029361 69.68568441 12.109375 67.99622117 12.109375 64.1328125 C11.449375 63.8028125 10.789375 63.4728125 10.109375 63.1328125 C9.19555664 61.07006836 9.19555664 61.07006836 8.26953125 58.34765625 C7.93002441 57.35040527 7.59051758 56.3531543 7.24072266 55.32568359 C6.71164307 53.7142749 6.71164307 53.7142749 6.171875 52.0703125 C5.8114209 50.97283691 5.4509668 49.87536133 5.07958984 48.74462891 C0.49649452 34.46724965 -1.38258233 20.38052688 -2.65625 5.48046875 C-2.72618164 4.66586182 -2.79611328 3.85125488 -2.86816406 3.01196289 C-2.87557617 2.39184326 -2.88298828 1.77172363 -2.890625 1.1328125 C-1.890625 0.1328125 -1.890625 0.1328125 0 0 Z " fill="#FFFFFF" transform="translate(7.890625,196.8671875)"/>
<path d="M0 0 C3.78611227 0.54087318 5.55400767 2.11722332 8 5 C8 5.66 8 6.32 8 7 C8.66 7 9.32 7 10 7 C12.45698092 9.0474841 13.58884232 11.17768465 15 14 C15.66 14.33 16.32 14.66 17 15 C17 15.66 17 16.32 17 17 C17.66 17 18.32 17 19 17 C19.27972656 17.51046875 19.55945313 18.0209375 19.84765625 18.546875 C22.41536791 23.20343248 25.03129626 27.83082029 27.6875 32.4375 C28.26886719 33.44683594 28.85023438 34.45617187 29.44921875 35.49609375 C30.90111157 38.05366506 30.90111157 38.05366506 33 40 C34.27322729 42.32176742 35.15862416 44.47587248 36 47 C35.505 47.99 35.505 47.99 35 49 C35.99 49.495 35.99 49.495 37 50 C37.63385922 52.04243528 38.01826504 54.09132519 38.4375 56.1875 C38.7159375 57.0846875 38.7159375 57.0846875 39 58 C39.99 58.495 39.99 58.495 41 59 C41.52734375 61.1171875 41.52734375 61.1171875 41.9375 63.875 C42.58510142 67.85312301 43.41576245 71.63671914 44.5625 75.5 C46.12439111 80.96661889 46.68234997 86.33706667 47 92 C47.99 92.33 48.98 92.66 50 93 C49.01 93 48.02 93 47 93 C47.33 93.99 47.66 94.98 48 96 C48.06937062 98.22818441 48.08457084 100.45834524 48.0625 102.6875 C48.05347656 103.86699219 48.04445313 105.04648438 48.03515625 106.26171875 C48.02355469 107.16535156 48.01195312 108.06898438 48 109 C44.37 108.34 40.74 107.68 37 107 C36.86464844 105.77410156 36.72929687 104.54820312 36.58984375 103.28515625 C35.32956494 92.87121958 33.39903281 82.8554781 30.5625 72.75 C30.27431396 71.71625244 29.98612793 70.68250488 29.68920898 69.61743164 C27.50662846 62.09531285 24.86823416 55.02986661 20.8125 48.3125 C19.03582702 45.06547697 18.35644894 42.65360163 18 39 C17.34 39 16.68 39 16 39 C13.85217851 35.76496267 11.87056009 32.4688453 9.89648438 29.12695312 C7.30889095 24.84039519 4.66626706 21.46456305 1 18 C-0.2995085 16.41897321 -1.57293451 14.81594878 -2.8125 13.1875 C-3.41707031 12.39730469 -4.02164062 11.60710937 -4.64453125 10.79296875 C-5.09183594 10.20128906 -5.53914063 9.60960938 -6 9 C-4.38617243 5.59787701 -2.41396234 2.89675481 0 0 Z " fill="#FFFFFF" transform="translate(302,75)"/>
<path d="M0 0 C3.81684226 1.55500981 6.19195732 4.03595495 9 7 C7.53308651 10.38226167 5.63072874 12.56354116 3.0625 15.1875 C-3.2954805 22.11040607 -8.10429125 30.00755789 -13 38 C-13.53882813 38.87011719 -14.07765625 39.74023438 -14.6328125 40.63671875 C-17.65875853 45.78463323 -19.74154724 51.22092756 -21.8125 56.8125 C-22.83373528 59.55371049 -23.92765716 62.24224826 -25.0625 64.9375 C-30.06185168 77.60792166 -31.84733544 89.56236177 -32.76635742 103.06738281 C-33 105 -33 105 -34 107 C-36.50390625 107.4140625 -36.50390625 107.4140625 -39.5625 107.625 C-41.08037109 107.73714844 -41.08037109 107.73714844 -42.62890625 107.8515625 C-43.41136719 107.90054688 -44.19382812 107.94953125 -45 108 C-46.80344769 104.39310463 -45.63840964 100.17354957 -45.25 96.25 C-45.15928223 95.30511719 -45.06856445 94.36023438 -44.97509766 93.38671875 C-44.28881389 86.71672111 -43.19818755 80.3253517 -41.5859375 73.8125 C-41.02407743 71.11557165 -40.88901078 68.7444607 -41 66 C-40.34 66 -39.68 66 -39 66 C-38.86464844 65.3915625 -38.72929688 64.783125 -38.58984375 64.15625 C-35.69676298 52.37604088 -30.81637085 41.03831663 -24 31 C-22.96680236 29.34080614 -21.93365264 27.68158233 -20.90112305 26.02197266 C-14.921984 16.49339349 -8.17943092 7.75997292 0 0 Z " fill="#FFFFFF" transform="translate(70,75)"/>
<path d="M0 0 C1.85772162 0.08984301 3.71247985 0.24611861 5.5625 0.4375 C7.08037109 0.59025391 7.08037109 0.59025391 8.62890625 0.74609375 C9.80259766 0.87177734 9.80259766 0.87177734 11 1 C11.65851179 4.21437621 12.24658108 7.42771601 12.76171875 10.66796875 C14.66757024 22.19443258 17.20698646 33.066858 21.26953125 44.02490234 C21.95166193 45.8692998 22.60208127 47.72533915 23.25 49.58203125 C27.35745229 60.97210453 33.54962989 70.69000439 40.71166992 80.36889648 C42.58330226 82.91207796 43.99375751 84.98127252 45 88 C45.66 88 46.32 88 47 88 C52 94.66666667 52 94.66666667 52 98 C50.1875 100.75 50.1875 100.75 48 103 C47.34 103 46.68 103 46 103 C45.67 103.66 45.34 104.32 45 105 C39.89928064 100.96330369 35.88803364 96.68569992 32.0625 91.4375 C31.54888916 90.7465625 31.03527832 90.055625 30.50610352 89.34375 C26.48998432 83.86579609 22.95758743 78.19366031 19.62109375 72.28125 C19.08613281 71.5284375 18.55117188 70.775625 18 70 C17.01 70 16.02 70 15 70 C12.50519939 65.63409893 12 62.94218517 12 58 C11.34181395 55.93851162 10.5485885 53.96613135 9.7265625 51.96484375 C9 50 9 50 8.4375 46.5625 C8.293125 45.716875 8.14875 44.87125 8 44 C7.34 43.67 6.68 43.34 6 43 C5.40644386 40.35139573 5.25790731 37.70802678 5 35 C4.34 35 3.68 35 3 35 C3.04125 34.05125 3.0825 33.1025 3.125 32.125 C3.34973818 28.89755144 3.34973818 28.89755144 1 27 C0.62109375 24.1640625 0.62109375 24.1640625 0.4375 20.625 C0.10742044 14.80959834 -0.34739442 9.02733003 -0.9140625 3.23046875 C-0.94242188 2.49441406 -0.97078125 1.75835937 -1 1 C-0.67 0.67 -0.34 0.34 0 0 Z M13 59 C14 61 14 61 14 61 Z M16 66 C16.33 66.99 16.66 67.98 17 69 C17 68.01 17 67.02 17 66 C16.67 66 16.34 66 16 66 Z " fill="#FFFFFF" transform="translate(25,198)"/>
<path d="M0 0 C0.33 0 0.66 0 1 0 C2.08510346 15.97513433 -1.34936278 33.9549934 -6.625 49.0625 C-6.88539063 49.81660156 -7.14578125 50.57070312 -7.4140625 51.34765625 C-7.60742188 51.89292969 -7.80078125 52.43820313 -8 53 C-8.66 53 -9.32 53 -10 53 C-10.061875 53.78375 -10.12375 54.5675 -10.1875 55.375 C-11.29451682 60.31399811 -13.3833931 64.67159419 -16 69 C-16.99 69.495 -16.99 69.495 -18 70 C-19.35960954 72.79919612 -20.00986971 75.08389254 -20.375 78.1875 C-20.58125 79.115625 -20.7875 80.04375 -21 81 C-21.60199219 81.2784375 -22.20398438 81.556875 -22.82421875 81.84375 C-25.80147339 83.42591763 -26.74495551 85.42383863 -28.4375 88.3125 C-30.9656126 92.44014031 -33.38208127 95.74387314 -37 99 C-38.2761729 100.26547124 -39.54674994 101.53660365 -40.8125 102.8125 C-41.875 103.875 -42.9375 104.9375 -44 106 C-45.7074998 104.71937515 -47.37373596 103.38232443 -49 102 C-49 101.34 -49 100.68 -49 100 C-49.66 100 -50.32 100 -51 100 C-51.33 99.01 -51.66 98.02 -52 97 C-51.07885742 95.44458008 -51.07885742 95.44458008 -49.60546875 93.76953125 C-49.06688232 93.13990479 -48.5282959 92.51027832 -47.97338867 91.86157227 C-47.38404541 91.18537842 -46.79470215 90.50918457 -46.1875 89.8125 C-30.5739753 71.2102757 -19.28597904 49.42989832 -14.375 25.5625 C-14.05752808 24.0628772 -14.05752808 24.0628772 -13.73364258 22.53295898 C-12.30715885 15.71655111 -10.99340729 8.89454312 -10 2 C-9.04287109 1.90912109 -9.04287109 1.90912109 -8.06640625 1.81640625 C-7.24011719 1.73261719 -6.41382813 1.64882812 -5.5625 1.5625 C-4.73878906 1.48128906 -3.91507812 1.40007812 -3.06640625 1.31640625 C-1.01337975 1.21069185 -1.01337975 1.21069185 0 0 Z " fill="#FFFFFF" transform="translate(349,197)"/>
<path d="M0 0 C7.73135879 0.46646196 15.46213552 0.94186013 23.1875 1.5 C24.69376953 1.60828125 24.69376953 1.60828125 26.23046875 1.71875 C28.87341521 1.98714513 31.40675703 2.43109843 34 3 C34 3.66 34 4.32 34 5 C34.96679688 5.09410156 35.93359375 5.18820313 36.9296875 5.28515625 C41.60686741 5.95483802 45.76968327 7.66431549 50.125 9.4375 C50.91003906 9.75009766 51.69507813 10.06269531 52.50390625 10.38476562 C54.67216625 11.24951013 56.83621671 12.12413212 59 13 C59.96679688 13.38285156 60.93359375 13.76570313 61.9296875 14.16015625 C64.0156558 15.00635094 65.9873747 15.99368735 68 17 C68.845625 17.309375 69.69125 17.61875 70.5625 17.9375 C73.01423704 19.00620589 74.18504347 20.09861697 76 22 C76.66 22 77.32 22 78 22 C78 22.66 78 23.32 78 24 C78.72574219 24.26425781 79.45148438 24.52851562 80.19921875 24.80078125 C88.08123722 28.17564829 94.74255365 34.24944176 101 40 C99.63783758 43.21965664 98.27468847 44.81687435 95.375 46.75 C94.74335938 47.17796875 94.11171875 47.6059375 93.4609375 48.046875 C92.97882813 48.36140625 92.49671875 48.6759375 92 49 C91.30519531 48.41734375 90.61039062 47.8346875 89.89453125 47.234375 C64.43333045 26.71051732 34.28595573 15.57166322 2 12 C1.34 8.04 0.68 4.08 0 0 Z " fill="#FFFFFF" transform="translate(194,26)"/>
<path d="M0 0 C-0.33 3.63 -0.66 7.26 -1 11 C-5.09420869 12.53370357 -8.96226969 13.36505539 -13.26538086 13.93603516 C-40.8933402 17.61214025 -67.10600133 28.51471122 -88.16796875 46.91796875 C-90 48 -90 48 -92.03515625 47.8984375 C-94.45182734 46.79339903 -95.59570546 45.50536817 -97.25 43.4375 C-97.77078125 42.79683594 -98.2915625 42.15617187 -98.828125 41.49609375 C-99.21484375 41.00238281 -99.6015625 40.50867188 -100 40 C-93.16693733 32.71139982 -85.16667114 26.10919741 -76 22 C-75.34 22 -74.68 22 -74 22 C-73.67 21.34 -73.34 20.68 -73 20 C-71.36450195 19.02612305 -71.36450195 19.02612305 -69.23828125 18.01171875 C-68.45638428 17.63748779 -67.6744873 17.26325684 -66.86889648 16.87768555 C-66.02528564 16.48492432 -65.1816748 16.09216309 -64.3125 15.6875 C-63.44761963 15.28378174 -62.58273926 14.88006348 -61.69165039 14.46411133 C-42.38144499 5.57330016 -21.38025582 0 0 0 Z " fill="#FFFFFF" transform="translate(180,26)"/>
<path d="M0 0 C-0.47671206 4.65839684 -2.26222172 6.82932569 -5.4375 10.1875 C-6.64212891 11.47720703 -6.64212891 11.47720703 -7.87109375 12.79296875 C-9.23522232 14.20715709 -10.61061607 15.61061607 -12 17 C-14 16 -14 16 -14.66015625 14.1796875 C-15.28703818 10.58881044 -15.62179776 8.09811079 -13.78125 4.84765625 C-9.44197024 0.02513852 -6.34287501 -0.77894956 0 0 Z " fill="#FFFFFF" transform="translate(259,243)"/>
<path d="M0 0 C0.99 0.99 1.98 1.98 3 3 C2.67 3.99 2.34 4.98 2 6 C0 3 0 3 0 0 Z " fill="#FFFFFF" transform="translate(105,230)"/>
<path d="M0 0 C0.99 0.99 1.98 1.98 3 3 C2.01 3.33 1.02 3.66 0 4 C0 2.68 0 1.36 0 0 Z " fill="#FFFFFF" transform="translate(330,104)"/>
<path d="M0 0 C0.99 0.99 1.98 1.98 3 3 C2.01 3 1.02 3 0 3 C0 2.01 0 1.02 0 0 Z " fill="#FFFFFF" transform="translate(120,339)"/>
<path d="M0 0 C1.98 0.99 1.98 0.99 4 2 C2.68 2 1.36 2 0 2 C0 1.34 0 0.68 0 0 Z " fill="#FFFFFF" transform="translate(167,98)"/>
<path d="M0 0 C0.33 0 0.66 0 1 0 C1 1.65 1 3.3 1 5 C0.67 5 0.34 5 0 5 C0 3.35 0 1.7 0 0 Z " fill="#FFFFFF" transform="translate(217,311)"/>
<path d="M0 0 C0.66 1.32 1.32 2.64 2 4 C1.34 4 0.68 4 0 4 C0 2.68 0 1.36 0 0 Z " fill="#FFFFFF" transform="translate(340,123)"/>
<path d="M0 0 C3 1 3 1 3 1 Z " fill="#FFFFFF" transform="translate(224,349)"/>
<path d="M0 0 C0.66 0 1.32 0 2 0 C1.67 0.66 1.34 1.32 1 2 C0.67 1.34 0.34 0.68 0 0 Z " fill="#FFFFFF" transform="translate(260,149)"/>
<path d="M0 0 C0.66 0.66 1.32 1.32 2 2 C1.34 2 0.68 2 0 2 C0 1.34 0 0.68 0 0 Z " fill="#FFFFFF" transform="translate(235,30)"/>
<path d="" fill="#FFFFFF" transform="translate(0,0)"/>
<path d="" fill="#FFFFFF" transform="translate(0,0)"/>
<path d="" fill="#FFFFFF" transform="translate(0,0)"/>
<path d="" fill="#FFFFFF" transform="translate(0,0)"/>
<path d="" fill="#FFFFFF" transform="translate(0,0)"/>
<path d="M0 0 C2 1 2 1 2 1 Z " fill="#FFFFFF" transform="translate(345,197)"/>
<path d="" fill="#FFFFFF" transform="translate(0,0)"/>
<path d="M0 0 C2 1 2 1 2 1 Z " fill="#FFFFFF" transform="translate(151,27)"/>
<path d="" fill="#FFFFFF" transform="translate(0,0)"/>
<path d="" fill="#FFFFFF" transform="translate(0,0)"/>
<path d="" fill="#FFFFFF" transform="translate(0,0)"/>
<path d="" fill="#FFFFFF" transform="translate(0,0)"/>
<path d="" fill="#FFFFFF" transform="translate(0,0)"/>
<path d="" fill="#FFFFFF" transform="translate(0,0)"/>
<path d="" fill="#FFFFFF" transform="translate(0,0)"/>
<path d="" fill="#FFFFFF" transform="translate(0,0)"/>
<path d="" fill="#FFFFFF" transform="translate(0,0)"/>
<path d="" fill="#FFFFFF" transform="translate(0,0)"/>
<path d="" fill="#FFFFFF" transform="translate(0,0)"/>
<path d="" fill="#FFFFFF" transform="translate(0,0)"/>
<path d="" fill="#FFFFFF" transform="translate(0,0)"/>
<path d="" fill="#FFFFFF" transform="translate(0,0)"/>
<path d="" fill="#FFFFFF" transform="translate(0,0)"/>
<path d="" fill="#FFFFFF" transform="translate(0,0)"/>
<path d="" fill="#FFFFFF" transform="translate(0,0)"/>
<path d="" fill="#FFFFFF" transform="translate(0,0)"/>
<path d="" fill="#FFFFFF" transform="translate(0,0)"/>
<path d="" fill="#FFFFFF" transform="translate(0,0)"/>
<path d="" fill="#FFFFFF" transform="translate(0,0)"/>
<path d="" fill="#FFFFFF" transform="translate(0,0)"/>
<path d="" fill="#FFFFFF" transform="translate(0,0)"/>
<path d="" fill="#FFFFFF" transform="translate(0,0)"/>
<path d="" fill="#FFFFFF" transform="translate(0,0)"/>
<path d="" fill="#FFFFFF" transform="translate(0,0)"/>
<path d="" fill="#FFFFFF" transform="translate(0,0)"/>
<path d="" fill="#FFFFFF" transform="translate(0,0)"/>
<path d="" fill="#FFFFFF" transform="translate(0,0)"/>
<path d="" fill="#FFFFFF" transform="translate(0,0)"/>
<path d="" fill="#FFFFFF" transform="translate(0,0)"/>
<path d="" fill="#FFFFFF" transform="translate(0,0)"/>
<path d="" fill="#FFFFFF" transform="translate(0,0)"/>
<path d="" fill="#FFFFFF" transform="translate(0,0)"/>
<path d="" fill="#FFFFFF" transform="translate(0,0)"/>
<path d="" fill="#FFFFFF" transform="translate(0,0)"/>
<path d="" fill="#FFFFFF" transform="translate(0,0)"/>
<path d="" fill="#FFFFFF" transform="translate(0,0)"/>
<path d="" fill="#FFFFFF" transform="translate(0,0)"/>
<path d="" fill="#FFFFFF" transform="translate(0,0)"/>
<path d="" fill="#FFFFFF" transform="translate(0,0)"/>
<path d="" fill="#FFFFFF" transform="translate(0,0)"/>
<path d="" fill="#FFFFFF" transform="translate(0,0)"/>
<path d="" fill="#FFFFFF" transform="translate(0,0)"/>
<path d="" fill="#FFFFFF" transform="translate(0,0)"/>
<path d="" fill="#FFFFFF" transform="translate(0,0)"/>
<path d="" fill="#FFFFFF" transform="translate(0,0)"/>
<path d="" fill="#FFFFFF" transform="translate(0,0)"/>
<path d="" fill="#FFFFFF" transform="translate(0,0)"/>
<path d="" fill="#FFFFFF" transform="translate(0,0)"/>
<path d="" fill="#FFFFFF" transform="translate(0,0)"/>
<path d="" fill="#FFFFFF" transform="translate(0,0)"/>
<path d="" fill="#FFFFFF" transform="translate(0,0)"/>
<path d="" fill="#FFFFFF" transform="translate(0,0)"/>
<path d="" fill="#FFFFFF" transform="translate(0,0)"/>
<path d="" fill="#FFFFFF" transform="translate(0,0)"/>
<path d="" fill="#FFFFFF" transform="translate(0,0)"/>
<path d="" fill="#FFFFFF" transform="translate(0,0)"/>
<path d="" fill="#FFFFFF" transform="translate(0,0)"/>
<path d="" fill="#FFFFFF" transform="translate(0,0)"/>
<path d="" fill="#FFFFFF" transform="translate(0,0)"/>
<path d="" fill="#FFFFFF" transform="translate(0,0)"/>
<path d="" fill="#FFFFFF" transform="translate(0,0)"/>
<path d="" fill="#FFFFFF" transform="translate(0,0)"/>
<path d="" fill="#FFFFFF" transform="translate(0,0)"/>
<path d="" fill="#FFFFFF" transform="translate(0,0)"/>
</svg>
