<?xml version="1.0" encoding="UTF-8"?>
<svg version="1.1" xmlns="http://www.w3.org/2000/svg" width="375" height="375">
<path d="M0 0 C0.66 0 1.32 0 2 0 C5.77074247 18.47426655 6.13708112 36.16505425 6 55 C7.26481201 55.05293213 7.26481201 55.05293213 8.55517578 55.10693359 C17.42142553 55.52872466 25.57042668 57.28071787 34 60 C35.07024414 60.34393799 35.07024414 60.34393799 36.16210938 60.69482422 C48.13358668 64.66345813 58.01044203 70.34123746 68 78 C69.30517578 78.99966797 69.30517578 78.99966797 70.63671875 80.01953125 C81.81210197 89.38468711 90.51113358 101.02570407 97 114 C97.31453125 114.62245605 97.6290625 115.24491211 97.953125 115.88623047 C101.70231226 123.44798776 104.5359707 131.0193438 106.4375 139.25 C106.6015332 139.94577148 106.76556641 140.64154297 106.93457031 141.35839844 C108.22740757 147.56228193 108.14969712 153.6847777 108 160 C108.88298012 160.01213028 108.88298012 160.01213028 109.78379822 160.02450562 C115.99888053 160.11162752 122.21368237 160.21115462 128.4284668 160.31738281 C130.73733755 160.35529372 133.0462598 160.39020693 135.35522461 160.421875 C171.89353198 160.92902132 171.89353198 160.92902132 178 165 C155.46115845 171.09573215 131.13661365 169.22099631 108 169 C107.95536621 169.89968506 107.91073242 170.79937012 107.86474609 171.72631836 C107.44027535 178.93992558 106.77848771 185.65821638 104.625 192.5625 C104.37097412 193.39112549 104.11694824 194.21975098 103.85522461 195.07348633 C99.50146659 208.40195401 92.70430654 222.70764746 83 233 C82.34 233 81.68 233 81 233 C79.5393715 235.64738916 79 236.89448334 79 240 C80.37413627 241.77394837 80.37413627 241.77394837 82.25390625 243.51171875 C83.2893457 244.52588867 83.2893457 244.52588867 84.34570312 245.56054688 C85.07724609 246.26244141 85.80878906 246.96433594 86.5625 247.6875 C91.37128228 252.34669527 96.00961575 257.04057362 100.37231445 262.12280273 C101.88379038 263.86597634 103.4332333 265.55547457 105.01953125 267.23046875 C105.48423828 267.72353516 105.94894531 268.21660156 106.42773438 268.72460938 C107.36600167 269.71581135 108.30886879 270.70267572 109.25585938 271.68554688 C111.99947959 274.6143904 113.78641717 277.16283348 115 281 C107.08841632 281 99.89678876 272.94560634 94.421875 267.53515625 C92.64312945 265.74420578 90.8783461 263.94094948 89.12084961 262.12915039 C84.68970085 257.58695778 80.06088759 253.62459009 75.01171875 249.76953125 C73 248 73 248 72 245 C70.66195312 245.95712891 70.66195312 245.95712891 69.296875 246.93359375 C68.1148073 247.76854633 66.93250316 248.60316426 65.75 249.4375 C65.16347656 249.85837891 64.57695312 250.27925781 63.97265625 250.71289062 C60.99712343 252.80245019 58.55302175 254.26710483 55 255 C55.10610596 256.21574707 55.10610596 256.21574707 55.21435547 257.45605469 C55.92628204 266.3369946 56.15627562 275.1402298 56.13037109 284.04541016 C56.12490388 286.28945353 56.13041118 288.53330558 56.13671875 290.77734375 C56.13605962 292.21093794 56.13478189 293.64453201 56.1328125 295.078125 C56.13168457 296.36106445 56.13055664 297.64400391 56.12939453 298.96582031 C56 302 56 302 55 304 C69.95692204 297.81435804 84.0675747 291.01733021 96.44921875 280.45703125 C99 279 99 279 101.65625 279.56640625 C104.98518241 281.60260324 106.64604015 283.9062242 109 287 C78.72044958 310.45833302 43.20936854 327.28587197 4 327 C3.83698451 318.58482065 3.71301953 310.17031333 3.6373148 301.75393963 C3.60095847 297.84474656 3.5517408 293.93664257 3.47192383 290.02807617 C3.39522054 286.24783122 3.35387776 282.46862587 3.3358593 278.68766212 C3.32303867 277.25359564 3.2980046 275.81957874 3.2598896 274.38596153 C3.00295814 264.310749 4.83904491 258.08198559 11 250 C12.48792136 247.40553797 13.81891066 244.75238492 15.125 242.0625 C15.45991455 241.37849121 15.7948291 240.69448242 16.13989258 239.98974609 C23.01391146 225.81736571 30.30619023 209.20855539 30.0625 193.125 C30.05347656 192.34382812 30.04445312 191.56265625 30.03515625 190.7578125 C30.02355469 190.17773438 30.01195312 189.59765625 30 189 C28.18870047 191.7169493 27.52300784 193.27378585 26.74609375 196.34375 C26.53146484 197.17777344 26.31683594 198.01179687 26.09570312 198.87109375 C25.87849609 199.73863281 25.66128906 200.60617188 25.4375 201.5 C24.99946273 203.21894508 24.56069111 204.93770323 24.12109375 206.65625 C23.9295874 207.41744141 23.73808105 208.17863281 23.54077148 208.96289062 C23.09027148 210.65994347 22.55524217 212.3342735 22 214 C13.33040116 213.55540519 6.63480718 207.20453823 0.9140625 201.1875 C-5.61724271 193.72315119 -9.35261141 186.57006308 -12 177 C-22.00574137 179.85624887 -30.36764871 184.24509914 -39 190 C-42.23050787 209.22468897 -34.44172893 233.1193361 -24 249 C-21.79168981 251.79719291 -19.47888823 254.4404379 -17 257 C-17.50789062 255.97003906 -18.01578125 254.94007813 -18.5390625 253.87890625 C-27.66876514 235.10537095 -36.74307097 214.33190212 -32 193 C-29.52719003 190.03833138 -27.20428125 188.1361875 -24 186 C-23.57589844 187.18335938 -23.15179688 188.36671875 -22.71484375 189.5859375 C-19.41203043 198.5721757 -16.10883306 206.5055048 -10 214 C-9.2575 215.051875 -8.515 216.10375 -7.75 217.1875 C-3.71753998 221.31160683 1.05730347 224.07420065 6 227 C3.27844858 223.48570309 0.37262342 220.34492973 -2.75 217.1875 C-9.71810353 209.61123359 -17.7298093 197.16005362 -18.125 186.6875 C-18.08375 185.800625 -18.0425 184.91375 -18 184 C-15.01900901 186.62327207 -13.30065497 189.71327768 -11.3125 193.125 C-3.69705743 205.69065466 5.73967626 213.73088655 19 220 C18.43187068 225.67212982 16.30874143 230.23913119 13.875 235.3125 C13.27147705 236.58009155 13.27147705 236.58009155 12.65576172 237.87329102 C9.37266112 244.59214925 5.52028406 250.21021673 0.43278503 255.68719482 C-1.49611576 258.8008313 -1.39856239 261.0447377 -1.43237305 264.69628906 C-1.44766052 265.69202942 -1.44766052 265.69202942 -1.46325684 266.70788574 C-1.49336097 268.89388496 -1.50264832 271.07944582 -1.51171875 273.265625 C-1.52856745 274.78449965 -1.54671795 276.30336037 -1.56611633 277.82220459 C-1.61360218 281.81371712 -1.64342047 285.80517318 -1.66955566 289.796875 C-1.69936847 293.87250928 -1.74589629 297.94794901 -1.79101562 302.0234375 C-1.87703256 310.01552939 -1.94438478 318.00763901 -2 326 C-3.74046109 326.01211252 -5.48094691 326.02070082 -7.22143555 326.02783203 C-8.19066452 326.03299835 -9.15989349 326.03816467 -10.15849304 326.04348755 C-14.11079162 325.983 -17.9175698 325.51740945 -21.8125 324.875 C-22.61091309 324.74448242 -23.40932617 324.61396484 -24.23193359 324.47949219 C-52.81205257 319.50376022 -85.9515189 308.1224619 -106 286 C-104.93283928 284.79794536 -103.84561663 283.61367667 -102.75 282.4375 C-102.14671875 281.77621094 -101.5434375 281.11492187 -100.921875 280.43359375 C-99 279 -99 279 -96.890625 279.22265625 C-95 280 -95 280 -93 281 C-93 281.66 -93 282.32 -93 283 C-91.948125 283.37125 -91.948125 283.37125 -90.875 283.75 C-87.60709794 285.17082698 -84.93863625 286.98328885 -82 289 C-72.77104919 294.76809426 -62.82602828 299.32093891 -53 304 C-53 287.83 -53 271.66 -53 255 C-54.65 254.34 -56.3 253.68 -58 253 C-60.09225374 251.49607087 -62.05078967 249.88469291 -64.03515625 248.2421875 C-66.17607062 246.64375181 -66.17607062 246.64375181 -70 247 C-71.72207627 248.27411344 -71.72207627 248.27411344 -73.25 250.0625 C-77.52046965 254.58846784 -82.13905406 258.62169331 -86.921875 262.59765625 C-87.82679687 263.35369141 -87.82679687 263.35369141 -88.75 264.125 C-89.28109375 264.56070312 -89.8121875 264.99640625 -90.359375 265.4453125 C-92.12810636 267.03909521 -92.12810636 267.03909521 -93.79296875 269.34375 C-96.42356019 272.50977156 -99.30958991 274.87951667 -102.5625 277.375 C-103.13935547 277.83777344 -103.71621094 278.30054688 -104.31054688 278.77734375 C-106.00390625 280.0859375 -106.00390625 280.0859375 -109 282 C-109.99 281.67 -110.98 281.34 -112 281 C-110.57918195 276.64334798 -108.44390457 274.00113025 -105.3125 270.6875 C-104.40034954 269.71288689 -103.48889353 268.73762339 -102.578125 267.76171875 C-101.30195313 266.39466797 -101.30195313 266.39466797 -100 265 C-98.84738614 263.67252378 -97.70069214 262.33986211 -96.5625 261 C-93.66859226 257.66034817 -90.5791644 254.5418637 -87.4375 251.4375 C-83.39825201 247.44276163 -79.60680085 243.38664969 -76 239 C-77.54883566 235.4679991 -79.68774205 232.85890387 -82.1875 229.9375 C-94.49106945 214.95667384 -105.22303615 193.21812391 -105.03930664 173.26806641 C-105.0307943 172.06532578 -105.0307943 172.06532578 -105.02210999 170.83828735 C-105.01481369 170.23165253 -105.0075174 169.6250177 -105 169 C-106.09650879 169.01047363 -107.19301758 169.02094727 -108.32275391 169.03173828 C-148.88091687 169.38537574 -148.88091687 169.38537574 -167 167 C-167.68175293 166.92765137 -168.36350586 166.85530273 -169.06591797 166.78076172 C-170.72015369 166.59035513 -172.36290663 166.30442699 -174 166 C-174.33 165.34 -174.66 164.68 -175 164 C-173.54313397 163.68072936 -172.08437649 163.37009166 -170.625 163.0625 C-169.81289062 162.88847656 -169.00078125 162.71445313 -168.1640625 162.53515625 C-159.84126002 161.12747237 -151.51208099 160.81872963 -143.0859375 160.68359375 C-141.99028473 160.66281265 -140.89463196 160.64203156 -139.76577759 160.62062073 C-136.3022423 160.55579057 -132.83863812 160.49655298 -129.375 160.4375 C-127.01171193 160.39425134 -124.64843055 160.35063514 -122.28515625 160.30664062 C-116.52350807 160.20017847 -110.761793 160.09829478 -105 160 C-105.01667725 159.154375 -105.03335449 158.30875 -105.05053711 157.4375 C-105.31263805 134.51587752 -96.39381203 112.69536297 -82 95 C-80.95199219 93.69869141 -80.95199219 93.69869141 -79.8828125 92.37109375 C-76.63149419 88.49244639 -76.63149419 88.49244639 -75 87 C-74.34 87 -73.68 87 -73 87 C-72.77183594 86.42894531 -72.54367188 85.85789062 -72.30859375 85.26953125 C-64.06494954 70.97234531 -41.49858768 62.49242172 -26.34912109 58.25927734 C-18.49212503 56.29759214 -11.11881385 54.90705282 -3 55 C-3.02356567 53.77990234 -3.02356567 53.77990234 -3.04760742 52.53515625 C-3.34389201 34.75308055 -2.8347847 17.614367 0 0 Z M6 67 C6 75.91 6 84.82 6 94 C17.22 94 28.44 94 40 94 C37.68591511 89.37183021 35.84398235 86.29918019 32.625 82.4375 C31.87476563 81.52871094 31.12453125 80.61992188 30.3515625 79.68359375 C27.9956608 76.99504812 25.62513037 74.42758712 23 72 C22.34 72 21.68 72 21 72 C20.67 71.01 20.34 70.02 20 69 C18.4176994 68.66179834 16.83410625 68.32964061 15.25 68 C14.36828125 67.814375 13.4865625 67.62875 12.578125 67.4375 C9.77856035 66.88846325 9.77856035 66.88846325 6 67 Z M-27 77 C-24.07063376 78.3130239 -24.07063376 78.3130239 -21.4375 77.125 C-15.54592652 75.19684868 -9.04234874 74.18729538 -3 76 C-3 73.03 -3 70.06 -3 67 C-13.45259214 67 -19.28330129 69.9400416 -27 77 Z M38 76 C38.68835938 77.06927734 38.68835938 77.06927734 39.390625 78.16015625 C42.72992305 83.37254796 45.99357541 88.58843574 49 94 C50.65 94 52.3 94 54 94 C53.67 92.35 53.34 90.7 53 89 C54.32 88.67 55.64 88.34 57 88 C57 87.34 57 86.68 57 86 C54.98379306 84.56412562 52.99207766 83.2702466 50.875 82 C50.30523437 81.64421875 49.73546875 81.2884375 49.1484375 80.921875 C45.54175987 78.72508044 42.04974648 77.18168894 38 76 Z M-62 92 C-62.33 92.66 -62.66 93.32 -63 94 C-60.56282742 93.72965366 -60.56282742 93.72965366 -58 93 C-57.34 92.01 -56.68 91.02 -56 90 C-52.375 89.8125 -52.375 89.8125 -49 90 C-49.33 91.32 -49.66 92.64 -50 94 C-46.10213084 92.70071028 -45.84250681 91.33904972 -44 87.75 C-42.10169275 84.09180373 -40.15480579 80.51438564 -38 77 C-46.03400542 77 -56.30917419 86.8102532 -62 92 Z M-37.625 89.9375 C-39.06826507 92.59254288 -39.06826507 92.59254288 -39 94 C-33.72 94 -28.44 94 -23 94 C-23 92.02 -23 90.04 -23 88 C-28.14289704 85.42855148 -33.84262276 85.70483976 -37.625 89.9375 Z M61 90 C61.66 91.32 62.32 92.64 63 94 C63.99 93.67 64.98 93.34 66 93 C64.62514468 91.45833358 64.62514468 91.45833358 63 90 C62.34 90 61.68 90 61 90 Z M-59 102 C-60.65 105.3 -62.3 108.6 -64 112 C-62.6078125 111.9690625 -62.6078125 111.9690625 -61.1875 111.9375 C-58 112 -58 112 -55 113 C-54.01 109.37 -53.02 105.74 -52 102 C-54.31 102 -56.62 102 -59 102 Z M-44 102 C-44.33 103.32 -44.66 104.64 -45 106 C-43.96939453 106.00386719 -43.96939453 106.00386719 -42.91796875 106.0078125 C-40.16621994 106.12591331 -37.67367344 106.32833163 -35 107 C-33.125 109.8125 -33.125 109.8125 -32 113 C-30.68 114.32 -29.36 115.64 -28 117 C-33.94 117.495 -33.94 117.495 -40 118 C-39.01 120.31 -38.02 122.62 -37 125 C-40.3 125.33 -43.6 125.66 -47 126 C-47.2475 126.928125 -47.495 127.85625 -47.75 128.8125 C-49 132 -49 132 -51.125 133.4375 C-51.74375 133.953125 -52.3625 134.46875 -53 135 C-53 137.31 -53 139.62 -53 142 C-42.77 142.33 -32.54 142.66 -22 143 C-22 144.98 -22 146.96 -22 149 C-38.5 149 -55 149 -72 149 C-73.32 146.69 -74.64 144.38 -76 142 C-76.33 142 -76.66 142 -77 142 C-77 143.65 -77 145.3 -77 147 C-79.9375 146.1875 -79.9375 146.1875 -83 145 C-83.495 143.515 -83.495 143.515 -84 142 C-86.31 141.67 -88.62 141.34 -91 141 C-93.176182 148.04668458 -93.29994764 154.65769708 -93.25 162 C-93.25773437 163.13695312 -93.26546875 164.27390625 -93.2734375 165.4453125 C-93.25903955 171.65082738 -92.83330195 177.06359369 -91 183 C-88.69 183 -86.38 183 -84 183 C-84 182.01 -84 181.02 -84 180 C-81.36 180 -78.72 180 -76 180 C-76 181.32 -76 182.64 -76 184 C-68.08 184 -60.16 184 -52 184 C-53.71464683 179.71338294 -54.24528432 178.48999168 -57.25 175.5625 C-58.8515625 173.75390625 -58.8515625 173.75390625 -60 172 C-59.39822027 167.18576219 -56.39473208 163.17146879 -54 159 C-53.62830201 157.67684865 -53.28476159 156.34454443 -53 155 C-46.58817591 154.69467504 -40.74776809 154.83405457 -35 158 C-33.65729179 159.99371825 -32.32346506 161.9934562 -31 164 C-28.31371449 165.11102682 -25.89543055 165.51742824 -23 166 C-23 166.66 -23 167.32 -23 168 C-23.73734375 168.12117188 -24.4746875 168.24234375 -25.234375 168.3671875 C-33.77849179 170.32219727 -43.40825633 177.06513807 -48.5625 184.125 C-50.372678 187.20963137 -50.372678 187.20963137 -50 192 C-57.92 192 -65.84 192 -74 192 C-71.59921161 200.96294331 -69.08215812 208.64067845 -64.125 216.5 C-63.72684082 217.13292969 -63.32868164 217.76585937 -62.91845703 218.41796875 C-61.15184784 221.10913868 -59.45854192 223.55251093 -57.14648438 225.80883789 C-53.2038143 229.67480037 -51.55544993 232.2791558 -51.203125 237.87109375 C-51.1889929 240.05990598 -51.20585243 242.2490874 -51.25 244.4375 C-51.22867005 246.76311584 -51.19871487 249.0886685 -51.16015625 251.4140625 C-51.14355957 252.54102539 -51.12696289 253.66798828 -51.10986328 254.82910156 C-50.75641107 265.03051794 -49.30520397 282.69479603 -42 290 C-42.45189452 284.17293903 -43.08229832 278.45052974 -44.0625 272.6875 C-45.54617587 262.85127847 -45.17519323 252.92132742 -45 243 C-44.731875 244.0415625 -44.46375 245.083125 -44.1875 246.15625 C-40.69253572 259.14518016 -35.65244078 270.90481303 -28 282 C-27.01 281.67 -26.02 281.34 -25 281 C-26.22019274 277.83081163 -27.57389311 274.85989738 -29.1875 271.875 C-43.05418492 244.05982081 -44.80199294 216.48066718 -44 186 C-43.39510742 185.70577148 -42.79021484 185.41154297 -42.16699219 185.10839844 C-39.38816202 183.68704997 -36.86117625 181.95985653 -34.25 180.25 C-26.95359667 175.60111522 -19.16019763 172.7654585 -11 170 C-10.91832554 168.58430936 -10.86050302 167.16723195 -10.8125 165.75 C-10.77769531 164.96109375 -10.74289063 164.1721875 -10.70703125 163.359375 C-10.78611271 160.92409719 -10.78611271 160.92409719 -12.48828125 159.29296875 C-14.9061249 155.62559349 -14.43355612 151.85336248 -14.375 147.5625 C-14.38660156 146.71623047 -14.39820313 145.86996094 -14.41015625 144.99804688 C-14.38710404 140.09176854 -13.97377315 137.08303773 -11 133 C-11 132.34 -11 131.68 -11 131 C-2.8050381 128.61601108 4.09550926 128.03183642 12.2734375 130.7578125 C15.05527627 132.75922592 15.80906429 134.80025706 17 138 C17.41147909 141.21980609 17.41989107 144.38286752 17.375 147.625 C17.38660156 148.470625 17.39820313 149.31625 17.41015625 150.1875 C17.3878905 154.89299451 17.17179179 157.35368818 14 161 C13.64042111 163.35929642 13.64042111 163.35929642 13.8125 165.75 C13.83957031 166.54921875 13.86664063 167.3484375 13.89453125 168.171875 C13.94673828 169.07679688 13.94673828 169.07679688 14 170 C14.72703125 170.29132813 15.4540625 170.58265625 16.203125 170.8828125 C23.65830421 173.92223172 30.90726921 177.1877826 38 181 C38.77730469 181.34546875 39.55460938 181.6909375 40.35546875 182.046875 C44.89855481 184.53577018 46.57334379 187.68601803 48.12207031 192.58349609 C51.23268349 203.93505724 52.40753606 215.73168495 53.65722656 227.40771484 C53.73304459 228.09247391 53.80886261 228.77723297 53.88697815 229.48274231 C54.09383227 231.36667647 54.28979576 233.25179714 54.48510742 235.13696289 C54.74061426 238.12113611 54.74061426 238.12113611 57 240 C72.24314601 227.7707904 84.02167425 213.5574061 91 195 C91 194.01 91 193.02 91 192 C88.3941111 191.86505754 85.79517889 191.76597701 83.1875 191.6875 C82.44951172 191.64560547 81.71152344 191.60371094 80.95117188 191.56054688 C78.51260154 191.45136393 78.51260154 191.45136393 75 192 C72.96864499 194.41790412 72 195.82425946 72 199 C69.69 199 67.38 199 65 199 C64.67 196.69 64.34 194.38 64 192 C60.37 192 56.74 192 53 192 C52.855625 191.05125 52.71125 190.1025 52.5625 189.125 C52.17064601 186.1065506 52.17064601 186.1065506 51 184 C54.63 184 58.26 184 62 184 C65.03870524 178.22537597 65.03870524 178.22537597 66 171.9375 C64.70291491 168.12731254 63.30187604 164.325814 61 161 C58 159.66666667 58 159.66666667 55 161 C51.5625 161.40625 51.5625 161.40625 48 161 C45.875 158.59375 45.875 158.59375 44 155.5 C41.11285002 151.57849716 39.94763644 150.17703098 35.08984375 149.26953125 C31.36324893 149.19225973 27.69557604 149.51796834 24 150 C24 147.36 24 144.72 24 142 C29.61 142 35.22 142 41 142 C44.1490712 136.81989159 44.1490712 136.81989159 44 134 C46 133.33333333 48 132.66666667 50 132 C50.9178125 131.58621094 51.835625 131.17242187 52.78125 130.74609375 C57.11121732 129.74242414 58.96089544 130.94557819 62.875 132.9375 C68.37975586 135.56002141 72.05681996 136.9429627 78 135 C78.66 134.01 79.32 133.02 80 132 C78.35 132 76.7 132 75 132 C75 130.02 75 128.04 75 126 C76.32 126 77.64 126 79 126 C78.67 124.35 78.34 122.7 78 121 C75.47636012 121.62533375 75.47636012 121.62533375 73 123 C72.30086039 125.53644637 72.30086039 125.53644637 72 128 C71.19175781 127.54367188 70.38351562 127.08734375 69.55078125 126.6171875 C68.48214844 126.04226562 67.41351563 125.46734375 66.3125 124.875 C65.25675781 124.29492188 64.20101562 123.71484375 63.11328125 123.1171875 C60.08278662 121.71642799 60.08278662 121.71642799 57.16796875 122.6328125 C54.68928272 123.87588095 54.68928272 123.87588095 54 127 C51.36 127.33 48.72 127.66 46 128 C45.01 124.535 45.01 124.535 44 121 C46.475 120.01 46.475 120.01 49 119 C48.4225 118.566875 47.845 118.13375 47.25 117.6875 C44.125 115.34375 44.125 115.34375 41 113 C41.33 111.68 41.66 110.36 42 109 C42.50789062 109.31195313 43.01578125 109.62390625 43.5390625 109.9453125 C48.18095612 112.57781236 48.18095612 112.57781236 53.4375 112.5 C56.14212536 111.26410725 56.14212536 111.26410725 56.875 108.875 C56.91625 108.25625 56.9575 107.6375 57 107 C60.465 106.505 60.465 106.505 64 106 C63.01 104.02 63.01 104.02 62 102 C58.7 102 55.4 102 52 102 C52.33 103.98 52.66 105.96 53 108 C50.69 107.67 48.38 107.34 46 107 C45.01 104.525 45.01 104.525 44 102 C31.46 102 18.92 102 6 102 C5.67 108.6 5.34 115.2 5 122 C1.04 122.495 1.04 122.495 -3 123 C-3 116.07 -3 109.14 -3 102 C-9.93798735 101.86527783 -9.93798735 101.86527783 -15.1875 104.9375 C-18.13976729 106.90412844 -20.48818008 108.36222121 -24 109 C-24 106.69 -24 104.38 -24 102 C-30.6 102 -37.2 102 -44 102 Z M-81 116 C-82.15082685 118.24756784 -83.29576858 120.49781748 -84.4375 122.75 C-84.92573242 123.70132813 -84.92573242 123.70132813 -85.42382812 124.671875 C-86.97063665 127.73359908 -88.3915078 130.60615621 -89 134 C-87.35 134 -85.7 134 -84 134 C-83.30215669 131.565036 -82.61646178 129.12772895 -81.9375 126.6875 C-81.73833984 125.99720703 -81.53917969 125.30691406 -81.33398438 124.59570312 C-80.13040799 120.30665604 -80.13040799 120.30665604 -81 116 Z M83 116 C84 118 84 118 84 118 Z M84 118 C85 120 85 120 85 120 Z M85 120 C85.99043705 124.83628305 86.95698846 129.47618873 89 134 C89.99 134 90.98 134 92 134 C89.75979994 126.65809268 89.75979994 126.65809268 86 120 C85.67 120 85.34 120 85 120 Z M-65 136 C-65.66 137.65 -66.32 139.3 -67 141 C-64.525 141.99 -64.525 141.99 -62 143 C-61.67 140.69 -61.34 138.38 -61 136 C-62.32 136 -63.64 136 -65 136 Z M91 141 C90.67 143.97 90.34 146.94 90 150 C87.18060883 147.79020692 84.46941056 145.59937954 82 143 C83.07233865 146.57446217 84.36413609 149.70087133 86.1875 152.9375 C88.25810156 157.05535047 88.32639265 159.47466038 87 164 C86.16594025 165.63541127 85.30994106 167.2597377 84.4375 168.875 C81.76478159 173.88250691 81.54721897 177.38551526 82 183 C83.32 183 84.64 183 86 183 C86.0270043 181.54176788 86.04639787 180.08339325 86.0625 178.625 C86.07410156 177.81289062 86.08570313 177.00078125 86.09765625 176.1640625 C86.14466334 173.95062858 86.14466334 173.95062858 85 172 C86.98 171.34 88.96 170.68 91 170 C91.49230769 177.26153846 91.49230769 177.26153846 89 181 C88.34 181.66 87.68 182.32 87 183 C88.98 183.33 90.96 183.66 93 184 C98.7658689 171.69947967 96.46980095 154.87824782 94 142 C93.01 141.67 92.02 141.34 91 141 Z M-88 192 C-83.86921761 205.903609 -76.60689676 217.22153047 -67 228 C-67 224.43468199 -67.91887228 223.06502738 -69.6875 220 C-74.72430419 210.99300899 -78.62604066 201.74489932 -82 192 C-83.98 192 -85.96 192 -88 192 Z M33 209 C29.16843803 219.12599293 29.61487015 229.24490933 29.70703125 239.88671875 C29.71263624 241.79913498 29.71690206 243.71155556 29.71989441 245.62397766 C29.73127215 250.62332342 29.76067741 255.62240189 29.79400635 260.62164307 C29.82486079 265.73665757 29.83843241 270.85171585 29.85351562 275.96679688 C29.88555475 285.97798112 29.93666419 295.98896821 30 306 C33.16256495 302.51098164 34.49955694 300.42584261 34.54589844 295.70092773 C34.56561707 294.66471786 34.58533569 293.628508 34.60565186 292.56089783 C34.60749481 290.88913231 34.60749481 290.88913231 34.609375 289.18359375 C34.62591125 288.01731949 34.64244751 286.85104523 34.65948486 285.64942932 C34.70799513 281.91206843 34.72926899 278.17510769 34.75 274.4375 C34.77818058 271.97979681 34.8081109 269.52211302 34.83984375 267.06445312 C34.92405584 260.04303461 34.96851962 253.02183034 35 246 C35.00547852 244.9981366 35.01095703 243.99627319 35.01660156 242.96405029 C35.03048971 240.2533737 35.03993151 237.54273366 35.046875 234.83203125 C35.05015808 234.06926376 35.05344116 233.30649628 35.05682373 232.52061462 C35.0596669 224.66171387 34.56838465 216.83558836 34 209 C33.67 209 33.34 209 33 209 Z " fill="#151515" transform="translate(186,26)"/>
<path d="M0 0 C0.75578339 0.00060425 1.51156677 0.0012085 2.29025269 0.00183105 C13.10549167 0.02533216 23.71309978 0.18767949 34.375 2.1875 C35.04096191 2.31108887 35.70692383 2.43467773 36.39306641 2.56201172 C64.68718801 8.00192091 91.00141725 21.25689822 113.375 39.1875 C114.16390625 39.79078125 114.9528125 40.3940625 115.765625 41.015625 C133.13146437 54.44957621 147.73291601 71.99732699 158.375 91.1875 C159.29345703 92.77498047 159.29345703 92.77498047 160.23046875 94.39453125 C174.18594947 119.00437971 182.07459781 147.85378887 181.375 176.1875 C176.755 176.1875 172.135 176.1875 167.375 176.1875 C167.21644531 174.53105469 167.05789063 172.87460938 166.89453125 171.16796875 C165.50103417 157.43265707 163.67188032 144.32499944 159.375 131.1875 C159.07352051 130.25728027 158.77204102 129.32706055 158.46142578 128.36865234 C152.17593225 109.41284544 143.49194277 92.35313363 130.375 77.1875 C128.8748744 75.29176605 127.37487912 73.39592897 125.875 71.5 C122.65541963 67.57596444 119.36543069 64.15579972 115.45703125 60.92578125 C113.09337513 58.95237229 110.87268784 56.85429467 108.625 54.75 C103.25202767 49.91677831 97.49528557 46.01084387 91.375 42.1875 C90.79588867 41.82124512 90.21677734 41.45499023 89.62011719 41.07763672 C65.40791085 25.8196487 37.26392947 15.71211736 8.375 15.1875 C7.70823242 15.16316895 7.04146484 15.13883789 6.35449219 15.11376953 C-36.9750559 13.56971082 -79.85505614 27.89234502 -111.828125 57.5234375 C-112.75109375 58.40257812 -113.6740625 59.28171875 -114.625 60.1875 C-115.19798828 60.72793945 -115.77097656 61.26837891 -116.36132812 61.82519531 C-130.29701463 75.0415737 -140.42163058 89.37611876 -149.625 106.1875 C-149.95628906 106.79110352 -150.28757812 107.39470703 -150.62890625 108.01660156 C-161.73526695 128.73066132 -166.40018441 152.91600378 -167.625 176.1875 C-172.245 176.1875 -176.865 176.1875 -181.625 176.1875 C-182.52777855 148.50229125 -175.04758415 120.6900685 -161.51953125 96.58203125 C-160.1616228 94.14899528 -158.93434889 91.75893152 -157.7421875 89.25 C-155.59749387 84.92059785 -152.88227752 81.19111927 -149.9375 77.375 C-149.40423096 76.67705322 -148.87096191 75.97910645 -148.3215332 75.26000977 C-146.76371002 73.2297646 -145.19515959 71.20820902 -143.625 69.1875 C-142.50738281 67.72570312 -142.50738281 67.72570312 -141.3671875 66.234375 C-130.57816154 52.53272226 -117.96120528 41.05151136 -103.625 31.1875 C-102.62855469 30.49527344 -101.63210937 29.80304687 -100.60546875 29.08984375 C-70.07876664 9.18823206 -36.13586289 -0.053281 0 0 Z " fill="#181818" transform="translate(187.625,6.8125)"/>
<path d="M0 0 C4.62 0 9.24 0 14 0 C14.08636719 1.04414063 14.17273437 2.08828125 14.26171875 3.1640625 C16.98001057 32.7514923 25.50184068 61.71904902 43 86 C43.86044922 87.28583984 43.86044922 87.28583984 44.73828125 88.59765625 C50.82015271 97.64356621 58.2338057 105.39411705 66 113 C66.73992187 113.77214844 67.47984375 114.54429687 68.2421875 115.33984375 C101.56246075 147.48022064 147.85153177 158.84372194 192.78924561 158.17739868 C237.20728191 157.2535956 277.27923363 133.92460313 307.6015625 102.8671875 C314.90079694 95.05774008 320.52064271 86.13764463 326 77 C326.44311523 76.27345215 326.88623047 75.5469043 327.34277344 74.79833984 C340.89021606 52.26361105 346.67153051 25.91954198 349 0 C353.62 0 358.24 0 363 0 C363.19017416 7.43037621 362.53531418 14.31263639 361.25 21.625 C361.06808105 22.67679443 360.88616211 23.72858887 360.69873047 24.81225586 C355.80456931 52.41422685 345.41938024 80.41736305 327 102 C326.16597656 103.01964844 325.33195312 104.03929687 324.47265625 105.08984375 C322.01688947 108.09000144 319.50890425 111.0441313 317 114 C316.42894531 114.70769531 315.85789062 115.41539062 315.26953125 116.14453125 C311.6250863 120.56285833 307.53152026 124.28865581 303.1875 128 C302.61153076 128.4937915 302.03556152 128.98758301 301.44213867 129.49633789 C297.2510217 133 297.2510217 133 295 133 C295 133.66 295 134.32 295 135 C292.88798363 136.69742425 290.78217551 138.26717417 288.5625 139.8125 C287.91724365 140.26608887 287.2719873 140.71967773 286.60717773 141.18701172 C281.88872719 144.46648541 277.10170314 147.35557652 272 150 C270.89269531 150.61488281 269.78539062 151.22976563 268.64453125 151.86328125 C224.91544801 176.07891096 174.39558552 179.03356055 126.68408203 165.77636719 C102.36678951 158.7426224 78.20763333 145.61163879 60 128 C58.61230504 126.78232893 57.21710512 125.57312545 55.8125 124.375 C54.53774322 123.25444767 53.2667883 122.1295529 52 121 C51.401875 120.46890625 50.80375 119.9378125 50.1875 119.390625 C34.78071499 104.88256912 23.96254421 85.94007739 15 67 C14.46375 65.88109375 13.9275 64.7621875 13.375 63.609375 C4.45759795 44.00966841 -0.96718618 21.60049138 0 0 Z " fill="#151515" transform="translate(6,198)"/>
<path d="M0 0 C6.77432282 0.88493406 10.93852482 8.44493218 14.94140625 13.40625 C35.64121809 40.71790153 48.8538064 73.42084073 48 108 C44.37 107.67 40.74 107.34 37 107 C36.85304688 105.65550781 36.70609375 104.31101562 36.5546875 102.92578125 C34.25346755 83.35382533 29.43861706 65.60592117 20.88134766 47.84033203 C20.13873691 46.28969497 19.43053541 44.72264713 18.73046875 43.15234375 C12.85006453 30.37337345 3.18172024 19.50835662 -6 9 C-4.38617243 5.59787701 -2.41396234 2.89675481 0 0 Z " fill="#1E1E1E" transform="translate(302,75)"/>
<path d="M0 0 C3.36573933 1.44245971 5.75010389 3.083468 8 6 C7.71189173 10.28648897 6.26069308 12.12322847 3.25 15.0625 C-1.41759082 20.02977563 -5.11313467 25.40708612 -8.8125 31.125 C-9.63862793 32.39549194 -9.63862793 32.39549194 -10.48144531 33.69165039 C-24.76084636 56.02771777 -31.48518411 80.85915057 -34 107 C-39.445 107.495 -39.445 107.495 -45 108 C-46.40671145 79.86577095 -37.15673693 52.92771066 -22.421875 29.30859375 C-21.29940518 27.48612215 -20.25236331 25.61720293 -19.234375 23.734375 C-16.76870701 19.39850134 -13.67404397 15.64510411 -10.5 11.8125 C-9.93152344 11.11447266 -9.36304688 10.41644531 -8.77734375 9.69726562 C-5.99174949 6.30090882 -3.1924871 3.02816791 0 0 Z " fill="#1F1F1F" transform="translate(70,75)"/>
<path d="M0 0 C3.63 0 7.26 0 11 0 C11.21914063 1.50046875 11.43828125 3.0009375 11.6640625 4.546875 C16.70961554 37.6916905 27.79595091 65.65791243 49.79296875 91.25 C52 94 52 94 52.125 96.0625 C50.51093535 98.842278 48.34943654 100.83128935 46 103 C28.99511791 95.8541282 16.34344135 66.39440154 9.6875 50.25 C3.35171791 34.28332654 -0.27279884 17.18632686 0 0 Z " fill="#1B1B1B" transform="translate(25,199)"/>
<path d="M0 0 C3.63 0 7.26 0 11 0 C11.19088979 6.89324254 10.52631334 13.2814358 9.3125 20.0625 C9.13243408 21.07256104 8.95236816 22.08262207 8.7668457 23.12329102 C3.27596357 52.63707566 -11.18191654 82.07666444 -33 103 C-37.28079185 101.41452154 -39.20711718 98.45520826 -42 95 C-41.17757813 94.1028125 -40.35515625 93.205625 -39.5078125 92.28125 C-15.57943635 65.73458224 -5.10152033 34.93040976 0 0 Z " fill="#1B1B1B" transform="translate(339,199)"/>
<path d="M0 0 C24.31735522 1.04012286 46.6077116 6.34969035 68.11914062 17.99707031 C70.00503363 19.00268408 71.91037206 19.9552002 73.828125 20.8984375 C80.62688443 24.29216246 86.80890831 28.07647548 92.8125 32.75 C93.40562988 33.20995361 93.99875977 33.66990723 94.60986328 34.14379883 C97.50866995 36.48527388 99.6998908 38.45575328 101 42 C100.34 42 99.68 42 99 42 C99 42.66 99 43.32 99 44 C96.75 46.1875 96.75 46.1875 94 48 C89.89729737 47.74863091 86.96862624 44.94601654 83.8125 42.5625 C59.37927973 24.75714919 32.10252084 14.816856 2 12 C1.34 8.04 0.68 4.08 0 0 Z " fill="#1B1B1B" transform="translate(194,26)"/>
<path d="M0 0 C-0.14037521 1.81293089 -0.28744889 3.6253443 -0.4375 5.4375 C-0.55931641 6.95150391 -0.55931641 6.95150391 -0.68359375 8.49609375 C-1 11 -1 11 -2 12 C-3.64863328 12.30940104 -5.30747939 12.56470985 -6.96875 12.796875 C-34.37976404 16.78815024 -60.89729077 24.44758625 -82.81640625 42.29296875 C-85 44 -85 44 -87 44 C-87 44.66 -87 45.32 -87 46 C-90 48 -90 48 -91.984375 47.84765625 C-94.47641468 46.79964732 -95.56889567 45.53888041 -97.25 43.4375 C-97.77078125 42.79683594 -98.2915625 42.15617187 -98.828125 41.49609375 C-99.21484375 41.00238281 -99.6015625 40.50867188 -100 40 C-93.44765914 33.73192556 -86.83213471 28.55928614 -79 24 C-78.33935547 23.61166992 -77.67871094 23.22333984 -76.99804688 22.82324219 C-66.98850193 16.97157753 -57.01727135 11.71982789 -46 8 C-45.33629395 7.77473633 -44.67258789 7.54947266 -43.98876953 7.31738281 C-29.96843553 2.69992726 -14.78008962 0 0 0 Z " fill="#1E1E1E" transform="translate(180,26)"/>
<path d="M0 0 C7.09323556 -0.4576281 12.77266198 0.371288 19 4 C20.0409066 5.64142963 21.04504326 7.30712215 22 9 C24.61885988 10.32787262 27.1801938 11.12169971 30 12 C30 12.66 30 13.32 30 14 C28.60587891 14.65355469 28.60587891 14.65355469 27.18359375 15.3203125 C20.325398 18.60213146 14.60774023 21.77460569 9 27 C8.34 27 7.68 27 7 27 C6.71125 27.61875 6.4225 28.2375 6.125 28.875 C5 31 5 31 3 33 C3 32.34 3 31.68 3 31 C-2.28 31 -7.56 31 -13 31 C-13 30.67 -13 30.34 -13 30 C-8.38 30 -3.76 30 1 30 C0.071875 28.576875 -0.85625 27.15375 -1.8125 25.6875 C-2.33457031 24.88699219 -2.85664063 24.08648437 -3.39453125 23.26171875 C-4.80389849 21.2762598 -6.22096657 19.6508148 -8 18 C-6.99463106 14.56498947 -5.80781281 11.51348 -4 8.4375 C-2.3725222 5.64027254 -1.1012571 3.02845702 0 0 Z " fill="#1C1C1C" transform="translate(133,180)"/>
<path d="M0 0 C-1.39168822 3.98854975 -3.25342968 6.94583212 -5.875 10.25 C-6.55304688 11.12140625 -7.23109375 11.9928125 -7.9296875 12.890625 C-10.0417042 15.04249107 -11.05870927 15.65706924 -14 16 C-15.07783228 12.00568038 -15.88846035 8.58203263 -13.7890625 4.84375 C-9.43286146 0.03418867 -6.35029948 -0.77986134 0 0 Z " fill="#3C3C3C" transform="translate(259,243)"/>
<path d="M0 0 C0.33 0 0.66 0 1 0 C1.33 11.22 1.66 22.44 2 34 C1.34 34 0.68 34 0 34 C0 46.87 0 59.74 0 73 C-0.66 72.67 -1.32 72.34 -2 72 C-1.87990613 65.44271034 -1.75521596 58.88551833 -1.62768555 52.32836914 C-1.58502049 50.10898707 -1.54331605 47.88958627 -1.50268555 45.67016602 C-1.22290046 30.43396845 -0.7421005 15.22091716 0 0 Z " fill="#7D7D7D" transform="translate(134,258)"/>
<path d="M0 0 C1.35384615 7.38461538 1.35384615 7.38461538 -0.4375 10.5 C-0.953125 10.995 -1.46875 11.49 -2 12 C-1.01 12.66 -0.02 13.32 1 14 C-2.63 14 -6.26 14 -10 14 C-9.67 13.01 -9.34 12.02 -9 11 C-9 11.66 -9 12.32 -9 13 C-7.68 13 -6.36 13 -5 13 C-5.33 9.37 -5.66 5.74 -6 2 C-3 0 -3 0 0 0 Z " fill="#8D8D8D" transform="translate(277,196)"/>
<path d="M0 0 C4.95 0.33 9.9 0.66 15 1 C15 1.33 15 1.66 15 2 C9.06 2.495 9.06 2.495 3 3 C3 5.64 3 8.28 3 11 C4.32 11.33 5.64 11.66 7 12 C5.35 12 3.7 12 2 12 C1.34 8.04 0.68 4.08 0 0 Z " fill="#838383" transform="translate(194,26)"/>
<path d="M0 0 C6.93 0 13.86 0 21 0 C21 2.31 21 4.62 21 7 C21.99 7.33 22.98 7.66 24 8 C22.68 8.33 21.36 8.66 20 9 C19 6 19 6 20 1 C13.4 1 6.8 1 0 1 C0 0.67 0 0.34 0 0 Z " fill="#A3A3A3" transform="translate(142,127)"/>
<path d="M0 0 C2.61724095 2.36797991 4.32861729 4.89600354 6 8 C6 8.66 6 9.32 6 10 C5.34 10 4.68 10 4 10 C3.67 10.99 3.34 11.98 3 13 C0.78145293 8.37802694 -0.38281159 5.23175837 0 0 Z " fill="#5E5E5E" transform="translate(168,210)"/>
<path d="M0 0 C0.99 0 1.98 0 3 0 C2.67 2.97 2.34 5.94 2 9 C1.01 8.67 0.02 8.34 -1 8 C-1.04241723 5.66705225 -1.04092937 3.33297433 -1 1 C-0.67 0.67 -0.34 0.34 0 0 Z " fill="#212121" transform="translate(274,196)"/>
<path d="M0 0 C3 3.75 3 3.75 3 6 C-0.21451269 7.60725635 -3.43612536 7.05748185 -7 7 C-7 8.65 -7 10.3 -7 12 C-7.33 12 -7.66 12 -8 12 C-8 10.02 -8 8.04 -8 6 C-5.69 5.34 -3.38 4.68 -1 4 C-0.67 2.68 -0.34 1.36 0 0 Z " fill="#858585" transform="translate(146,145)"/>
<path d="M0 0 C2.0625 0.4375 2.0625 0.4375 4 1 C3.34 1 2.68 1 2 1 C2 2.98 2 4.96 2 7 C-0.31 7 -2.62 7 -5 7 C-5.33 5.35 -5.66 3.7 -6 2 C-5.01 3.485 -5.01 3.485 -4 5 C-2.68 5 -1.36 5 0 5 C-0.2784375 4.0409375 -0.2784375 4.0409375 -0.5625 3.0625 C-0.706875 2.381875 -0.85125 1.70125 -1 1 C-0.67 0.67 -0.34 0.34 0 0 Z " fill="#656565" transform="translate(239,114)"/>
<path d="M0 0 C1.65 1.65 3.3 3.3 5 5 C4.67 5.99 4.34 6.98 4 8 C1.53199953 6.84826645 -0.04783565 5.95216435 -2 4 C-1.01 4 -0.02 4 1 4 C0.67 2.68 0.34 1.36 0 0 Z " fill="#606060" transform="translate(296,300)"/>
<path d="M0 0 C0.66 0.99 1.32 1.98 2 3 C-0.31 5.31 -2.62 7.62 -5 10 C-5 6.60406522 -4.47834052 5.93380119 -2.5 3.3125 C-2.0359375 2.68988281 -1.571875 2.06726563 -1.09375 1.42578125 C-0.7328125 0.95527344 -0.371875 0.48476563 0 0 Z " fill="#454545" transform="translate(327,283)"/>
<path d="M0 0 C2.125 0.9375 2.125 0.9375 4 2 C1.69 3.32 -0.62 4.64 -3 6 C-2.625 3.5625 -2.625 3.5625 -2 1 C-1.34 0.67 -0.68 0.34 0 0 Z " fill="#646464" transform="translate(150,100)"/>
<path d="M0 0 C0.66 0.33 1.32 0.66 2 1 C0.02 3.97 0.02 3.97 -2 7 C-2.99 6.67 -3.98 6.34 -5 6 C-3.35 4.02 -1.7 2.04 0 0 Z " fill="#5F5F5F" transform="translate(85,61)"/>
</svg>
